<svg clip-rule="evenodd" fill-rule="evenodd" height="37" image-rendering="optimizeQuality" shape-rendering="geometricPrecision" text-rendering="geometricPrecision" width="41" xmlns="http://www.w3.org/2000/svg"><path d="m24.5 1.5v8c-3.6667 1.3333-7.3333 1.3333-11 0 0-2.66667 0-5.33333 0-8 3.6667-1.333333 7.3333-1.333333 11 0z" fill="#868587"/><path d="m16.5 4.5c2.104-.2989 4.104.03443 6 1-2.4694.53607-4.636 1.53607-6.5 3-.5791-1.42847-.4124-2.7618.5-4z" fill="#39393a"/><path d="m35.5 13.5c-1.675-1.502-3.5083-2.8353-5.5-4-.49-1.29323-.6567-2.62656-.5-4 .904-.70895 1.2373-1.70895 1-3-1.6667 0-3.3333 0-5 0 .0751 2.70616.4084 5.37283 1 8-.3333 0-.6667 0-1 0 0-.66667-.3333-1-1-1 0-2.66667 0-5.33333 0-8 2.8265-1.4735072 5.3265-1.140174 7.5 1 .624 1.96446.124 3.63113-1.5 5 2.4377 1.4308 4.1044 3.4308 5 6z" fill="#272228"/><path d="m13.5 1.5v8c-.7829-1.84324-1.4495-3.84324-2-6 .3555-1.0223 1.0222-1.68897 2-2z" fill="#222025"/><path d="m29.5 5.5c-.1567 1.37344.01 2.70677.5 4 1.9917 1.1647 3.825 2.498 5.5 4-.073 1.5269.5937 2.5269 2 3 .077 3.7148-.2564 7.3815-1 11-1.4245 1.5311-2.0912 1.1977-2-1 .1646-3.0184-.002-6.0184-.5-9-.4983-2.0444-1.665-3.3777-3.5-4-.7623-1.7624-2.0956-2.7624-4-3-.5916-2.62717-.9249-5.29384-1-8h5c.2373 1.29105-.096 2.29105-1 3z" fill="#979697"/><path d="m29.5 5.5c-1.837-.13945-2.1704-.80612-1-2 .7975.45689 1.1309 1.12356 1 2z" fill="#433e3f"/><path d="m13.5 9.5c3.6667 1.3333 7.3333 1.3333 11 0 .6667 0 1 .33333 1 1 0 .6667.3333 1 1 1 0 .6667.3333 1 1 1v1c-4.2267-2.0712-8.56-2.4045-13-1-.891.6098-1.891.9431-3 1 1.1005-1.1049 1.7671-2.4382 2-4z" fill="#2b2a2c"/><path d="m26.5 11.5c0-.3333 0-.6667 0-1 1.9044.2376 3.2377 1.2376 4 3-.6667 0-1.3333 0-2 0 0-.6667-.3333-1-1-1s-1-.3333-1-1z" fill="#302b2e"/><path d="m27.5 13.5 3 6c-6.0618.7208-12.3952 1.3875-19 2 1.9582-3.3524 4.9582-4.8524 9-4.5-3.3397.1486-5.3397-1.3514-6-4.5 4.44-1.4045 8.7733-1.0712 13 1z" fill="#9e9fa1"/><path d="m11.5 13.5c-1.3637 1.6911-2.69701 3.3577-4 5-.13078-2.8667 1.20256-4.5334 4-5z" fill="#262326"/><path d="m35.5 13.5c1.4063.4731 2.073 1.4731 2 3-1.4063-.4731-2.073-1.4731-2-3z" fill="#231d23"/><path d="m27.5 13.5h1c.6667 1.3333 1.6667 2.3333 3 3-.1716.9916.1618 1.6583 1 2v2c-.6667-.3333-1.3333-.6667-2-1-1-2-2-4-3-6z" fill="#2f2c31"/><path d="m14.5 12.5c.6603 3.1486 2.6603 4.6486 6 4.5-4.0418-.3524-7.0418 1.1476-9 4.5-1.3333 0-2.66667 0-4 0 0-1 0-2 0-3 1.30299-1.6423 2.6363-3.3089 4-5 1.109-.0569 2.109-.3902 3-1z" fill="#9e9fa0"/><path d="m37.5 16.5c.6582 1.2933.9915 2.7933 1 4.5.164 2.5437-.5027 4.7103-2 6.5.7436-3.6185 1.077-7.2852 1-11z" fill="#221d23"/><path d="m30.5 19.5c.6667.3333 1.3333.6667 2 1v1c-.3333.6667-.6667 1.3333-1 2-6.4568 1.0714-12.7901 2.0714-19 3-.891-.6098-1.891-.9431-3-1-1.30826-.7323-2.64159-1.5656-4-2.5.5442-.7172 1.21087-1.2172 2-1.5h4c6.6048-.6125 12.9382-1.2792 19-2z" fill="#858586"/><path d="m30.5 13.5c1.835.6223 3.0017 1.9556 3.5 4 .498 2.9816.6646 5.9816.5 9-.3333 0-.6667 0-1 0 .131-.7389-.0357-1.4056-.5-2-.6082 1.5664-1.4415 2.8998-2.5 4-.0674-1.4587.2659-2.7921 1-4 0-.3333 0-.6667 0-1 .3333-.6667.6667-1.3333 1-2 1.3333-1 1.3333-2 0-3 .1716-.9916-.1618-1.6583-1-2-.0569-1.109-.3902-2.109-1-3z" fill="#1e1b22"/><path d="m31.5 23.5v1c-3.5395.5027-6.8728 1.5027-10 3-2.9165-.5032-5.9165-.8365-9-1 6.2099-.9286 12.5432-1.9286 19-3z" fill="#363637"/><path d="m31.5 24.5c-.7341 1.2079-1.0674 2.5413-1 4 .1716.9916-.1618 1.6583-1 2-1.109.0569-2.109.3902-3 1-2.3706-.8425-4.7039-1.1758-7-1-.2093-.586-.5426-1.086-1-1.5 1.2375-.2321 2.2375-.7321 3-1.5 3.1272-1.4973 6.4605-2.4973 10-3z" fill="#98999a"/><path d="m7.5 18.5v3c-.78913.2828-1.4558.7828-2 1.5 1.35841.9344 2.69174 1.7677 4 2.5-1.72516.3425-2.22516 1.3425-1.5 3 1.35968 2.5226 3.193 4.5226 5.5 6-3.88188-.7108-6.38188-3.0442-7.5-7-2.30263-3.5613-1.80263-6.5613 1.5-9z" fill="#201d23"/><path d="m9.5 25.5c1.109.0569 2.109.3902 3 1 3.0835.1635 6.0835.4968 9 1-.7625.7679-1.7625 1.2679-3 1.5.4574.414.7907.914 1 1.5 2.2961-.1758 4.6294.1575 7 1-.3333.6667-.6667 1.3333-1 2-3.9517.7721-7.9517 1.1054-12 1-2.307-1.4774-4.14032-3.4774-5.5-6-.72516-1.6575-.22516-2.6575 1.5-3z" fill="#99999a"/><path d="m33.5 26.5h1c-.0912 2.1977.5755 2.5311 2 1v3c-1 0-2 0-3 0 0-1.3333 0-2.6667 0-4z" fill="#535052"/><path d="m29.5 30.5c-.7623 1.7624-2.0956 2.7624-4 3 .3333-.6667.6667-1.3333 1-2 .891-.6098 1.891-.9431 3-1z" fill="#242228"/><path d="m25.5 33.5c-.1107.6174-.444 1.1174-1 1.5-3.8575.8099-7.5242.6433-11-.5 4.0483.1054 8.0483-.2279 12-1z" fill="#17171d"/></svg>