<?xml version="1.0" encoding="UTF-8"?>
<!DOCTYPE svg PUBLIC "-//W3C//DTD SVG 1.1//EN" "http://www.w3.org/Graphics/SVG/1.1/DTD/svg11.dtd">
<svg xmlns="http://www.w3.org/2000/svg" version="1.1" width="512px" height="512px" style="shape-rendering:geometricPrecision; text-rendering:geometricPrecision; image-rendering:optimizeQuality; fill-rule:evenodd; clip-rule:evenodd" xmlns:xlink="http://www.w3.org/1999/xlink">
<g><path style="opacity:0.008" fill="#000000" d="M -0.5,-0.5 C 170.167,-0.5 340.833,-0.5 511.5,-0.5C 511.5,170.167 511.5,340.833 511.5,511.5C 340.833,511.5 170.167,511.5 -0.5,511.5C -0.5,340.833 -0.5,170.167 -0.5,-0.5 Z"/></g>
<g><path style="opacity:0.99" fill="#4b4b4b" d="M 230.5,26.5 C 238.452,41.7301 246.952,56.7301 256,71.5C 262.371,81.0818 270.205,89.2485 279.5,96C 290.311,102.915 301.311,103.248 312.5,97C 318.258,93.2462 323.425,88.7462 328,83.5C 334.789,74.5505 340.956,65.2172 346.5,55.5C 351.5,75.9984 358,95.9984 366,115.5C 386.114,160.64 420.28,177.64 468.5,166.5C 469.583,167.365 469.749,168.365 469,169.5C 459.151,184.198 451.151,199.865 445,216.5C 436.915,243.232 442.582,266.566 462,286.5C 476.17,300 492.003,311.166 509.5,320C 501.515,320.034 493.515,319.867 485.5,319.5C 471.883,318.377 459.217,321.21 447.5,328C 437.282,336.277 432.282,347.111 432.5,360.5C 434.119,379.475 438.785,397.642 446.5,415C 393.215,398.574 345.549,408.574 303.5,445C 284.08,463.047 267.913,483.547 255,506.5C 251.478,490.267 246.144,474.601 239,459.5C 229.277,440.888 214.111,433.388 193.5,437C 176.417,442.206 161.084,450.54 147.5,462C 137.869,469.962 128.536,478.296 119.5,487C 118.833,487.667 118.167,487.667 117.5,487C 129.348,461.093 134.515,433.926 133,405.5C 129.931,387.762 119.764,376.262 102.5,371C 96.9263,369.285 91.2596,367.952 85.5,367C 70.482,365.256 55.482,363.423 40.5,361.5C 57.4382,346.4 70.2716,328.4 79,307.5C 87.221,281.37 82.5543,257.703 65,236.5C 59.8017,230.967 54.3017,225.8 48.5,221C 59.5167,214.491 70.8501,208.491 82.5,203C 94.5719,197.264 102.739,188.097 107,175.5C 107.949,167.91 106.949,160.577 104,153.5C 96.2287,137.628 86.2287,123.295 74,110.5C 62.3171,99.3164 50.4838,88.3164 38.5,77.5C 37.479,76.9984 37.3123,76.3317 38,75.5C 65.2084,93.4718 94.375,107.638 125.5,118C 178.36,132.99 211.193,113.824 224,60.5C 227.125,49.3373 229.291,38.004 230.5,26.5 Z"/></g>
<g><path style="opacity:0.008" fill="#000000" d="M 244.5,145.5 C 253.519,145.005 261.852,147.171 269.5,152C 273.5,155 277.5,158 281.5,161C 270.262,204.117 259.095,247.284 248,290.5C 247.626,291.416 247.126,292.25 246.5,293C 228.03,300.247 213.03,295.914 201.5,280C 213.05,236.969 224.216,193.802 235,150.5C 235.308,149.692 235.808,149.025 236.5,148.5C 239.282,147.484 241.949,146.484 244.5,145.5 Z"/></g>
<g><path style="opacity:0.008" fill="#000000" d="M 175.5,152.5 C 189.939,152.793 201.939,158.293 211.5,169C 201.104,206.751 191.104,244.584 181.5,282.5C 174.77,284.52 167.937,285.854 161,286.5C 149.474,285.168 140.974,279.501 135.5,269.5C 145.524,231.401 155.858,193.401 166.5,155.5C 169.582,154.365 172.582,153.365 175.5,152.5 Z"/></g>
<g><path style="opacity:0.008" fill="#000000" d="M 307.5,161.5 C 314.342,161.039 321.009,161.872 327.5,164C 334.354,167.592 340.687,171.925 346.5,177C 335.405,220.214 324.071,263.381 312.5,306.5C 296.98,313.493 283.147,311.16 271,299.5C 269.818,297.656 268.651,295.823 267.5,294C 278.375,250.498 289.708,207.165 301.5,164C 303.723,163.434 305.723,162.6 307.5,161.5 Z"/></g>
<g><path style="opacity:0.008" fill="#000000" d="M 369.5,202.5 C 384.396,202.119 396.73,207.453 406.5,218.5C 396.85,253.766 387.517,289.099 378.5,324.5C 364.106,329.847 350.772,328.013 338.5,319C 336.38,316.591 334.38,314.091 332.5,311.5C 342.303,276.257 351.803,240.924 361,205.5C 363.87,204.307 366.704,203.307 369.5,202.5 Z"/></g>
<g><path style="opacity:0.008" fill="#000000" d="M 135.5,304.5 C 173.528,310.433 211.528,316.599 249.5,323C 256.897,338.696 256.064,353.863 247,368.5C 244.801,371.552 241.968,373.552 238.5,374.5C 201.433,368.657 164.433,362.491 127.5,356C 122.381,344.647 122.215,333.147 127,321.5C 129.86,315.78 132.693,310.114 135.5,304.5 Z"/></g>
</svg>
