<?xml version="1.0" encoding="UTF-8"?>
<!DOCTYPE svg PUBLIC "-//W3C//DTD SVG 1.1//EN" "http://www.w3.org/Graphics/SVG/1.1/DTD/svg11.dtd">
<svg xmlns="http://www.w3.org/2000/svg" version="1.1" width="335px" height="319px" style="shape-rendering:geometricPrecision; text-rendering:geometricPrecision; image-rendering:optimizeQuality; fill-rule:evenodd; clip-rule:evenodd" xmlns:xlink="http://www.w3.org/1999/xlink">
<g><path style="opacity:1" fill="#c27207" d="M 148.5,-0.5 C 160.833,-0.5 173.167,-0.5 185.5,-0.5C 243.824,6.89258 287.658,35.8926 317,86.5C 325.787,104.011 331.621,122.345 334.5,141.5C 334.5,153.167 334.5,164.833 334.5,176.5C 322.165,245.012 282.831,290.179 216.5,312C 206.15,314.769 195.817,316.935 185.5,318.5C 173.167,318.5 160.833,318.5 148.5,318.5C 91.1732,311.105 47.6732,282.771 18,233.5C 8.57553,215.437 2.40886,196.437 -0.5,176.5C -0.5,164.833 -0.5,153.167 -0.5,141.5C 11.8354,72.9875 51.1688,27.8209 117.5,6C 127.85,3.23138 138.183,1.06471 148.5,-0.5 Z M 152.5,24.5 C 211.333,21.5011 257.167,44.1677 290,92.5C 317.978,145.712 313.644,196.045 277,243.5C 235.639,287.616 185.473,302.449 126.5,288C 67.9534,269.128 34.4534,229.295 26,168.5C 25.6721,106.511 53.5054,62.3445 109.5,36C 123.499,30.419 137.833,26.5856 152.5,24.5 Z"/></g>
<g><path style="opacity:0.864" fill="#c37208" d="M 168.5,26.5 C 169.833,26.5 171.167,26.5 172.5,26.5C 182.038,53.1134 191.371,79.78 200.5,106.5C 191.507,105.973 182.674,104.639 174,102.5C 172.173,113.09 171.006,123.757 170.5,134.5C 176.559,135.446 181.726,138.113 186,142.5C 192.667,133.833 199.333,125.167 206,116.5C 207.333,115.833 208.667,115.167 210,114.5C 212.564,117.28 214.897,120.28 217,123.5C 217.725,124.059 218.558,124.392 219.5,124.5C 225.494,122.168 231.494,119.835 237.5,117.5C 240.495,119.143 241.161,121.477 239.5,124.5C 232.127,132.204 225.127,140.204 218.5,148.5C 217.232,149.428 215.899,149.595 214.5,149C 212.64,146.807 210.474,144.974 208,143.5C 203.211,145.32 198.378,147.154 193.5,149C 192.643,149.689 191.977,150.522 191.5,151.5C 192.443,156.1 192.777,160.767 192.5,165.5C 214.877,168.507 237.211,171.841 259.5,175.5C 259.657,176.873 259.49,178.207 259,179.5C 254.667,185.167 250.333,190.833 246,196.5C 245.333,197.5 245.333,198.5 246,199.5C 258.364,208.029 270.864,216.363 283.5,224.5C 284.731,225.651 284.731,226.817 283.5,228C 280.833,228.667 278.167,228.667 275.5,228C 250.513,223.558 225.513,219.224 200.5,215C 198.993,214.163 198.493,212.996 199,211.5C 204.167,205.167 209.333,198.833 214.5,192.5C 205.793,186.056 196.959,179.723 188,173.5C 183.413,178.543 177.913,182.21 171.5,184.5C 175.48,195.959 180.146,207.125 185.5,218C 184.833,219.333 184.167,220.667 183.5,222C 179.579,222.203 175.745,222.703 172,223.5C 171.053,229.982 169.72,236.648 168,243.5C 165.224,245.14 163.224,244.473 162,241.5C 158.798,231.393 155.298,221.393 151.5,211.5C 151.529,209.971 152.196,208.804 153.5,208C 158.012,207.977 161.012,205.977 162.5,202C 162.167,201.667 161.833,201.333 161.5,201C 162.167,198.667 162.833,196.333 163.5,194C 163.254,190.651 163.254,187.151 163.5,183.5C 158.456,182.728 153.956,180.728 150,177.5C 135.942,195.131 121.776,212.631 107.5,230C 106.216,230.684 105.049,230.517 104,229.5C 100.512,221.852 97.1789,214.185 94,206.5C 87.9114,209.153 82.0781,212.319 76.5,216C 67.7397,220.38 58.7397,224.213 49.5,227.5C 49.3379,225.473 49.5045,223.473 50,221.5C 66.863,201.308 83.6963,181.142 100.5,161C 102.134,160.506 103.801,160.34 105.5,160.5C 107.83,168.654 110.663,176.654 114,184.5C 123.779,179.427 133.613,174.427 143.5,169.5C 141.351,163.739 141.018,157.905 142.5,152C 130.845,150.251 119.178,148.585 107.5,147C 106.01,146.255 105.01,145.088 104.5,143.5C 106.127,140.19 107.793,136.856 109.5,133.5C 103.955,128.559 98.6219,123.392 93.5,118C 94.1241,115.709 95.6241,114.543 98,114.5C 108.827,116.721 119.66,118.888 130.5,121C 132.788,124.226 132.788,127.559 130.5,131C 130.95,132.285 131.617,133.452 132.5,134.5C 136.676,137.088 140.676,139.921 144.5,143C 147.462,143.09 149.796,141.757 151.5,139C 154.382,137.392 157.382,136.059 160.5,135C 152.346,115.374 144.679,95.5409 137.5,75.5C 137.901,73.0526 139.401,72.0526 142,72.5C 149.472,73.5306 156.972,74.1973 164.5,74.5C 164.924,58.3556 166.258,42.3556 168.5,26.5 Z"/></g>
<g><path style="opacity:0.049" fill="#c37208" d="M 221.5,153.5 C 222.675,153.281 223.675,153.614 224.5,154.5C 220.197,155.626 215.864,156.126 211.5,156C 214.909,155.004 218.242,154.171 221.5,153.5 Z"/></g>
</svg>
