<?xml version="1.0" encoding="UTF-8"?>
<!DOCTYPE svg PUBLIC "-//W3C//DTD SVG 1.1//EN" "http://www.w3.org/Graphics/SVG/1.1/DTD/svg11.dtd">
<svg xmlns="http://www.w3.org/2000/svg" version="1.1" width="512px" height="512px" style="shape-rendering:geometricPrecision; text-rendering:geometricPrecision; image-rendering:optimizeQuality; fill-rule:evenodd; clip-rule:evenodd" xmlns:xlink="http://www.w3.org/1999/xlink">
<g><path style="opacity:0.573" fill="#47474a" d="M 121.5,-0.5 C 123.833,-0.5 126.167,-0.5 128.5,-0.5C 126.5,0.166667 124.5,0.833333 122.5,1.5C 121.662,1.15829 121.328,0.491622 121.5,-0.5 Z"/></g>
<g><path style="opacity:1" fill="#616165" d="M 128.5,-0.5 C 136.167,-0.5 143.833,-0.5 151.5,-0.5C 208.377,9.0419 246.543,41.0419 266,95.5C 270.689,110.823 272.522,126.49 271.5,142.5C 270.833,144.5 270.167,146.5 269.5,148.5C 239.864,132.545 210.198,132.545 180.5,148.5C 179.702,148.957 179.369,149.624 179.5,150.5C 180.419,153.089 182.086,155.089 184.5,156.5C 185.457,159.47 184.457,161.97 181.5,164C 283.833,266.333 386.167,368.667 488.5,471C 491.5,471.333 494.5,471.667 497.5,472C 500.025,472.424 502.025,473.59 503.5,475.5C 504.167,476.833 505.167,477.833 506.5,478.5C 508.914,480.34 510.581,482.673 511.5,485.5C 511.5,489.5 511.5,493.5 511.5,497.5C 508.833,504.167 504.167,508.833 497.5,511.5C 493.5,511.5 489.5,511.5 485.5,511.5C 482.673,510.581 480.34,508.914 478.5,506.5C 477.833,505.167 476.833,504.167 475.5,503.5C 473.59,502.025 472.424,500.025 472,497.5C 471.667,494.5 471.333,491.5 471,488.5C 368.667,386.167 266.333,283.833 164,181.5C 161.97,184.457 159.47,185.457 156.5,184.5C 155.089,182.086 153.089,180.419 150.5,179.5C 145.48,185.54 141.98,192.54 140,200.5C 133.808,224.649 136.641,247.649 148.5,269.5C 146.5,270.167 144.5,270.833 142.5,271.5C 115.553,273.115 90.5534,267.115 67.5,253.5C 67.0269,252.094 66.0269,251.427 64.5,251.5C 59.1205,249.145 54.4538,245.812 50.5,241.5C 49.7377,239.738 48.4044,238.738 46.5,238.5C 44.4514,237.118 42.7847,235.452 41.5,233.5C 40.7377,231.738 39.4044,230.738 37.5,230.5C 16.5131,208.192 3.84642,181.859 -0.5,151.5C -0.5,143.833 -0.5,136.167 -0.5,128.5C 0.166667,126.5 0.833333,124.5 1.5,122.5C 31.5,138.5 61.5,138.5 91.5,122.5C 92.4467,119.38 91.1133,117.38 87.5,116.5C 86.4749,115.626 85.8082,114.459 85.5,113C 86.2229,110.447 87.5562,108.28 89.5,106.5C 83.8207,95.8064 78.154,85.1398 72.5,74.5C 72.5,73.1667 73.1667,72.5 74.5,72.5C 85.1398,78.154 95.8064,83.8207 106.5,89.5C 108.28,87.5562 110.447,86.2229 113,85.5C 114.459,85.8082 115.626,86.4749 116.5,87.5C 117.38,91.1133 119.38,92.4467 122.5,91.5C 138.494,61.4409 138.494,31.4409 122.5,1.5C 124.5,0.833333 126.5,0.166667 128.5,-0.5 Z"/></g>
<g><path style="opacity:0.365" fill="#3d3d3f" d="M 74.5,72.5 C 73.1667,72.5 72.5,73.1667 72.5,74.5C 70.9122,73.3647 70.5788,72.0314 71.5,70.5C 72.7387,70.9424 73.7387,71.6091 74.5,72.5 Z"/></g>
<g><path style="opacity:0.694" fill="#3f3f42" d="M 116.5,87.5 C 118.246,89.2516 120.246,90.5849 122.5,91.5C 119.38,92.4467 117.38,91.1133 116.5,87.5 Z"/></g>
<g><path style="opacity:0.694" fill="#404042" d="M 87.5,116.5 C 91.1133,117.38 92.4467,119.38 91.5,122.5C 90.5849,120.246 89.2516,118.246 87.5,116.5 Z"/></g>
<g><path style="opacity:0.737" fill="#47474a" d="M -0.5,121.5 C 0.491622,121.328 1.15829,121.662 1.5,122.5C 0.833333,124.5 0.166667,126.5 -0.5,128.5C -0.5,126.167 -0.5,123.833 -0.5,121.5 Z"/></g>
<g><path style="opacity:0.404" fill="#424245" d="M 271.5,142.5 C 271.808,144.924 271.474,147.257 270.5,149.5C 269.893,149.376 269.56,149.043 269.5,148.5C 270.167,146.5 270.833,144.5 271.5,142.5 Z"/></g>
<g><path style="opacity:0.694" fill="#434345" d="M 179.5,150.5 C 181.914,151.911 183.581,153.911 184.5,156.5C 182.086,155.089 180.419,153.089 179.5,150.5 Z"/></g>
<g><path style="opacity:0.702" fill="#434345" d="M 150.5,179.5 C 153.089,180.419 155.089,182.086 156.5,184.5C 153.911,183.581 151.911,181.914 150.5,179.5 Z"/></g>
<g><path style="opacity:0.725" fill="#424245" d="M 37.5,230.5 C 39.4044,230.738 40.7377,231.738 41.5,233.5C 39.5956,233.262 38.2623,232.262 37.5,230.5 Z"/></g>
<g><path style="opacity:0.91" fill="#47474a" d="M 46.5,238.5 C 48.4044,238.738 49.7377,239.738 50.5,241.5C 48.5956,241.262 47.2623,240.262 46.5,238.5 Z"/></g>
<g><path style="opacity:0.169" fill="#464648" d="M 64.5,251.5 C 66.0269,251.427 67.0269,252.094 67.5,253.5C 65.9731,253.573 64.9731,252.906 64.5,251.5 Z"/></g>
<g><path style="opacity:0.404" fill="#424245" d="M 148.5,269.5 C 149.043,269.56 149.376,269.893 149.5,270.5C 147.257,271.474 144.924,271.808 142.5,271.5C 144.5,270.833 146.5,270.167 148.5,269.5 Z"/></g>
<g><path style="opacity:0.004" fill="#424244" d="M 503.5,475.5 C 505.5,475.5 506.5,476.5 506.5,478.5C 505.167,477.833 504.167,476.833 503.5,475.5 Z"/></g>
<g><path style="opacity:0.004" fill="#424244" d="M 475.5,503.5 C 476.833,504.167 477.833,505.167 478.5,506.5C 476.5,506.5 475.5,505.5 475.5,503.5 Z"/></g>
</svg>
