<?xml version="1.0" encoding="UTF-8"?>
<!DOCTYPE svg PUBLIC "-//W3C//DTD SVG 1.1//EN" "http://www.w3.org/Graphics/SVG/1.1/DTD/svg11.dtd">
<svg xmlns="http://www.w3.org/2000/svg" version="1.1" width="200px" height="200px" style="shape-rendering:geometricPrecision; text-rendering:geometricPrecision; image-rendering:optimizeQuality; fill-rule:evenodd; clip-rule:evenodd" xmlns:xlink="http://www.w3.org/1999/xlink">
<g><path style="opacity:0.996" fill="#4f4f52" d="M 14.5,9.5 C 13.5,10.1667 12.5,10.8333 11.5,11.5C 10.6236,11.6309 9.95689,11.2975 9.5,10.5C 11.0453,9.54811 12.712,9.21478 14.5,9.5 Z"/></g>
<g><path style="opacity:1" fill="#5f5f63" d="M 14.5,9.5 C 32.7268,9.47298 49.7268,13.973 65.5,23C 68.3553,25.0308 71.022,27.1975 73.5,29.5C 73.9731,30.9063 74.9731,31.573 76.5,31.5C 80.1203,33.4528 83.1203,36.1195 85.5,39.5C 86.2623,41.2624 87.5956,42.2624 89.5,42.5C 92.5,44.8333 95.1667,47.5 97.5,50.5C 98.0798,52.7488 99.4131,54.4154 101.5,55.5C 103.167,56.5 104.5,57.8333 105.5,59.5C 105.427,61.0269 106.094,62.0269 107.5,62.5C 111.592,66.2577 114.926,70.591 117.5,75.5C 117.427,77.0269 118.094,78.0269 119.5,78.5C 119.427,80.0269 120.094,81.0269 121.5,81.5C 121.427,83.0269 122.094,84.0269 123.5,84.5C 123.427,86.0269 124.094,87.0269 125.5,87.5C 126.338,87.8417 126.672,88.5084 126.5,89.5C 126.427,91.0269 127.094,92.0269 128.5,92.5C 130.924,95.0078 132.59,98.0078 133.5,101.5C 133.427,103.027 134.094,104.027 135.5,104.5C 140.948,113.731 145.615,123.398 149.5,133.5C 149.5,134.833 149.5,136.167 149.5,137.5C 148.508,137.328 147.842,137.662 147.5,138.5C 146.833,138.5 146.5,138.833 146.5,139.5C 145.508,139.328 144.842,139.662 144.5,140.5C 143.508,140.328 142.842,140.662 142.5,141.5C 142.167,141.5 141.833,141.5 141.5,141.5C 140.508,141.328 139.842,141.662 139.5,142.5C 139.5,142.833 139.5,143.167 139.5,143.5C 138.833,143.5 138.5,143.833 138.5,144.5C 128.872,133.526 119.539,122.193 110.5,110.5C 110.573,108.973 109.906,107.973 108.5,107.5C 105.833,105.5 103.5,103.167 101.5,100.5C 100.92,98.2512 99.5869,96.5846 97.5,95.5C 94.5,93.1667 91.8333,90.5 89.5,87.5C 87.7607,84.7573 85.4274,82.7573 82.5,81.5C 81.1667,80.8333 80.1667,79.8333 79.5,78.5C 78.4154,76.4131 76.7488,75.0798 74.5,74.5C 72.246,73.8763 70.5794,72.543 69.5,70.5C 69.0269,69.0937 68.0269,68.427 66.5,68.5C 66.0269,67.0937 65.0269,66.427 63.5,66.5C 63.0269,65.0937 62.0269,64.427 60.5,64.5C 55.3106,62.4032 50.3106,60.0698 45.5,57.5C 44.5,56.5 43.5,55.5 42.5,54.5C 39.7003,40.5608 33.0336,28.8942 22.5,19.5C 21.4154,17.4131 19.7488,16.0798 17.5,15.5C 16.7377,13.7376 15.4044,12.7376 13.5,12.5C 12.5084,12.6716 11.8417,12.3382 11.5,11.5C 12.5,10.8333 13.5,10.1667 14.5,9.5 Z M 47.5,20.5 C 53.0421,21.9374 58.3754,23.9374 63.5,26.5C 63.9731,27.9063 64.9731,28.573 66.5,28.5C 66.9731,29.9063 67.9731,30.573 69.5,30.5C 69.5,31.1667 69.8333,31.5 70.5,31.5C 70.9731,32.9063 71.9731,33.573 73.5,33.5C 73.5,34.1667 73.8333,34.5 74.5,34.5C 75.2623,36.2624 76.5956,37.2624 78.5,37.5C 78.5,38.1667 78.8333,38.5 79.5,38.5C 80.5846,40.5869 82.2512,41.9202 84.5,42.5C 89.8333,48.5 95.5,54.1667 101.5,59.5C 101.5,60.1667 101.5,60.8333 101.5,61.5C 98.7673,58.7606 95.7673,56.4273 92.5,54.5C 90.5,51.8333 88.1667,49.5 85.5,47.5C 85.0269,46.0937 84.0269,45.427 82.5,45.5C 81.8333,44.1667 80.8333,43.1667 79.5,42.5C 79.0269,41.0937 78.0269,40.427 76.5,40.5C 67.7035,32.5993 58.0368,25.9326 47.5,20.5 Z M 102.5,62.5 C 102.833,62.5 103.167,62.5 103.5,62.5C 105.252,64.2459 106.585,66.2459 107.5,68.5C 105.833,67.1667 104.167,65.8333 102.5,64.5C 102.5,63.8333 102.5,63.1667 102.5,62.5 Z"/></g>
<g><path style="opacity:0.953" fill="#48484b" d="M 13.5,12.5 C 15.4044,12.7376 16.7377,13.7376 17.5,15.5C 15.5956,15.2624 14.2623,14.2624 13.5,12.5 Z"/></g>
<g><path style="opacity:0.863" fill="#444447" d="M 40.5,18.5 C 36.5185,17.3372 32.5185,16.1705 28.5,15C 31.5576,14.5423 34.5576,14.8756 37.5,16C 39.1193,16.2355 40.1193,17.0689 40.5,18.5 Z"/></g>
<g><path style="opacity:0.996" fill="#464649" d="M 17.5,15.5 C 19.7488,16.0798 21.4154,17.4131 22.5,19.5C 20.2512,18.9202 18.5846,17.5869 17.5,15.5 Z"/></g>
<g><path style="opacity:0.525" fill="#3c3c3f" d="M 41.5,17.5 C 42.791,17.2627 43.791,17.596 44.5,18.5C 43.8333,18.5 43.5,18.8333 43.5,19.5C 42.209,19.7373 41.209,19.404 40.5,18.5C 41.1667,18.5 41.5,18.1667 41.5,17.5 Z"/></g>
<g><path style="opacity:0.094" fill="#39393b" d="M 44.5,18.5 C 45.791,18.2627 46.791,18.596 47.5,19.5C 46.5084,19.3284 45.8417,19.6618 45.5,20.5C 44.5084,20.6716 43.8417,20.3382 43.5,19.5C 44.1667,19.5 44.5,19.1667 44.5,18.5 Z"/></g>
<g><path style="opacity:0.831" fill="#444447" d="M 63.5,26.5 C 65.0269,26.427 66.0269,27.0937 66.5,28.5C 64.9731,28.573 63.9731,27.9063 63.5,26.5 Z"/></g>
<g><path style="opacity:0.91" fill="#47474a" d="M 66.5,28.5 C 68.0269,28.427 69.0269,29.0937 69.5,30.5C 67.9731,30.573 66.9731,29.9063 66.5,28.5 Z"/></g>
<g><path style="opacity:0.008" fill="#3a3a3c" d="M 73.5,29.5 C 75.0269,29.427 76.0269,30.0937 76.5,31.5C 74.9731,31.573 73.9731,30.9063 73.5,29.5 Z"/></g>
<g><path style="opacity:0.882" fill="#454548" d="M 70.5,31.5 C 72.0269,31.427 73.0269,32.0937 73.5,33.5C 71.9731,33.573 70.9731,32.9063 70.5,31.5 Z"/></g>
<g><path style="opacity:0.988" fill="#464649" d="M 74.5,34.5 C 76.4044,34.7376 77.7377,35.7376 78.5,37.5C 76.5956,37.2624 75.2623,36.2624 74.5,34.5 Z"/></g>
<g><path style="opacity:0.992" fill="#464649" d="M 79.5,38.5 C 81.7488,39.0798 83.4154,40.4131 84.5,42.5C 82.2512,41.9202 80.5846,40.5869 79.5,38.5 Z"/></g>
<g><path style="opacity:0.024" fill="#3c3c3e" d="M 85.5,39.5 C 87.4044,39.7376 88.7377,40.7376 89.5,42.5C 87.5956,42.2624 86.2623,41.2624 85.5,39.5 Z"/></g>
<g><path style="opacity:0.008" fill="#3a3a3c" d="M 76.5,40.5 C 78.0269,40.427 79.0269,41.0937 79.5,42.5C 77.9731,42.573 76.9731,41.9063 76.5,40.5 Z"/></g>
<g><path style="opacity:0.016" fill="#3a3a3c" d="M 82.5,45.5 C 84.0269,45.427 85.0269,46.0937 85.5,47.5C 83.9731,47.573 82.9731,46.9063 82.5,45.5 Z"/></g>
<g><path style="opacity:0.965" fill="#414144" d="M 97.5,50.5 C 99.5869,51.5846 100.92,53.2512 101.5,55.5C 99.4131,54.4154 98.0798,52.7488 97.5,50.5 Z"/></g>
<g><path style="opacity:0.008" fill="#3d3d3f" d="M 92.5,54.5 C 95.7673,56.4273 98.7673,58.7606 101.5,61.5C 101.5,62.1667 101.833,62.5 102.5,62.5C 102.5,63.1667 102.5,63.8333 102.5,64.5C 98.8333,61.5 95.5,58.1667 92.5,54.5 Z"/></g>
<g><path style="opacity:0.651" fill="#3f3f42" d="M 42.5,54.5 C 43.5,55.5 44.5,56.5 45.5,57.5C 44.5,57.5 43.5,57.5 42.5,57.5C 42.5,56.5 42.5,55.5 42.5,54.5 Z"/></g>
<g><path style="opacity:0.016" fill="#3a3a3d" d="M 101.5,59.5 C 102.906,59.9731 103.573,60.9731 103.5,62.5C 103.167,62.5 102.833,62.5 102.5,62.5C 101.833,62.5 101.5,62.1667 101.5,61.5C 101.5,60.8333 101.5,60.1667 101.5,59.5 Z"/></g>
<g><path style="opacity:0.941" fill="#424244" d="M 105.5,59.5 C 106.906,59.9731 107.573,60.9731 107.5,62.5C 106.094,62.0269 105.427,61.0269 105.5,59.5 Z"/></g>
<g><path style="opacity:0.769" fill="#424244" d="M 60.5,64.5 C 62.0269,64.427 63.0269,65.0937 63.5,66.5C 61.9731,66.573 60.9731,65.9063 60.5,64.5 Z"/></g>
<g><path style="opacity:0.769" fill="#414143" d="M 63.5,66.5 C 65.0269,66.427 66.0269,67.0937 66.5,68.5C 64.9731,68.573 63.9731,67.9063 63.5,66.5 Z"/></g>
<g><path style="opacity:0.867" fill="#454548" d="M 66.5,68.5 C 68.0269,68.427 69.0269,69.0937 69.5,70.5C 67.9731,70.573 66.9731,69.9063 66.5,68.5 Z"/></g>
<g><path style="opacity:0.083" fill="#3b3b3d" d="M 108.5,70.5 C 108.833,70.5 109.167,70.5 109.5,70.5C 109.833,71.8333 110.167,71.8333 110.5,70.5C 111.401,71.2905 112.068,72.2905 112.5,73.5C 111.833,73.5 111.5,73.8333 111.5,74.5C 110.122,73.4549 109.122,72.1216 108.5,70.5 Z"/></g>
<g><path style="opacity:0.992" fill="#444447" d="M 74.5,74.5 C 76.7488,75.0798 78.4154,76.4131 79.5,78.5C 77.2512,77.9202 75.5846,76.5869 74.5,74.5 Z"/></g>
<g><path style="opacity:0.196" fill="#39393b" d="M 113.5,74.5 C 116.241,76.9754 118.241,79.9754 119.5,83.5C 116.705,81.2486 114.372,78.5819 112.5,75.5C 113.167,75.5 113.5,75.1667 113.5,74.5 Z"/></g>
<g><path style="opacity:0.867" fill="#454548" d="M 117.5,75.5 C 118.906,75.9731 119.573,76.9731 119.5,78.5C 118.094,78.0269 117.427,77.0269 117.5,75.5 Z"/></g>
<g><path style="opacity:0.875" fill="#464649" d="M 119.5,78.5 C 120.906,78.9731 121.573,79.9731 121.5,81.5C 120.094,81.0269 119.427,80.0269 119.5,78.5 Z"/></g>
<g><path style="opacity:0.973" fill="#404043" d="M 82.5,81.5 C 85.4274,82.7573 87.7607,84.7573 89.5,87.5C 86.5726,86.2427 84.2393,84.2427 82.5,81.5 Z"/></g>
<g><path style="opacity:0.839" fill="#444447" d="M 121.5,81.5 C 122.906,81.9731 123.573,82.9731 123.5,84.5C 122.094,84.0269 121.427,83.0269 121.5,81.5 Z"/></g>
<g><path style="opacity:0.784" fill="#3f3f42" d="M 119.5,83.5 C 120.906,83.9731 121.573,84.9731 121.5,86.5C 120.094,86.0269 119.427,85.0269 119.5,83.5 Z"/></g>
<g><path style="opacity:0.78" fill="#424245" d="M 123.5,84.5 C 124.906,84.9731 125.573,85.9731 125.5,87.5C 124.094,87.0269 123.427,86.0269 123.5,84.5 Z"/></g>
<g><path style="opacity:0.843" fill="#48484b" d="M 121.5,86.5 C 123.085,87.0024 123.585,88.0024 123,89.5C 121.961,88.7562 121.461,87.7562 121.5,86.5 Z"/></g>
<g><path style="opacity:0.808" fill="#444446" d="M 126.5,89.5 C 127.906,89.9731 128.573,90.9731 128.5,92.5C 127.094,92.0269 126.427,91.0269 126.5,89.5 Z"/></g>
<g><path style="opacity:0.008" fill="#3b3b3e" d="M 97.5,95.5 C 99.5869,96.5846 100.92,98.2512 101.5,100.5C 99.4131,99.4154 98.0798,97.7488 97.5,95.5 Z"/></g>
<g><path style="opacity:0.592" fill="#3e3e41" d="M 133.5,101.5 C 134.906,101.973 135.573,102.973 135.5,104.5C 134.094,104.027 133.427,103.027 133.5,101.5 Z"/></g>
<g><path style="opacity:0.031" fill="#3b3b3e" d="M 108.5,107.5 C 109.906,107.973 110.573,108.973 110.5,110.5C 109.094,110.027 108.427,109.027 108.5,107.5 Z"/></g>
<g><path style="opacity:0.957" fill="#444447" d="M 149.5,133.5 C 150.345,134.671 151.011,136.005 151.5,137.5C 150.833,137.5 150.167,137.5 149.5,137.5C 149.5,136.167 149.5,134.833 149.5,133.5 Z"/></g>
<g><path style="opacity:0.139" fill="#373739" d="M 147.5,138.5 C 147.842,137.662 148.508,137.328 149.5,137.5C 149.5,138.167 149.833,138.5 150.5,138.5C 150.158,139.338 149.492,139.672 148.5,139.5C 148.5,138.833 148.167,138.5 147.5,138.5 Z"/></g>
<g><path style="opacity:1" fill="#5c5c60" d="M 167.5,186.5 C 166.833,185.167 165.833,184.167 164.5,183.5C 158.754,174.571 152.754,165.737 146.5,157C 144.61,155.888 142.61,155.054 140.5,154.5C 137.15,155.843 133.817,157.177 130.5,158.5C 129.508,158.672 128.842,158.338 128.5,157.5C 129.906,157.027 130.573,156.027 130.5,154.5C 130.5,153.833 130.833,153.5 131.5,153.5C 133.262,152.738 134.262,151.404 134.5,149.5C 135.167,148.167 136.167,147.167 137.5,146.5C 139.749,145.92 141.415,144.587 142.5,142.5C 142.5,142.167 142.5,141.833 142.5,141.5C 143.492,141.672 144.158,141.338 144.5,140.5C 145.492,140.672 146.158,140.338 146.5,139.5C 147.167,139.5 147.833,139.5 148.5,139.5C 149.492,139.672 150.158,139.338 150.5,138.5C 151.167,138.5 151.5,138.167 151.5,137.5C 171.248,136.043 183.748,145.043 189,164.5C 190.141,171.084 189.474,177.417 187,183.5C 181.146,190.089 174.646,191.089 167.5,186.5 Z M 166.5,166.5 C 166.573,164.973 165.906,163.973 164.5,163.5C 164.573,161.973 163.906,160.973 162.5,160.5C 162.672,159.508 162.338,158.842 161.5,158.5C 161.573,156.973 160.906,155.973 159.5,155.5C 158.603,152.307 157.603,149.141 156.5,146C 156.97,142.996 158.803,141.496 162,141.5C 173.617,145.117 181.284,152.783 185,164.5C 185.929,168.244 185.429,171.744 183.5,175C 181.5,175.667 179.5,175.667 177.5,175C 173.386,172.716 169.72,169.883 166.5,166.5 Z"/></g>
<g><path style="opacity:0.988" fill="#464649" d="M 139.5,142.5 C 139.842,141.662 140.508,141.328 141.5,141.5C 141.5,142.167 141.833,142.5 142.5,142.5C 141.415,144.587 139.749,145.92 137.5,146.5C 137.833,145.833 138.167,145.167 138.5,144.5C 139.167,144.5 139.5,144.167 139.5,143.5C 140.833,143.167 140.833,142.833 139.5,142.5 Z"/></g>
<g><path style="opacity:0.98" fill="#464648" d="M 134.5,149.5 C 134.262,151.404 133.262,152.738 131.5,153.5C 131.738,151.596 132.738,150.262 134.5,149.5 Z"/></g>
<g><path style="opacity:0.867" fill="#454548" d="M 130.5,154.5 C 130.573,156.027 129.906,157.027 128.5,157.5C 128.427,155.973 129.094,154.973 130.5,154.5 Z"/></g>
<g><path style="opacity:0.596" fill="#3e3e41" d="M 159.5,155.5 C 160.906,155.973 161.573,156.973 161.5,158.5C 160.094,158.027 159.427,157.027 159.5,155.5 Z"/></g>
<g><path style="opacity:0.545" fill="#3c3c3e" d="M 128.5,157.5 C 128.842,158.338 129.508,158.672 130.5,158.5C 129.614,159.776 128.614,159.776 127.5,158.5C 127.624,157.893 127.957,157.56 128.5,157.5 Z"/></g>
<g><path style="opacity:0.702" fill="#3f3f42" d="M 162.5,160.5 C 163.906,160.973 164.573,161.973 164.5,163.5C 163.094,163.027 162.427,162.027 162.5,160.5 Z"/></g>
<g><path style="opacity:0.863" fill="#434346" d="M 164.5,163.5 C 165.906,163.973 166.573,164.973 166.5,166.5C 165.094,166.027 164.427,165.027 164.5,163.5 Z"/></g>
<g><path style="opacity:0.016" fill="#3c3c3e" d="M 164.5,183.5 C 165.833,184.167 166.833,185.167 167.5,186.5C 165.5,186.5 164.5,185.5 164.5,183.5 Z"/></g>
</svg>
