<?xml version="1.0" encoding="UTF-8"?>
<!DOCTYPE svg PUBLIC "-//W3C//DTD SVG 1.1//EN" "http://www.w3.org/Graphics/SVG/1.1/DTD/svg11.dtd">
<svg xmlns="http://www.w3.org/2000/svg" version="1.1" width="512px" height="512px" style="shape-rendering:geometricPrecision; text-rendering:geometricPrecision; image-rendering:optimizeQuality; fill-rule:evenodd; clip-rule:evenodd" xmlns:xlink="http://www.w3.org/1999/xlink">
<g><path style="opacity:1" fill="#626266" d="M 180.5,459.5 C 179.089,457.086 177.089,455.419 174.5,454.5C 129.995,413.221 97.1619,363.888 76,306.5C 54.467,244.306 42.3004,180.306 39.5,114.5C 40.0513,103.469 45.3846,95.9692 55.5,92C 74.1811,90.5798 91.8478,85.5798 108.5,77C 137.161,61.3405 165.161,44.6738 192.5,27C 205.167,20.6667 217.833,14.3333 230.5,8C 238.505,4.41523 246.839,1.91523 255.5,0.5C 260.607,1.19349 265.607,2.36016 270.5,4C 283.62,9.72634 296.62,15.7263 309.5,22C 333.834,36.1647 357.834,50.8313 381.5,66C 396.209,74.3483 411.542,81.3483 427.5,87C 435.329,89.3658 443.329,90.6991 451.5,91C 463.867,93.8634 470.534,101.697 471.5,114.5C 468.7,180.306 456.533,244.306 435,306.5C 402.105,395.377 344.272,462.544 261.5,508C 255.606,509.037 249.939,508.371 244.5,506C 221.506,492.681 200.172,477.181 180.5,459.5 Z"/></g>
<g><path style="opacity:0.957" fill="#505052" d="M 174.5,454.5 C 177.089,455.419 179.089,457.086 180.5,459.5C 177.911,458.581 175.911,456.914 174.5,454.5 Z"/></g>
</svg>
