<?xml version="1.0" encoding="UTF-8"?>
<!DOCTYPE svg PUBLIC "-//W3C//DTD SVG 1.1//EN" "http://www.w3.org/Graphics/SVG/1.1/DTD/svg11.dtd">
<svg xmlns="http://www.w3.org/2000/svg" version="1.1" width="1600px" height="1600px" style="shape-rendering:geometricPrecision; text-rendering:geometricPrecision; image-rendering:optimizeQuality; fill-rule:evenodd; clip-rule:evenodd" xmlns:xlink="http://www.w3.org/1999/xlink">
<g><path style="opacity:0.827" fill="#404042" d="M 1572.5,0.5 C 1572.5,0.166667 1572.5,-0.166667 1572.5,-0.5C 1573.5,-0.5 1574.5,-0.5 1575.5,-0.5C 1575.67,0.491622 1575.34,1.15829 1574.5,1.5C 1574.16,0.661754 1573.49,0.32842 1572.5,0.5 Z"/></g>
<g><path style="opacity:1" fill="#626266" d="M 1572.5,0.5 C 1573.49,0.32842 1574.16,0.661754 1574.5,1.5C 1534.84,122.316 1494.67,242.983 1454,363.5C 1179.33,614.167 904.667,864.833 630,1115.5C 608,1080.83 586,1046.17 564,1011.5C 529.585,989.375 495.085,967.375 460.5,945.5C 459.479,944.998 459.312,944.332 460,943.5C 710.465,668.7 961.298,394.2 1212.5,120C 1332.42,79.8585 1452.42,40.0251 1572.5,0.5 Z"/></g>
<g><path style="opacity:1" fill="#626266" d="M -0.5,1473.5 C -0.5,1464.5 -0.5,1455.5 -0.5,1446.5C 7.87115,1396.62 36.2045,1363.78 84.5,1348C 97.73,1344.17 111.063,1343.34 124.5,1345.5C 125.947,1346.89 126.947,1346.55 127.5,1344.5C 192.014,1262.48 256.348,1180.32 320.5,1098C 266.207,1042.71 211.54,987.706 156.5,933C 183.014,906.32 209.68,879.82 236.5,853.5C 331.028,920.528 425.695,987.361 520.5,1054C 587.254,1148.84 654.254,1243.51 721.5,1338C 694.986,1364.68 668.32,1391.18 641.5,1417.5C 586.514,1363.01 531.68,1308.35 477,1253.5C 394.924,1318.12 312.757,1382.62 230.5,1447C 233.288,1500.77 210.955,1540.1 163.5,1565C 117.633,1583.54 75.6327,1577.21 37.5,1546C 16.5043,1526.17 3.83767,1502.01 -0.5,1473.5 Z"/></g>
<g><path style="opacity:0.992" fill="#4b4b4e" d="M 127.5,1344.5 C 126.947,1346.55 125.947,1346.89 124.5,1345.5C 125.609,1345.44 126.609,1345.11 127.5,1344.5 Z"/></g>
</svg>
