<?xml version="1.0" encoding="UTF-8"?>
<!DOCTYPE svg PUBLIC "-//W3C//DTD SVG 1.1//EN" "http://www.w3.org/Graphics/SVG/1.1/DTD/svg11.dtd">
<svg xmlns="http://www.w3.org/2000/svg" version="1.1" width="94px" height="93px" style="shape-rendering:geometricPrecision; text-rendering:geometricPrecision; image-rendering:optimizeQuality; fill-rule:evenodd; clip-rule:evenodd" xmlns:xlink="http://www.w3.org/1999/xlink">
<g><path style="opacity:1" fill="#dcdcdd" d="M 93.5,41.5 C 93.5,43.1667 93.5,44.8333 93.5,46.5C 90.2211,56.4268 86.5545,66.2601 82.5,76C 68.2666,84.787 52.7666,89.9537 36,91.5C 33.4334,90.1324 30.9334,88.6324 28.5,87C 21,78.8333 13.5,70.6667 6,62.5C 3.33142,57.6761 1.49809,52.5095 0.5,47C 4.33333,37.5 8.16667,28 12,18.5C 15.3137,14.3519 18.8137,10.3519 22.5,6.5C 35.0664,4.01243 47.733,2.51243 60.5,2C 68.7563,8.04516 76.923,14.2118 85,20.5C 87.762,27.6399 90.5954,34.6399 93.5,41.5 Z"/></g>
<g><path style="opacity:1" fill="#282a2f" d="M 54.5,5.5 C 57.2257,5.26386 59.559,6.09719 61.5,8C 67.6691,12.6739 73.6691,17.5072 79.5,22.5C 71.2934,29.5225 62.7934,36.1892 54,42.5C 43.3166,38.4951 32.6499,34.4951 22,30.5C 21.3333,28.1667 21.3333,25.8333 22,23.5C 23.0091,18.9302 24.1758,14.4302 25.5,10C 35.3547,8.75587 45.0214,7.25587 54.5,5.5 Z"/></g>
<g><path style="opacity:1" fill="#ebecec" d="M 49.5,12.5 C 53.9536,11.6171 57.4536,12.9504 60,16.5C 60.6838,17.7839 60.5171,18.9505 59.5,20C 57.1873,20.662 54.854,21.162 52.5,21.5C 52.5,22.5 52.5,23.5 52.5,24.5C 55.5078,24.2991 58.5078,23.9657 61.5,23.5C 63.6193,23.5976 65.286,24.4309 66.5,26C 60.6544,28.0025 54.6544,29.1692 48.5,29.5C 47.6584,26.5019 47.1584,23.5019 47,20.5C 49.5733,18.6936 52.4066,17.3603 55.5,16.5C 51.8449,15.4138 48.1782,15.4138 44.5,16.5C 44.5,15.5 44.5,14.5 44.5,13.5C 46.4147,13.7845 48.0813,13.4511 49.5,12.5 Z"/></g>
<g><path style="opacity:1" fill="#2a2d32" d="M 19.5,15.5 C 20.4972,15.4701 21.1639,15.9701 21.5,17C 19.3213,30.1952 14.488,42.3619 7,53.5C 5.8756,50.5576 5.54227,47.5576 6,44.5C 9.85082,34.4072 14.3508,24.7405 19.5,15.5 Z"/></g>
<g><path style="opacity:1" fill="#edeeee" d="M 35.5,15.5 C 38.3646,15.0548 40.8646,15.7215 43,17.5C 44.6842,21.7155 45.8509,26.0488 46.5,30.5C 44.5,30.8333 42.5,31.1667 40.5,31.5C 39.3538,27.2464 38.6871,22.913 38.5,18.5C 37.5,18.5 36.5,18.5 35.5,18.5C 35.5,17.5 35.5,16.5 35.5,15.5 Z"/></g>
<g><path style="opacity:1" fill="#24272c" d="M 80.5,24.5 C 82.1361,25.7489 83.3028,27.4156 84,29.5C 85.6945,34.3884 87.5278,39.2218 89.5,44C 85.9344,53.3634 82.7678,62.8634 80,72.5C 73.5898,73.4777 67.0898,73.811 60.5,73.5C 58.9064,63.5171 57.7397,53.5171 57,43.5C 64.8117,37.0277 72.645,30.6944 80.5,24.5 Z"/></g>
<g><path style="opacity:1" fill="#24272c" d="M 19.5,32.5 C 31.0156,35.9216 42.3489,39.9216 53.5,44.5C 55.0872,54.207 56.7538,63.8737 58.5,73.5C 49.5516,76.6978 40.3849,79.3645 31,81.5C 28.849,81.3569 27.1824,80.3569 26,78.5C 20.1882,71.0537 14.0215,63.887 7.5,57C 11.9113,49.0111 15.9113,40.8444 19.5,32.5 Z"/></g>
<g><path style="opacity:1" fill="#2e3135" d="M 59.5,75.5 C 64.1785,75.3342 68.8452,75.5008 73.5,76C 69.2864,78.2737 64.9531,80.2737 60.5,82C 52.7955,83.3076 45.1289,84.8076 37.5,86.5C 35.5595,86.1964 33.8928,85.3631 32.5,84C 41.7505,81.5953 50.7505,78.762 59.5,75.5 Z"/></g>
</svg>
