<?xml version="1.0" encoding="UTF-8"?>
<!DOCTYPE svg PUBLIC "-//W3C//DTD SVG 1.1//EN" "http://www.w3.org/Graphics/SVG/1.1/DTD/svg11.dtd">
<svg xmlns="http://www.w3.org/2000/svg" version="1.1" width="99px" height="96px" style="shape-rendering:geometricPrecision; text-rendering:geometricPrecision; image-rendering:optimizeQuality; fill-rule:evenodd; clip-rule:evenodd" xmlns:xlink="http://www.w3.org/1999/xlink">
<g><path style="opacity:1" fill="#dededf" d="M 56.5,1.5 C 57.8734,1.34332 59.2068,1.50999 60.5,2C 72.3447,13.012 84.0114,24.1787 95.5,35.5C 91.5,50.8333 87.5,66.1667 83.5,81.5C 70.1445,85.2727 56.6445,88.606 43,91.5C 29.0882,82.0927 15.5882,72.0927 2.5,61.5C 8.16667,46.8333 13.8333,32.1667 19.5,17.5C 31.7761,11.8576 44.1094,6.52426 56.5,1.5 Z"/></g>
<g><path style="opacity:1" fill="#25282c" d="M 54.5,7.5 C 55.2389,7.36899 55.9056,7.53566 56.5,8C 51.4748,21.4074 46.6415,34.9074 42,48.5C 31.4912,51.7248 20.9912,55.0581 10.5,58.5C 9.41728,57.635 9.25061,56.635 10,55.5C 14.3333,44.1667 18.6667,32.8333 23,21.5C 33.4853,16.6713 43.9853,12.0047 54.5,7.5 Z"/></g>
<g><path style="opacity:1" fill="#26292e" d="M 58.5,7.5 C 68.7965,16.6272 78.9632,25.9605 89,35.5C 86.6506,48.9047 83.6506,62.238 80,75.5C 79.586,75.9574 79.086,76.2907 78.5,76.5C 66.8509,67.5144 55.5175,58.1811 44.5,48.5C 49.1759,34.8051 53.8425,21.1384 58.5,7.5 Z"/></g>
<g><path style="opacity:1" fill="#eeeeef" d="M 65.5,29.5 C 70.9553,31.5672 75.2886,35.0672 78.5,40C 78.1667,40.8333 77.8333,41.6667 77.5,42.5C 74.9783,40.144 72.3116,37.9773 69.5,36C 68.5165,35.4092 67.8499,35.7425 67.5,37C 70.007,40.5043 72.8403,43.671 76,46.5C 76.6601,49.5335 76.1601,52.3669 74.5,55C 66.5087,54.355 61.5087,50.0217 59.5,42C 60.6667,38.5 61.8333,35 63,31.5C 63.9947,30.9341 64.828,30.2674 65.5,29.5 Z"/></g>
<g><path style="opacity:1" fill="#2e3136" d="M 65.5,41.5 C 69.5676,42.6847 71.2342,45.1847 70.5,49C 68.6332,49.7112 67.1332,49.2112 66,47.5C 65.5045,45.5273 65.3379,43.5273 65.5,41.5 Z"/></g>
<g><path style="opacity:1" fill="#25282d" d="M 39.5,51.5 C 41.1992,51.3398 42.8659,51.5065 44.5,52C 55.1667,60.6667 65.8333,69.3333 76.5,78C 66.4839,80.8898 56.3172,83.3898 46,85.5C 44.0326,85.4581 42.1992,84.9581 40.5,84C 30.2152,76.7165 20.2152,69.0498 10.5,61C 20.254,57.6924 29.9206,54.5258 39.5,51.5 Z"/></g>
</svg>
