<?xml version="1.0" encoding="UTF-8"?>
<!DOCTYPE svg PUBLIC "-//W3C//DTD SVG 1.1//EN" "http://www.w3.org/Graphics/SVG/1.1/DTD/svg11.dtd">
<svg xmlns="http://www.w3.org/2000/svg" version="1.1" width="69px" height="70px" style="shape-rendering:geometricPrecision; text-rendering:geometricPrecision; image-rendering:optimizeQuality; fill-rule:evenodd; clip-rule:evenodd" xmlns:xlink="http://www.w3.org/1999/xlink">
<g><path style="opacity:1" fill="#7a3239" d="M 33.5,-0.5 C 33.8333,-0.5 34.1667,-0.5 34.5,-0.5C 34.6287,1.2161 34.962,2.88277 35.5,4.5C 35.5,5.83333 35.5,7.16667 35.5,8.5C 36.8333,8.5 38.1667,8.5 39.5,8.5C 43.2927,8.73121 46.6261,10.0645 49.5,12.5C 50.0527,14.5518 51.0527,14.8852 52.5,13.5C 52.8333,13.5 53.1667,13.5 53.5,13.5C 54.3382,13.8417 54.6716,14.5084 54.5,15.5C 55.9873,19.1454 57.4873,22.812 59,26.5C 59.4935,28.1341 59.6602,29.8008 59.5,31.5C 62.0786,31.3939 64.412,32.0605 66.5,33.5C 66.5,34.1667 66.5,34.8333 66.5,35.5C 64.2986,36.5664 61.9653,37.233 59.5,37.5C 58.7282,42.5438 56.7282,47.0438 53.5,51C 54.2524,51.6708 54.5858,52.5041 54.5,53.5C 54.6716,54.4916 54.3382,55.1583 53.5,55.5C 52.3052,55.3225 51.1385,54.9891 50,54.5C 46.1472,57.0089 41.9805,58.8423 37.5,60C 36.7265,62.5972 35.7265,65.0972 34.5,67.5C 33.8333,67.5 33.1667,67.5 32.5,67.5C 31.2264,65.0075 30.5597,62.3408 30.5,59.5C 28.8984,57.9261 26.8984,57.2594 24.5,57.5C 21.8333,56.5 19.1667,55.5 16.5,54.5C 14.8212,54.7148 13.8212,54.0481 13.5,52.5C 11.0047,47.8275 9.338,42.8275 8.5,37.5C 5.40206,37.2444 2.40206,36.5778 -0.5,35.5C -0.5,34.8333 -0.5,34.1667 -0.5,33.5C 2.30758,32.8972 4.97425,31.8972 7.5,30.5C 8.53911,25.3706 10.5391,20.7039 13.5,16.5C 14.4475,15.0221 15.7809,14.0221 17.5,13.5C 20.8905,10.4713 24.8905,8.47128 29.5,7.5C 31.0243,4.92607 32.3576,2.2594 33.5,-0.5 Z"/></g>
<g><path style="opacity:1" fill="#49292f" d="M 35.5,4.5 C 36.404,5.20895 36.7373,6.20895 36.5,7.5C 37.791,7.26269 38.791,7.59603 39.5,8.5C 38.1667,8.5 36.8333,8.5 35.5,8.5C 35.5,7.16667 35.5,5.83333 35.5,4.5 Z"/></g>
<g><path style="opacity:1" fill="#29232a" d="M 53.5,13.5 C 54.3023,12.1153 54.9689,12.282 55.5,14C 55.4301,14.7648 55.0967,15.2648 54.5,15.5C 54.6716,14.5084 54.3382,13.8417 53.5,13.5 Z"/></g>
<g><path style="opacity:1" fill="#46292f" d="M 17.5,13.5 C 15.7809,14.0221 14.4475,15.0221 13.5,16.5C 11.9122,15.3647 11.5788,14.0314 12.5,12.5C 14.0709,13.3094 15.7376,13.6427 17.5,13.5 Z"/></g>
<g><path style="opacity:1" fill="#40282e" d="M 49.5,12.5 C 50.391,13.1098 51.391,13.4431 52.5,13.5C 51.0527,14.8852 50.0527,14.5518 49.5,12.5 Z"/></g>
<g><path style="opacity:1" fill="#242229" d="M 66.5,33.5 C 67.1667,33.5 67.8333,33.5 68.5,33.5C 68.5,34.1667 68.5,34.8333 68.5,35.5C 67.8333,35.5 67.1667,35.5 66.5,35.5C 66.5,34.8333 66.5,34.1667 66.5,33.5 Z"/></g>
<g><path style="opacity:1" fill="#46292f" d="M 13.5,52.5 C 13.8212,54.0481 14.8212,54.7148 16.5,54.5C 14.9561,55.914 13.2894,56.2474 11.5,55.5C 11.9424,54.2613 12.6091,53.2613 13.5,52.5 Z"/></g>
<g><path style="opacity:1" fill="#262229" d="M 54.5,53.5 C 55.7759,54.3864 55.7759,55.3864 54.5,56.5C 53.8933,56.3764 53.56,56.0431 53.5,55.5C 54.3382,55.1583 54.6716,54.4916 54.5,53.5 Z"/></g>
<g><path style="opacity:1" fill="#512b31" d="M 24.5,57.5 C 26.8984,57.2594 28.8984,57.9261 30.5,59.5C 28.2143,59.405 26.2143,58.7384 24.5,57.5 Z"/></g>
<g><path style="opacity:1" fill="#31252b" d="M 32.5,67.5 C 33.1667,67.5 33.8333,67.5 34.5,67.5C 34.5,68.1667 34.5,68.8333 34.5,69.5C 34.1667,69.5 33.8333,69.5 33.5,69.5C 33.1667,68.8333 32.8333,68.1667 32.5,67.5 Z"/></g>
</svg>
