<?xml version="1.0" encoding="UTF-8"?>
<!DOCTYPE svg PUBLIC "-//W3C//DTD SVG 1.1//EN" "http://www.w3.org/Graphics/SVG/1.1/DTD/svg11.dtd">
<svg xmlns="http://www.w3.org/2000/svg" version="1.1" width="200px" height="200px" style="shape-rendering:geometricPrecision; text-rendering:geometricPrecision; image-rendering:optimizeQuality; fill-rule:evenodd; clip-rule:evenodd" xmlns:xlink="http://www.w3.org/1999/xlink">
<g><path style="opacity:1" fill="#5f5f63" d="M 132.5,23.5 C 131.094,23.9731 130.427,24.9731 130.5,26.5C 128.5,29.1667 126.167,31.5 123.5,33.5C 122.094,33.9731 121.427,34.9731 121.5,36.5C 119.833,38.8333 117.833,40.8333 115.5,42.5C 114.094,42.9731 113.427,43.9731 113.5,45.5C 111.5,48.1667 109.167,50.5 106.5,52.5C 105.094,52.9731 104.427,53.9731 104.5,55.5C 103.304,58.2208 101.304,59.3874 98.5,59C 94.9626,55.6309 91.6293,52.1309 88.5,48.5C 88.3398,46.8008 88.5065,45.1341 89,43.5C 90.4813,42.5291 91.3146,41.1958 91.5,39.5C 93.5,36.8333 95.8333,34.5 98.5,32.5C 100.914,31.0892 102.581,29.0892 103.5,26.5C 105.5,23.8333 107.833,21.5 110.5,19.5C 113.243,17.7607 115.243,15.4274 116.5,12.5C 118.246,10.1451 120.246,9.97844 122.5,12C 126.095,15.0498 129.595,18.2164 133,21.5C 133.692,22.4368 133.525,23.1034 132.5,23.5 Z"/></g>
<g><path style="opacity:0.945" fill="#444447" d="M 116.5,12.5 C 115.243,15.4274 113.243,17.7607 110.5,19.5C 111.757,16.5726 113.757,14.2393 116.5,12.5 Z"/></g>
<g><path style="opacity:0.008" fill="#3a3a3c" d="M 132.5,23.5 C 132.573,25.0269 131.906,26.0269 130.5,26.5C 130.427,24.9731 131.094,23.9731 132.5,23.5 Z"/></g>
<g><path style="opacity:0.918" fill="#424245" d="M 103.5,26.5 C 102.581,29.0892 100.914,31.0892 98.5,32.5C 99.4194,29.9108 101.086,27.9108 103.5,26.5 Z"/></g>
<g><path style="opacity:1" fill="#606064" d="M 135.5,32.5 C 135.427,34.0269 136.094,35.0269 137.5,35.5C 137.738,37.4044 138.738,38.7377 140.5,39.5C 141.08,41.7488 142.413,43.4154 144.5,44.5C 150.988,51.325 158.155,57.325 166,62.5C 166.667,63.5 166.667,64.5 166,65.5C 163.297,68.3714 160.464,71.0381 157.5,73.5C 155.973,73.427 154.973,74.0937 154.5,75.5C 150.461,80.54 145.794,84.8734 140.5,88.5C 139.041,88.5674 137.708,88.2341 136.5,87.5C 134.177,84.8739 131.843,82.2072 129.5,79.5C 129.573,77.9731 128.906,76.9731 127.5,76.5C 125.5,75.1667 123.833,73.5 122.5,71.5C 121.738,69.7376 120.404,68.7376 118.5,68.5C 117.167,67.8333 116.167,66.8333 115.5,65.5C 114.738,63.7376 113.404,62.7376 111.5,62.5C 109.656,61.7961 109.156,60.4628 110,58.5C 111.371,56.9586 112.871,55.6253 114.5,54.5C 116.262,53.7377 117.262,52.4044 117.5,50.5C 119.167,48.1667 121.167,46.1667 123.5,44.5C 125.914,43.0892 127.581,41.0892 128.5,38.5C 130.28,35.7099 132.613,33.7099 135.5,32.5 Z"/></g>
<g><path style="opacity:0.024" fill="#3b3b3d" d="M 123.5,33.5 C 123.573,35.0269 122.906,36.0269 121.5,36.5C 121.427,34.9731 122.094,33.9731 123.5,33.5 Z"/></g>
<g><path style="opacity:0.867" fill="#454548" d="M 135.5,32.5 C 136.906,32.9731 137.573,33.9731 137.5,35.5C 136.094,35.0269 135.427,34.0269 135.5,32.5 Z"/></g>
<g><path style="opacity:0.957" fill="#48484a" d="M 137.5,35.5 C 139.262,36.2623 140.262,37.5956 140.5,39.5C 138.738,38.7377 137.738,37.4044 137.5,35.5 Z"/></g>
<g><path style="opacity:1" fill="#57575b" d="M 151.5,37.5 C 155.067,39.5566 158.234,42.2232 161,45.5C 160.702,48.7927 158.869,50.2927 155.5,50C 153.333,47.8333 151.167,45.6667 149,43.5C 148.333,42.5 148.333,41.5 149,40.5C 150.045,39.6266 150.878,38.6266 151.5,37.5 Z"/></g>
<g><path style="opacity:0.969" fill="#47474a" d="M 91.5,39.5 C 91.3146,41.1958 90.4813,42.5291 89,43.5C 88.5065,45.1341 88.3398,46.8008 88.5,48.5C 86.6518,44.6487 87.6518,41.6487 91.5,39.5 Z"/></g>
<g><path style="opacity:0.996" fill="#47474a" d="M 140.5,39.5 C 142.587,40.5846 143.92,42.2512 144.5,44.5C 142.413,43.4154 141.08,41.7488 140.5,39.5 Z"/></g>
<g><path style="opacity:0.933" fill="#434346" d="M 128.5,38.5 C 127.581,41.0892 125.914,43.0892 123.5,44.5C 124.419,41.9108 126.086,39.9108 128.5,38.5 Z"/></g>
<g><path style="opacity:0.008" fill="#3a3a3c" d="M 115.5,42.5 C 115.573,44.0269 114.906,45.0269 113.5,45.5C 113.427,43.9731 114.094,42.9731 115.5,42.5 Z"/></g>
<g><path style="opacity:0.949" fill="#424245" d="M 117.5,50.5 C 117.262,52.4044 116.262,53.7377 114.5,54.5C 114.738,52.5956 115.738,51.2623 117.5,50.5 Z"/></g>
<g><path style="opacity:0.016" fill="#3a3a3d" d="M 106.5,52.5 C 106.573,54.0269 105.906,55.0269 104.5,55.5C 104.427,53.9731 105.094,52.9731 106.5,52.5 Z"/></g>
<g><path style="opacity:0.992" fill="#47474a" d="M 111.5,62.5 C 113.404,62.7376 114.738,63.7376 115.5,65.5C 113.596,65.2624 112.262,64.2624 111.5,62.5 Z"/></g>
<g><path style="opacity:1" fill="#5f5f63" d="M 178.5,67.5 C 179.08,69.7488 180.413,71.4154 182.5,72.5C 190.5,77.1667 190.5,81.8333 182.5,86.5C 180.973,86.427 179.973,87.0937 179.5,88.5C 172.294,96.443 164.627,103.943 156.5,111C 154.5,111.667 152.5,111.667 150.5,111C 147,107.5 143.5,104 140,100.5C 139.26,99.2506 139.427,98.2506 140.5,97.5C 143.089,96.5806 145.089,94.914 146.5,92.5C 146.833,91.5 147.5,90.8333 148.5,90.5C 151.427,89.2427 153.761,87.2427 155.5,84.5C 156.167,83.1667 157.167,82.1667 158.5,81.5C 161.427,80.2427 163.761,78.2427 165.5,75.5C 165.833,74.5 166.5,73.8333 167.5,73.5C 170.764,71.9059 173.431,69.5725 175.5,66.5C 176.779,65.2848 177.779,65.6182 178.5,67.5 Z"/></g>
<g><path style="opacity:0.953" fill="#414144" d="M 118.5,68.5 C 120.404,68.7376 121.738,69.7376 122.5,71.5C 120.596,71.2624 119.262,70.2624 118.5,68.5 Z"/></g>
<g><path style="opacity:0.996" fill="#464649" d="M 178.5,67.5 C 180.587,68.5846 181.92,70.2512 182.5,72.5C 180.413,71.4154 179.08,69.7488 178.5,67.5 Z"/></g>
<g><path style="opacity:0.965" fill="#47474a" d="M 175.5,66.5 C 173.431,69.5725 170.764,71.9059 167.5,73.5C 169.569,70.4275 172.236,68.0941 175.5,66.5 Z"/></g>
<g><path style="opacity:0.008" fill="#38383a" d="M 157.5,73.5 C 157.027,74.9063 156.027,75.573 154.5,75.5C 154.973,74.0937 155.973,73.427 157.5,73.5 Z"/></g>
<g><path style="opacity:1" fill="#5e5e62" d="M 119.5,77.5 C 122.139,78.7058 122.972,80.7058 122,83.5C 101.667,103.833 81.3333,124.167 61,144.5C 61.096,146.381 60.9293,148.047 60.5,149.5C 59.0937,149.973 58.427,150.973 58.5,152.5C 46.7813,165.387 34.2813,177.387 21,188.5C 16.6433,185.643 13.1433,181.977 10.5,177.5C 10.6236,176.893 10.9569,176.56 11.5,176.5C 24.5,164.167 37.1667,151.5 49.5,138.5C 50.9989,137.506 52.6656,137.506 54.5,138.5C 75.582,118.92 96.2487,98.7533 116.5,78C 117.448,77.5172 118.448,77.3505 119.5,77.5 Z"/></g>
<g><path style="opacity:0.024" fill="#3b3b3d" d="M 127.5,76.5 C 128.906,76.9731 129.573,77.9731 129.5,79.5C 128.094,79.0269 127.427,78.0269 127.5,76.5 Z"/></g>
<g><path style="opacity:0.973" fill="#48484b" d="M 165.5,75.5 C 163.761,78.2427 161.427,80.2427 158.5,81.5C 160.239,78.7573 162.573,76.7573 165.5,75.5 Z"/></g>
<g><path style="opacity:0.98" fill="#4a4a4d" d="M 155.5,84.5 C 153.761,87.2427 151.427,89.2427 148.5,90.5C 150.239,87.7573 152.573,85.7573 155.5,84.5 Z"/></g>
<g><path style="opacity:0.008" fill="#38383b" d="M 182.5,86.5 C 182.027,87.9063 181.027,88.573 179.5,88.5C 179.973,87.0937 180.973,86.427 182.5,86.5 Z"/></g>
<g><path style="opacity:0.965" fill="#434346" d="M 136.5,87.5 C 137.708,88.2341 139.041,88.5674 140.5,88.5C 140.083,89.1239 139.416,89.4573 138.5,89.5C 137.287,89.2528 136.62,88.5862 136.5,87.5 Z"/></g>
<g><path style="opacity:0.969" fill="#464649" d="M 146.5,92.5 C 145.089,94.914 143.089,96.5806 140.5,97.5C 141.911,95.086 143.911,93.4194 146.5,92.5 Z"/></g>
<g><path style="opacity:1" fill="#515155" d="M 119.5,77.5 C 118.448,77.3505 117.448,77.5172 116.5,78C 96.2487,98.7533 75.582,118.92 54.5,138.5C 74.6317,117.868 94.965,97.3681 115.5,77C 117.066,76.235 118.399,76.4017 119.5,77.5 Z"/></g>
<g><path style="opacity:0.024" fill="#3a3a3c" d="M 60.5,149.5 C 60.573,151.027 59.9063,152.027 58.5,152.5C 58.427,150.973 59.0937,149.973 60.5,149.5 Z"/></g>
<g><path style="opacity:0.89" fill="#424245" d="M 49.5,138.5 C 37.1667,151.5 24.5,164.167 11.5,176.5C 22.9107,163.586 34.9107,151.086 47.5,139C 48.0944,138.536 48.7611,138.369 49.5,138.5 Z"/></g>
</svg>
