<?xml version="1.0" encoding="UTF-8"?>
<!DOCTYPE svg PUBLIC "-//W3C//DTD SVG 1.1//EN" "http://www.w3.org/Graphics/SVG/1.1/DTD/svg11.dtd">
<svg xmlns="http://www.w3.org/2000/svg" version="1.1" width="271px" height="271px" style="shape-rendering:geometricPrecision; text-rendering:geometricPrecision; image-rendering:optimizeQuality; fill-rule:evenodd; clip-rule:evenodd" xmlns:xlink="http://www.w3.org/1999/xlink">
<g><path style="opacity:0.944" fill="#a64e64" d="M 118.5,-0.5 C 129.5,-0.5 140.5,-0.5 151.5,-0.5C 218.167,12.1667 257.833,51.8333 270.5,118.5C 270.5,129.5 270.5,140.5 270.5,151.5C 257.833,218.167 218.167,257.833 151.5,270.5C 140.5,270.5 129.5,270.5 118.5,270.5C 51.8333,257.833 12.1667,218.167 -0.5,151.5C -0.5,140.5 -0.5,129.5 -0.5,118.5C 12.1667,51.8333 51.8333,12.1667 118.5,-0.5 Z M 127.5,20.5 C 177.489,20.2302 214.322,41.8968 238,85.5C 258.72,135.695 250.22,180.195 212.5,219C 176.838,249.39 136.838,256.723 92.5,241C 47.201,220.331 23.201,184.998 20.5,135C 23.8129,81.3753 50.4795,45.042 100.5,26C 109.51,23.5034 118.51,21.6701 127.5,20.5 Z"/></g>
<g><path style="opacity:0.938" fill="#a64e64" d="M 127.5,33.5 C 128.649,33.7911 129.316,34.6244 129.5,36C 127.982,47.2203 124.482,57.7203 119,67.5C 113.659,74.337 108.159,81.0037 102.5,87.5C 93.6009,76.095 85.2676,64.2617 77.5,52C 92.403,41.0478 109.07,34.8811 127.5,33.5 Z"/></g>
<g><path style="opacity:0.939" fill="#a64e64" d="M 133.5,34.5 C 155.26,32.9166 174.927,38.7499 192.5,52C 180.796,69.2367 168.963,86.4034 157,103.5C 153.024,79.0704 145.191,56.0704 133.5,34.5 Z"/></g>
<g><path style="opacity:0.955" fill="#a64e64" d="M 133.5,51.5 C 147.087,77.9362 152.254,105.936 149,135.5C 156.409,127.024 162.575,117.691 167.5,107.5C 175.704,120.304 180.537,134.304 182,149.5C 185.682,145.651 189.515,141.984 193.5,138.5C 195.731,155.192 194.231,171.526 189,187.5C 180.346,207.746 165.679,217.412 145,216.5C 157.37,205.763 161.704,192.43 158,176.5C 151.289,183.541 143.289,188.541 134,191.5C 133.943,179.03 131.61,167.03 127,155.5C 124.908,152.319 122.575,149.319 120,146.5C 116.696,160.645 115.696,174.979 117,189.5C 118.155,198.288 120.322,206.788 123.5,215C 88.2319,211.39 72.3986,191.89 76,156.5C 76.7015,150.361 78.0348,144.361 80,138.5C 82.3178,143.136 84.6511,147.802 87,152.5C 89.2854,155.892 92.452,157.559 96.5,157.5C 94.3297,140.58 95.4964,123.913 100,107.5C 107.074,93.7567 115.741,81.09 126,69.5C 129.341,63.8226 131.841,57.8226 133.5,51.5 Z"/></g>
<g><path style="opacity:0.939" fill="#a64e64" d="M 33.5,134.5 C 46.8375,134.333 60.1708,134.5 73.5,135C 67.147,153.806 66.9803,172.639 73,191.5C 77.2289,200.396 83.5623,207.396 92,212.5C 91.2622,216.162 89.7622,219.662 87.5,223C 86.5,223.667 85.5,223.667 84.5,223C 51.6354,202.785 34.6354,173.285 33.5,134.5 Z"/></g>
<g><path style="opacity:0.936" fill="#a64e64" d="M 201.5,134.5 C 213.167,134.5 224.833,134.5 236.5,134.5C 235.372,175.778 216.705,206.111 180.5,225.5C 178.444,222.555 176.777,219.388 175.5,216C 189.063,205.418 197.23,191.585 200,174.5C 202.428,161.215 202.928,147.882 201.5,134.5 Z"/></g>
</svg>
