<?xml version="1.0" encoding="UTF-8"?>
<!DOCTYPE svg PUBLIC "-//W3C//DTD SVG 1.1//EN" "http://www.w3.org/Graphics/SVG/1.1/DTD/svg11.dtd">
<svg xmlns="http://www.w3.org/2000/svg" version="1.1" width="368px" height="351px" style="shape-rendering:geometricPrecision; text-rendering:geometricPrecision; image-rendering:optimizeQuality; fill-rule:evenodd; clip-rule:evenodd" xmlns:xlink="http://www.w3.org/1999/xlink">
<g><path style="opacity:0.974" fill="#7194cd" d="M 191.5,-0.5 C 192.167,-0.5 192.833,-0.5 193.5,-0.5C 220.764,74.9572 248.431,150.29 276.5,225.5C 276.167,226.167 275.833,226.833 275.5,227.5C 249.226,222.843 222.892,218.51 196.5,214.5C 192.72,259.858 188.72,305.191 184.5,350.5C 184.167,350.5 183.833,350.5 183.5,350.5C 156.218,279.604 129.218,208.604 102.5,137.5C 129.184,140.354 155.851,143.354 182.5,146.5C 185.541,97.5027 188.541,48.5027 191.5,-0.5 Z"/></g>
<g><path style="opacity:0.949" fill="#7194cd" d="M -0.5,242.5 C 21.7185,255.53 44.2185,268.196 67,280.5C 75.3472,275.827 82.8472,269.994 89.5,263C 90.1667,262.333 90.8333,262.333 91.5,263C 110.167,290.333 128.833,317.667 147.5,345C 127.339,336.505 107.506,327.005 88,316.5C 79.2958,325.536 70.9625,334.869 63,344.5C 62.2825,345.451 61.4491,345.617 60.5,345C 40.2666,311.353 19.9333,277.853 -0.5,244.5C -0.5,243.833 -0.5,243.167 -0.5,242.5 Z"/></g>
<g><path style="opacity:0.946" fill="#7194cd" d="M 367.5,242.5 C 367.5,243.167 367.5,243.833 367.5,244.5C 347.067,277.853 326.733,311.353 306.5,345C 305.004,345.507 303.837,345.007 303,343.5C 295.371,334.203 287.371,325.203 279,316.5C 259.494,327.005 239.661,336.505 219.5,345C 238.167,317.667 256.833,290.333 275.5,263C 276.167,262.333 276.833,262.333 277.5,263C 283.167,268 288.833,273 294.5,278C 296.274,278.97 298.107,279.804 300,280.5C 322.781,268.196 345.281,255.53 367.5,242.5 Z"/></g>
</svg>
