<?xml version="1.0" encoding="UTF-8"?>
<!DOCTYPE svg PUBLIC "-//W3C//DTD SVG 1.1//EN" "http://www.w3.org/Graphics/SVG/1.1/DTD/svg11.dtd">
<svg xmlns="http://www.w3.org/2000/svg" version="1.1" width="91px" height="91px" style="shape-rendering:geometricPrecision; text-rendering:geometricPrecision; image-rendering:optimizeQuality; fill-rule:evenodd; clip-rule:evenodd" xmlns:xlink="http://www.w3.org/1999/xlink">
<g><path style="opacity:1" fill="#dededf" d="M 90.5,36.5 C 90.5,36.8333 90.5,37.1667 90.5,37.5C 81.2613,54.9763 72.2613,72.6429 63.5,90.5C 62.5,90.5 61.5,90.5 60.5,90.5C 43.0535,83.0664 25.3868,75.8998 7.5,69C 5.33333,65.5 3.16667,62 1,58.5C 0.333333,57.1667 0.333333,55.8333 1,54.5C 10,37.1667 19,19.8333 28,2.5C 28.414,2.04265 28.914,1.70931 29.5,1.5C 47.1667,9 64.8333,16.5 82.5,24C 85.5654,27.977 88.232,32.1437 90.5,36.5 Z"/></g>
<g><path style="opacity:1" fill="#282a2f" d="M 31.5,8.5 C 47.5844,14.6972 63.5844,21.1972 79.5,28C 74.5917,33.819 69.925,39.819 65.5,46C 55.2193,45.0394 44.8859,44.2061 34.5,43.5C 33.9621,31.7882 32.9621,20.1216 31.5,8.5 Z"/></g>
<g><path style="opacity:1" fill="#26292d" d="M 28.5,11.5 C 30.3831,21.9877 31.5497,32.6544 32,43.5C 26.3188,49.3482 20.4854,55.0149 14.5,60.5C 12.6147,59.3906 10.6147,58.5573 8.5,58C 7.42575,57.2613 6.75908,56.2613 6.5,55C 13.9666,40.5668 21.2999,26.0668 28.5,11.5 Z"/></g>
<g><path style="opacity:1" fill="#eeeeef" d="M 54.5,20.5 C 56.4835,20.3832 58.1502,21.0499 59.5,22.5C 61.9349,25.595 63.9349,28.9283 65.5,32.5C 63.5961,35.559 60.7628,37.559 57,38.5C 52.5188,35.3887 49.3521,31.222 47.5,26C 47.8333,25.1667 48.1667,24.3333 48.5,23.5C 50.78,22.8641 52.78,21.8641 54.5,20.5 Z"/></g>
<g><path style="opacity:1" fill="#2c2f34" d="M 54.5,24.5 C 56.6237,25.0312 58.1237,26.3645 59,28.5C 60.5053,30.2983 60.6719,32.1316 59.5,34C 58.365,34.7494 57.365,34.5827 56.5,33.5C 55.3333,31.8333 54.1667,30.1667 53,28.5C 52.516,26.8067 53.016,25.4733 54.5,24.5 Z"/></g>
<g><path style="opacity:1" fill="#f0f0f1" d="M 40.5,26.5 C 42.3084,26.4914 43.9751,26.9914 45.5,28C 48.2899,31.7461 50.9566,35.5794 53.5,39.5C 53.1131,40.7199 52.2798,41.3865 51,41.5C 47.8157,38.3065 44.9824,34.8065 42.5,31C 41.552,30.5172 40.552,30.3505 39.5,30.5C 39.4326,29.0413 39.7659,27.7079 40.5,26.5 Z"/></g>
<g><path style="opacity:1" fill="#26292e" d="M 80.5,29.5 C 82.1936,31.7156 83.5269,34.2156 84.5,37C 78.1359,50.2283 71.6359,63.3949 65,76.5C 64.9161,67.8354 65.2494,59.1688 66,50.5C 70.2437,43.0902 75.0771,36.0902 80.5,29.5 Z"/></g>
<g><path style="opacity:1" fill="#24272c" d="M 32.5,45.5 C 42.8601,46.2534 53.1934,47.2534 63.5,48.5C 62.7731,60.4964 62.1064,72.4964 61.5,84.5C 46.3307,77.9142 31.664,70.2476 17.5,61.5C 22.5217,56.1463 27.5217,50.813 32.5,45.5 Z"/></g>
<g><path style="opacity:1" fill="#383b3f" d="M 8.5,60.5 C 17.7568,64.4617 26.7568,68.9617 35.5,74C 27.8362,71.6851 20.1695,69.0184 12.5,66C 10.548,64.5881 9.2147,62.7547 8.5,60.5 Z"/></g>
</svg>
