<?xml version="1.0" encoding="UTF-8"?>
<!DOCTYPE svg PUBLIC "-//W3C//DTD SVG 1.1//EN" "http://www.w3.org/Graphics/SVG/1.1/DTD/svg11.dtd">
<svg xmlns="http://www.w3.org/2000/svg" version="1.1" width="87px" height="93px" style="shape-rendering:geometricPrecision; text-rendering:geometricPrecision; image-rendering:optimizeQuality; fill-rule:evenodd; clip-rule:evenodd" xmlns:xlink="http://www.w3.org/1999/xlink">
<g><path style="opacity:0.138" fill="#282b30" d="M 42.5,12.5 C 37.0557,11.8917 32.0557,12.5583 27.5,14.5C 26.1667,14.5 24.8333,14.5 23.5,14.5C 22.5,14.5 21.5,14.5 20.5,14.5C 21.9488,12.8356 23.9488,12.0023 26.5,12C 32.0164,11.1826 37.3497,11.3493 42.5,12.5 Z"/></g>
<g><path style="opacity:1" fill="#f7f7f7" d="M 59.5,19.5 C 69.5526,25.3934 77.0526,33.7267 82,44.5C 83.4525,60.4276 77.2858,72.5943 63.5,81C 61.1341,81.4396 58.8008,81.9396 56.5,82.5C 32.0185,83.6749 14.1851,73.3416 3,51.5C 2.14924,45.7469 2.48257,40.0802 4,34.5C 6.58304,31.0026 8.91637,27.3359 11,23.5C 14.969,20.1107 19.1357,17.1107 23.5,14.5C 24.8333,14.5 26.1667,14.5 27.5,14.5C 34.1452,13.6582 40.8119,13.8248 47.5,15C 51.2963,16.9884 55.2963,18.4884 59.5,19.5 Z"/></g>
<g><path style="opacity:0.733" fill="#55585c" d="M 42.5,12.5 C 48.1038,13.2354 53.4371,14.9021 58.5,17.5C 58.8333,18.1667 59.1667,18.8333 59.5,19.5C 55.2963,18.4884 51.2963,16.9884 47.5,15C 40.8119,13.8248 34.1452,13.6582 27.5,14.5C 32.0557,12.5583 37.0557,11.8917 42.5,12.5 Z"/></g>
<g><path style="opacity:1" fill="#a7a8ab" d="M 43.5,19.5 C 37.5195,18.3846 31.5195,18.3846 25.5,19.5C 28.74,18.1529 32.24,17.4863 36,17.5C 38.8655,17.2999 41.3655,17.9666 43.5,19.5 Z"/></g>
<g><path style="opacity:1" fill="#2b2e32" d="M 43.5,19.5 C 60.2406,22.1257 71.4073,31.4591 77,47.5C 77.6667,51.5 77.6667,55.5 77,59.5C 74.6153,61.8838 72.6153,64.5505 71,67.5C 49.0412,75.0382 30.3746,70.0382 15,52.5C 6.4275,37.3892 9.9275,26.3892 25.5,19.5C 31.5195,18.3846 37.5195,18.3846 43.5,19.5 Z"/></g>
<g><path style="opacity:1" fill="#707376" d="M 49.5,24.5 C 45.3998,24.2367 41.3998,24.5701 37.5,25.5C 39.0478,24.2057 41.0478,23.5391 43.5,23.5C 45.6965,23.5046 47.6965,23.838 49.5,24.5 Z"/></g>
<g><path style="opacity:1" fill="#f7f7f8" d="M 49.5,24.5 C 57.013,28.9474 58.6797,34.7807 54.5,42C 50.3937,43.9324 46.3937,46.099 42.5,48.5C 41.5005,51.2418 42.5005,53.2418 45.5,54.5C 52.6209,50.4054 59.7875,46.4054 67,42.5C 70.7419,43.7014 71.9086,46.0347 70.5,49.5C 60.7357,54.7958 51.2357,60.4624 42,66.5C 36.5403,62.2034 32.3736,56.8701 29.5,50.5C 30.4697,48.5173 31.4697,46.5173 32.5,44.5C 37.2982,41.7253 42.2982,39.2253 47.5,37C 48.7442,34.0118 47.7442,31.8452 44.5,30.5C 38.6401,34.5114 32.4735,37.8448 26,40.5C 21.645,38.0232 21.4783,35.1898 25.5,32C 29.3991,29.5521 33.3991,27.3854 37.5,25.5C 41.3998,24.5701 45.3998,24.2367 49.5,24.5 Z"/></g>
<g><path style="opacity:0.231" fill="#35383c" d="M 58.5,17.5 C 73.9354,24.3096 82.9354,36.1429 85.5,53C 84.2777,61.3371 81.111,68.8371 76,75.5C 70.8371,81.2464 64.3371,84.2464 56.5,84.5C 56.5,83.8333 56.5,83.1667 56.5,82.5C 58.8008,81.9396 61.1341,81.4396 63.5,81C 77.2858,72.5943 83.4525,60.4276 82,44.5C 77.0526,33.7267 69.5526,25.3934 59.5,19.5C 59.1667,18.8333 58.8333,18.1667 58.5,17.5 Z"/></g>
<g><path style="opacity:1" fill="#373a3e" d="M 6.5,38.5 C 7.77139,44.0641 9.93806,49.3975 13,54.5C 17.1733,59.0061 21.6733,63.1728 26.5,67C 32.1667,69.3333 37.8333,71.6667 43.5,74C 50.1667,74.3333 56.8333,74.6667 63.5,75C 59.503,77.2501 55.1696,78.4167 50.5,78.5C 29.5619,77.2987 14.7286,67.2987 6,48.5C 5.34115,45.1119 5.50782,41.7786 6.5,38.5 Z"/></g>
<g><path style="opacity:0.369" fill="#434549" d="M 20.5,14.5 C 21.5,14.5 22.5,14.5 23.5,14.5C 19.1357,17.1107 14.969,20.1107 11,23.5C 8.91637,27.3359 6.58304,31.0026 4,34.5C 2.48257,40.0802 2.14924,45.7469 3,51.5C 14.1851,73.3416 32.0185,83.6749 56.5,82.5C 56.5,83.1667 56.5,83.8333 56.5,84.5C 41.5241,85.665 27.8574,81.8317 15.5,73C -1.40616,58.3937 -4.07283,41.5604 7.5,22.5C 11.071,18.55 15.4044,15.8833 20.5,14.5 Z"/></g>
</svg>
