<?xml version="1.0" encoding="UTF-8"?>
<!DOCTYPE svg PUBLIC "-//W3C//DTD SVG 1.1//EN" "http://www.w3.org/Graphics/SVG/1.1/DTD/svg11.dtd">
<svg xmlns="http://www.w3.org/2000/svg" version="1.1" width="81px" height="89px" style="shape-rendering:geometricPrecision; text-rendering:geometricPrecision; image-rendering:optimizeQuality; fill-rule:evenodd; clip-rule:evenodd" xmlns:xlink="http://www.w3.org/1999/xlink">
<g><path style="opacity:1" fill="#6b6d71" d="M 31.5,-0.5 C 32.1667,-0.5 32.8333,-0.5 33.5,-0.5C 33.5,0.166667 33.5,0.833333 33.5,1.5C 32.8333,1.5 32.1667,1.5 31.5,1.5C 31.5,0.833333 31.5,0.166667 31.5,-0.5 Z"/></g>
<g><path style="opacity:1" fill="#dcdcdd" d="M 31.5,1.5 C 32.1667,1.5 32.8333,1.5 33.5,1.5C 48.1367,20.984 62.6367,40.6507 77,60.5C 78.5588,62.2166 79.3921,64.2166 79.5,66.5C 60.5324,73.263 41.8657,80.5964 23.5,88.5C 22.5,88.5 21.5,88.5 20.5,88.5C 13.6502,79.4809 6.9835,70.3143 0.5,61C 10.4726,40.885 20.8059,21.0517 31.5,1.5 Z"/></g>
<g><path style="opacity:1" fill="#26292e" d="M 32.5,9.5 C 33.4959,9.41423 34.3292,9.74756 35,10.5C 47.255,28.01 59.755,45.3433 72.5,62.5C 56.823,69.6636 40.823,76.3303 24.5,82.5C 24.1667,81.3333 23.8333,80.1667 23.5,79C 27.0598,55.8999 30.0598,32.7332 32.5,9.5 Z"/></g>
<g><path style="opacity:1" fill="#26292e" d="M 28.5,16.5 C 29.1386,17.0968 29.472,17.9302 29.5,19C 26.6668,39.8323 23.8334,60.6656 21,81.5C 16.0262,74.3593 10.8596,67.3593 5.5,60.5C 13.1795,45.8065 20.8461,31.1399 28.5,16.5 Z"/></g>
<g><path style="opacity:1" fill="#f0f0f0" d="M 45.5,41.5 C 46.675,41.281 47.675,41.6143 48.5,42.5C 49.7357,47.2168 51.7357,51.5501 54.5,55.5C 54.5018,57.741 54.1684,60.0743 53.5,62.5C 52.2638,63.2458 50.9305,63.5792 49.5,63.5C 49.9899,61.0516 49.1566,59.385 47,58.5C 44.1289,59.4014 41.2956,60.4014 38.5,61.5C 37.914,61.2907 37.414,60.9574 37,60.5C 36.3333,55.5 36.3333,50.5 37,45.5C 39.8759,44.0522 42.7092,42.7189 45.5,41.5 Z"/></g>
<g><path style="opacity:1" fill="#2b2e33" d="M 42.5,46.5 C 43.5,46.5 44.5,46.5 45.5,46.5C 45.5111,48.5466 45.8444,50.5466 46.5,52.5C 45.6378,54.767 43.9711,55.767 41.5,55.5C 41.2641,52.3915 41.5975,49.3915 42.5,46.5 Z"/></g>
</svg>
