<?xml version="1.0" encoding="UTF-8"?>
<!DOCTYPE svg PUBLIC "-//W3C//DTD SVG 1.1//EN" "http://www.w3.org/Graphics/SVG/1.1/DTD/svg11.dtd">
<svg xmlns="http://www.w3.org/2000/svg" version="1.1" width="87px" height="93px" style="shape-rendering:geometricPrecision; text-rendering:geometricPrecision; image-rendering:optimizeQuality; fill-rule:evenodd; clip-rule:evenodd" xmlns:xlink="http://www.w3.org/1999/xlink">
<g><path style="opacity:1" fill="#e0e0e1" d="M 83.5,21.5 C 84.3686,23.717 84.702,26.0504 84.5,28.5C 82.1152,41.256 79.2819,53.9226 76,66.5C 66.6617,74.6719 57.8283,83.3385 49.5,92.5C 48.8333,92.5 48.1667,92.5 47.5,92.5C 32.8099,84.0675 17.9766,75.7342 3,67.5C 4.00465,53.4609 5.67132,39.4609 8,25.5C 17.4243,16.9001 27.2577,8.90013 37.5,1.5C 53.0878,7.62833 68.4211,14.295 83.5,21.5 Z"/></g>
<g><path style="opacity:1" fill="#26292e" d="M 36.5,7.5 C 49.4599,11.8088 62.1266,16.9755 74.5,23C 55.1813,24.4068 35.8479,25.0735 16.5,25C 23.4261,19.3848 30.0927,13.5515 36.5,7.5 Z"/></g>
<g><path style="opacity:1" fill="#808285" d="M 83.5,21.5 C 84.609,21.5569 85.609,21.8902 86.5,22.5C 86.5,22.8333 86.5,23.1667 86.5,23.5C 85.8333,25.1667 85.1667,26.8333 84.5,28.5C 84.702,26.0504 84.3686,23.717 83.5,21.5 Z"/></g>
<g><path style="opacity:1" fill="#25282d" d="M 69.5,25.5 C 73.226,25.1774 76.8927,25.5108 80.5,26.5C 69.9209,46.6596 59.0876,66.6596 48,86.5C 36.1667,67.3333 24.3333,48.1667 12.5,29C 31.6586,27.8727 50.6586,26.706 69.5,25.5 Z"/></g>
<g><path style="opacity:1" fill="#272a2f" d="M 11.5,32.5 C 21.4702,47.9935 31.3036,63.6602 41,79.5C 41.9819,80.7589 42.3152,82.0922 42,83.5C 30.8282,76.9132 19.4948,70.5799 8,64.5C 8.92604,53.8428 10.0927,43.1761 11.5,32.5 Z"/></g>
<g><path style="opacity:1" fill="#f2f3f3" d="M 47.5,35.5 C 54.154,37.0613 57.8206,41.3947 58.5,48.5C 58.3333,49.5 58.1667,50.5 58,51.5C 54.9474,53.4301 52.4474,55.9301 50.5,59C 47.2533,60.9014 44.0866,60.7347 41,58.5C 38.5,54.1667 36,49.8333 33.5,45.5C 34.1228,43.2895 35.1228,41.2895 36.5,39.5C 40.0368,36.9689 43.7034,35.6355 47.5,35.5 Z"/></g>
<g><path style="opacity:1" fill="#2b2e33" d="M 76.5,37.5 C 77.1239,37.9169 77.4573,38.5836 77.5,39.5C 75.7716,47.1866 73.9383,54.8532 72,62.5C 67.3333,68.5 62,73.8333 56,78.5C 62.7716,64.9568 69.6049,51.2902 76.5,37.5 Z"/></g>
<g><path style="opacity:1" fill="#2a2d32" d="M 48.5,41.5 C 52.5181,42.0385 53.8515,44.2052 52.5,48C 51.5509,48.6172 50.7175,48.4506 50,47.5C 48.4382,45.4961 47.9382,43.4961 48.5,41.5 Z"/></g>
<g><path style="opacity:1" fill="#2f3237" d="M 41.5,44.5 C 42.552,44.3505 43.552,44.5172 44.5,45C 45.8333,47 47.1667,49 48.5,51C 45.3167,54.5015 42.8167,54.0015 41,49.5C 40.3603,47.735 40.5269,46.0683 41.5,44.5 Z"/></g>
</svg>
