<?xml version="1.0" encoding="UTF-8"?>
<!DOCTYPE svg PUBLIC "-//W3C//DTD SVG 1.1//EN" "http://www.w3.org/Graphics/SVG/1.1/DTD/svg11.dtd">
<svg xmlns="http://www.w3.org/2000/svg" version="1.1" width="335px" height="319px" style="shape-rendering:geometricPrecision; text-rendering:geometricPrecision; image-rendering:optimizeQuality; fill-rule:evenodd; clip-rule:evenodd" xmlns:xlink="http://www.w3.org/1999/xlink">
<g><path style="opacity:0.952" fill="#e3aa15" d="M 148.5,-0.5 C 160.833,-0.5 173.167,-0.5 185.5,-0.5C 243.824,6.89258 287.658,35.8926 317,86.5C 325.787,104.011 331.621,122.345 334.5,141.5C 334.5,153.167 334.5,164.833 334.5,176.5C 322.165,245.012 282.831,290.179 216.5,312C 206.15,314.769 195.817,316.935 185.5,318.5C 173.167,318.5 160.833,318.5 148.5,318.5C 91.1732,311.105 47.6732,282.771 18,233.5C 8.57553,215.437 2.40886,196.437 -0.5,176.5C -0.5,164.833 -0.5,153.167 -0.5,141.5C 11.8354,72.9875 51.1688,27.8209 117.5,6C 127.85,3.23138 138.183,1.06471 148.5,-0.5 Z M 152.5,24.5 C 211.333,21.5011 257.167,44.1677 290,92.5C 317.978,145.712 313.644,196.045 277,243.5C 235.639,287.616 185.473,302.449 126.5,288C 67.9534,269.128 34.4534,229.295 26,168.5C 25.6721,106.511 53.5054,62.3445 109.5,36C 123.499,30.419 137.833,26.5856 152.5,24.5 Z"/></g>
<g><path style="opacity:0.973" fill="#e3aa15" d="M 154.5,39.5 C 185.017,37.2952 213.017,44.4619 238.5,61C 221.7,84.7661 204.533,108.266 187,131.5C 181.075,127.183 174.408,125.183 167,125.5C 159.592,125.183 152.925,127.183 147,131.5C 129.467,108.266 112.3,84.7661 95.5,61C 113.451,48.9622 133.118,41.7956 154.5,39.5 Z"/></g>
<g><path style="opacity:0.954" fill="#e3aa15" d="M 160.5,134.5 C 175.634,132.644 186.134,138.644 192,152.5C 194.652,168.032 188.485,178.198 173.5,183C 158.353,185.347 147.853,179.513 142,165.5C 139.471,149.881 145.638,139.548 160.5,134.5 Z"/></g>
<g><path style="opacity:0.973" fill="#e3aa15" d="M 41.5,158.5 C 71.5,158.5 101.5,158.5 131.5,158.5C 131.592,164.535 133.092,170.201 136,175.5C 140.233,181.067 145.067,185.9 150.5,190C 136.625,214.925 122.125,239.425 107,263.5C 65.391,240.969 43.5577,205.969 41.5,158.5 Z"/></g>
<g><path style="opacity:0.974" fill="#e3aa15" d="M 202.5,158.5 C 232.5,158.5 262.5,158.5 292.5,158.5C 290.08,207.56 267.08,243.227 223.5,265.5C 209.657,240.483 196.324,215.149 183.5,189.5C 195.203,182.462 201.536,172.129 202.5,158.5 Z"/></g>
</svg>
