<?xml version="1.0" encoding="UTF-8"?>
<!DOCTYPE svg PUBLIC "-//W3C//DTD SVG 1.1//EN" "http://www.w3.org/Graphics/SVG/1.1/DTD/svg11.dtd">
<svg xmlns="http://www.w3.org/2000/svg" version="1.1" width="69px" height="70px" style="shape-rendering:geometricPrecision; text-rendering:geometricPrecision; image-rendering:optimizeQuality; fill-rule:evenodd; clip-rule:evenodd" xmlns:xlink="http://www.w3.org/1999/xlink">
<g><path style="opacity:1" fill="#1e323e" d="M 31.5,-0.5 C 32.8333,-0.5 34.1667,-0.5 35.5,-0.5C 35.5,-0.166667 35.5,0.166667 35.5,0.5C 34.5,0.5 33.5,0.5 32.5,0.5C 32.5,4.16667 32.5,7.83333 32.5,11.5C 31.5,11.5 30.5,11.5 29.5,11.5C 31.3177,7.82738 31.9843,3.82738 31.5,-0.5 Z"/></g>
<g><path style="opacity:1" fill="#345d70" d="M 35.5,0.5 C 34.9197,4.64903 35.5864,8.31569 37.5,11.5C 49.0675,13.7353 55.4008,20.7353 56.5,32.5C 60.5,32.5 64.5,32.5 68.5,32.5C 68.5,33.8333 68.5,35.1667 68.5,36.5C 64.4454,36.1758 60.4454,36.5091 56.5,37.5C 53.902,48.1013 47.2354,54.1013 36.5,55.5C 36.5,59.8333 36.5,64.1667 36.5,68.5C 34.8333,68.5 33.1667,68.5 31.5,68.5C 31.5,64.1667 31.5,59.8333 31.5,55.5C 20.3072,53.9748 13.6406,47.6414 11.5,36.5C 7.5,36.5 3.5,36.5 -0.5,36.5C -0.5,35.1667 -0.5,33.8333 -0.5,32.5C 3.5,32.5 7.5,32.5 11.5,32.5C 12.4819,21.1856 18.4819,14.1856 29.5,11.5C 30.5,11.5 31.5,11.5 32.5,11.5C 32.5,7.83333 32.5,4.16667 32.5,0.5C 33.5,0.5 34.5,0.5 35.5,0.5 Z"/></g>
<g><path style="opacity:1" fill="#192831" d="M 35.5,0.5 C 36.2302,4.06056 36.8969,7.72723 37.5,11.5C 35.5864,8.31569 34.9197,4.64903 35.5,0.5 Z"/></g>
<g><path style="opacity:1" fill="#f2f5f6" d="M 17.5,27.5 C 23.9857,25.8346 26.819,28.168 26,34.5C 24.103,36.0163 21.9363,36.683 19.5,36.5C 19.7852,38.288 19.4519,39.9547 18.5,41.5C 17.5067,36.8804 17.1734,32.2137 17.5,27.5 Z"/></g>
<g><path style="opacity:1" fill="#e8edef" d="M 36.5,33.5 C 34.8333,34.1667 33.1667,34.8333 31.5,35.5C 31.5,36.8333 31.5,38.1667 31.5,39.5C 33.604,39.2011 35.604,39.5344 37.5,40.5C 34.9135,41.48 32.2469,41.8134 29.5,41.5C 29.5,36.8333 29.5,32.1667 29.5,27.5C 32.2469,27.1866 34.9135,27.52 37.5,28.5C 35.604,29.4656 33.604,29.7989 31.5,29.5C 31.5,30.8333 31.5,32.1667 31.5,33.5C 33.1667,33.5 34.8333,33.5 36.5,33.5 Z"/></g>
<g><path style="opacity:1" fill="#dae2e6" d="M 39.5,27.5 C 42.1873,27.3359 44.854,27.5026 47.5,28C 50.2652,30.9663 49.9318,33.633 46.5,36C 47.8721,37.2419 48.8721,38.7419 49.5,40.5C 48.9984,41.521 48.3317,41.6877 47.5,41C 44.3965,33.7424 42.7298,33.9091 42.5,41.5C 41.5,41.5 40.5,41.5 39.5,41.5C 39.5,36.8333 39.5,32.1667 39.5,27.5 Z"/></g>
<g><path style="opacity:1" fill="#3b6578" d="M 19.5,29.5 C 23.6759,28.8307 25.0093,30.3307 23.5,34C 22.2068,34.49 20.8734,34.6567 19.5,34.5C 19.5,32.8333 19.5,31.1667 19.5,29.5 Z"/></g>
<g><path style="opacity:1" fill="#356074" d="M 42.5,29.5 C 43.8333,29.5 45.1667,29.5 46.5,29.5C 46.5,30.8333 46.5,32.1667 46.5,33.5C 45.1667,33.5 43.8333,33.5 42.5,33.5C 42.5,32.1667 42.5,30.8333 42.5,29.5 Z"/></g>
<g><path style="opacity:1" fill="#90a7b2" d="M 36.5,33.5 C 37.0431,33.56 37.3764,33.8933 37.5,34.5C 35.604,35.4656 33.604,35.7989 31.5,35.5C 33.1667,34.8333 34.8333,34.1667 36.5,33.5 Z"/></g>
</svg>
