<?xml version="1.0" encoding="UTF-8"?>
<!DOCTYPE svg PUBLIC "-//W3C//DTD SVG 1.1//EN" "http://www.w3.org/Graphics/SVG/1.1/DTD/svg11.dtd">
<svg xmlns="http://www.w3.org/2000/svg" version="1.1" width="69px" height="69px" style="shape-rendering:geometricPrecision; text-rendering:geometricPrecision; image-rendering:optimizeQuality; fill-rule:evenodd; clip-rule:evenodd" xmlns:xlink="http://www.w3.org/1999/xlink">
<g><path style="opacity:1" fill="#1e323e" d="M 31.5,-0.5 C 32.8333,-0.5 34.1667,-0.5 35.5,-0.5C 35.5,-0.166667 35.5,0.166667 35.5,0.5C 34.5,0.5 33.5,0.5 32.5,0.5C 32.5,4.16667 32.5,7.83333 32.5,11.5C 31.5,11.5 30.5,11.5 29.5,11.5C 31.3177,7.82738 31.9843,3.82738 31.5,-0.5 Z"/></g>
<g><path style="opacity:1" fill="#315c6f" d="M 35.5,0.5 C 34.9197,4.64903 35.5864,8.31569 37.5,11.5C 49.0675,13.7353 55.4008,20.7353 56.5,32.5C 60.1667,32.5 63.8333,32.5 67.5,32.5C 67.5,33.5 67.5,34.5 67.5,35.5C 63.5,35.5 59.5,35.5 55.5,35.5C 55.5,36.5 55.5,37.5 55.5,38.5C 53.2883,48.7091 46.9549,54.3758 36.5,55.5C 36.5,59.8333 36.5,64.1667 36.5,68.5C 34.8333,68.5 33.1667,68.5 31.5,68.5C 31.5,64.1667 31.5,59.8333 31.5,55.5C 20.3072,53.9748 13.6406,47.6414 11.5,36.5C 8.03808,35.5184 4.37141,35.185 0.5,35.5C 0.5,34.5 0.5,33.5 0.5,32.5C 4.16667,32.5 7.83333,32.5 11.5,32.5C 12.4819,21.1856 18.4819,14.1856 29.5,11.5C 30.5,11.5 31.5,11.5 32.5,11.5C 32.5,7.83333 32.5,4.16667 32.5,0.5C 33.5,0.5 34.5,0.5 35.5,0.5 Z"/></g>
<g><path style="opacity:1" fill="#192831" d="M 35.5,0.5 C 36.2302,4.06056 36.8969,7.72723 37.5,11.5C 35.5864,8.31569 34.9197,4.64903 35.5,0.5 Z"/></g>
<g><path style="opacity:1" fill="#284959" d="M -0.5,32.5 C -0.166667,32.5 0.166667,32.5 0.5,32.5C 0.5,33.5 0.5,34.5 0.5,35.5C 4.37141,35.185 8.03808,35.5184 11.5,36.5C 7.5,36.5 3.5,36.5 -0.5,36.5C -0.5,35.1667 -0.5,33.8333 -0.5,32.5 Z"/></g>
<g><path style="opacity:1" fill="#264352" d="M 67.5,32.5 C 67.8333,32.5 68.1667,32.5 68.5,32.5C 68.5,33.8333 68.5,35.1667 68.5,36.5C 63.8468,35.9992 59.5135,36.6658 55.5,38.5C 55.5,37.5 55.5,36.5 55.5,35.5C 59.5,35.5 63.5,35.5 67.5,35.5C 67.5,34.5 67.5,33.5 67.5,32.5 Z"/></g>
</svg>
