<?xml version="1.0" encoding="UTF-8"?>
<!DOCTYPE svg PUBLIC "-//W3C//DTD SVG 1.1//EN" "http://www.w3.org/Graphics/SVG/1.1/DTD/svg11.dtd">
<svg xmlns="http://www.w3.org/2000/svg" version="1.1" width="87px" height="93px" style="shape-rendering:geometricPrecision; text-rendering:geometricPrecision; image-rendering:optimizeQuality; fill-rule:evenodd; clip-rule:evenodd" xmlns:xlink="http://www.w3.org/1999/xlink">
<g><path style="opacity:1" fill="#2c2c2c" d="M 52.5,4.5 C 45.1375,4.36456 37.8042,4.6979 30.5,5.5C 34.5595,3.98302 38.8929,3.31635 43.5,3.5C 46.6862,3.50199 49.6862,3.83533 52.5,4.5 Z"/></g>
<g><path style="opacity:1" fill="#f6f6f6" d="M 52.5,4.5 C 55.2154,6.07191 58.2154,7.07191 61.5,7.5C 67.3884,11.0456 72.7218,15.3789 77.5,20.5C 78.6693,23.5113 80.336,26.178 82.5,28.5C 82.4021,30.5529 83.0687,32.2196 84.5,33.5C 85.4345,34.5676 85.7678,35.901 85.5,37.5C 86.6621,48.3408 84.9954,58.6742 80.5,68.5C 78.4525,70.5496 76.7859,72.883 75.5,75.5C 74.5,77.1667 73.1667,78.5 71.5,79.5C 69.5956,79.7376 68.2623,80.7376 67.5,82.5C 61.8463,85.4957 55.8463,87.4957 49.5,88.5C 42.8039,88.609 36.1373,88.2757 29.5,87.5C 28.2196,86.0687 26.5529,85.4021 24.5,85.5C 23.3406,83.7497 21.674,82.7497 19.5,82.5C 18.4154,80.4131 16.7488,79.0798 14.5,78.5C 12.1568,75.7928 9.82349,73.1261 7.5,70.5C 2.0542,59.8406 0.0542024,48.5073 1.5,36.5C 2.73838,34.7857 3.40505,32.7857 3.5,30.5C 5.00751,28.8185 6.00751,26.8185 6.5,24.5C 7.90632,24.0269 8.57298,23.0269 8.5,21.5C 14.8435,14.6754 22.1768,9.34203 30.5,5.5C 37.8042,4.6979 45.1375,4.36456 52.5,4.5 Z"/></g>
<g><path style="opacity:0.263" fill="#171717" d="M 52.5,4.5 C 55.9164,4.52751 58.9164,5.52751 61.5,7.5C 58.2154,7.07191 55.2154,6.07191 52.5,4.5 Z"/></g>
<g><path style="opacity:1" fill="#24272c" d="M 71.5,71.5 C 71.8893,68.4467 71.2227,65.78 69.5,63.5C 64.7772,52.3677 60.2772,41.0343 56,29.5C 48.7678,20.7837 40.2678,19.2837 30.5,25C 29.1955,25.804 28.5288,26.9707 28.5,28.5C 29.5011,32.347 31.1678,35.847 33.5,39C 36.1698,39.5426 38.6698,39.0426 41,37.5C 41.5,37.8333 42,38.1667 42.5,38.5C 45.1741,46.1901 47.8408,53.8568 50.5,61.5C 50.7037,66.5365 52.037,71.2032 54.5,75.5C 55.6878,76.84 57.1878,77.5066 59,77.5C 61.8224,76.7245 64.6557,76.0579 67.5,75.5C 57.0357,84.4283 45.0357,86.9283 31.5,83C 8.29671,72.424 0.79671,54.924 9,30.5C 19.8449,11.9978 35.6782,5.49782 56.5,11C 77.4055,21.3161 84.9055,37.8161 79,60.5C 77.4182,64.894 74.9182,68.5607 71.5,71.5 Z"/></g>
<g><path style="opacity:0.308" fill="#1c1c1c" d="M 61.5,7.5 C 68.6477,9.65206 73.981,13.9854 77.5,20.5C 72.7218,15.3789 67.3884,11.0456 61.5,7.5 Z"/></g>
<g><path style="opacity:1" fill="#2b2b2b" d="M 30.5,5.5 C 22.1768,9.34203 14.8435,14.6754 8.5,21.5C 13.6744,13.2418 21.0078,7.90842 30.5,5.5 Z"/></g>
<g><path style="opacity:1" fill="#fcfcfc" d="M 69.5,63.5 C 70.167,65.8194 70.3336,68.1527 70,70.5C 66.847,72.8322 63.347,74.4989 59.5,75.5C 57.3717,74.9459 55.8717,73.6126 55,71.5C 53.38,68.1068 51.88,64.7735 50.5,61.5C 47.8408,53.8568 45.1741,46.1901 42.5,38.5C 42,38.1667 41.5,37.8333 41,37.5C 38.6698,39.0426 36.1698,39.5426 33.5,39C 31.1678,35.847 29.5011,32.347 28.5,28.5C 28.5288,26.9707 29.1955,25.804 30.5,25C 40.2678,19.2837 48.7678,20.7837 56,29.5C 60.2772,41.0343 64.7772,52.3677 69.5,63.5 Z"/></g>
<g><path style="opacity:0.745" fill="#1b1b1b" d="M 8.5,21.5 C 8.57298,23.0269 7.90632,24.0269 6.5,24.5C 6.42702,22.9731 7.09368,21.9731 8.5,21.5 Z"/></g>
<g><path style="opacity:0.667" fill="#1e1e1e" d="M 77.5,20.5 C 80.1639,22.4844 81.8305,25.1511 82.5,28.5C 80.336,26.178 78.6693,23.5113 77.5,20.5 Z"/></g>
<g><path style="opacity:0.21" fill="#141414" d="M 6.5,24.5 C 6.00751,26.8185 5.00751,28.8185 3.5,30.5C 3.46095,27.911 4.46095,25.911 6.5,24.5 Z"/></g>
<g><path style="opacity:0.214" fill="#0c0c0c" d="M 82.5,28.5 C 83.9313,29.7804 84.5979,31.4471 84.5,33.5C 83.0687,32.2196 82.4021,30.5529 82.5,28.5 Z"/></g>
<g><path style="opacity:0.297" fill="#121212" d="M 3.5,30.5 C 3.40505,32.7857 2.73838,34.7857 1.5,36.5C 1.25939,34.1016 1.92606,32.1016 3.5,30.5 Z"/></g>
<g><path style="opacity:0.318" fill="#1e1e1e" d="M 85.5,37.5 C 85.8333,37.5 86.1667,37.5 86.5,37.5C 86.5,43.8333 86.5,50.1667 86.5,56.5C 85.0691,60.798 83.0691,64.798 80.5,68.5C 84.9954,58.6742 86.6621,48.3408 85.5,37.5 Z"/></g>
<g><path style="opacity:0.592" fill="#292929" d="M 1.5,36.5 C 0.0542024,48.5073 2.0542,59.8406 7.5,70.5C 5.52594,68.572 4.02594,66.2387 3,63.5C 1.41714,59.1398 0.250474,54.8064 -0.5,50.5C -0.5,47.8333 -0.5,45.1667 -0.5,42.5C 0.166667,40.5 0.833333,38.5 1.5,36.5 Z"/></g>
<g><path style="opacity:0.255" fill="#131313" d="M 7.5,70.5 C 9.82349,73.1261 12.1568,75.7928 14.5,78.5C 10.7833,77.0802 8.44994,74.4135 7.5,70.5 Z"/></g>
<g><path style="opacity:0.263" fill="#1a1a1a" d="M 80.5,68.5 C 79.9898,71.6743 78.3231,74.0077 75.5,75.5C 76.7859,72.883 78.4525,70.5496 80.5,68.5 Z"/></g>
<g><path style="opacity:1" fill="#46494d" d="M 50.5,61.5 C 51.88,64.7735 53.38,68.1068 55,71.5C 55.8717,73.6126 57.3717,74.9459 59.5,75.5C 63.347,74.4989 66.847,72.8322 70,70.5C 70.3336,68.1527 70.167,65.8194 69.5,63.5C 71.2227,65.78 71.8893,68.4467 71.5,71.5C 70.674,73.2644 69.3407,74.5977 67.5,75.5C 64.6557,76.0579 61.8224,76.7245 59,77.5C 57.1878,77.5066 55.6878,76.84 54.5,75.5C 52.037,71.2032 50.7037,66.5365 50.5,61.5 Z"/></g>
<g><path style="opacity:0.647" fill="#272727" d="M 14.5,78.5 C 16.7488,79.0798 18.4154,80.4131 19.5,82.5C 17.2512,81.9202 15.5846,80.5869 14.5,78.5 Z"/></g>
<g><path style="opacity:0.308" fill="#131313" d="M 71.5,79.5 C 70.7377,81.2624 69.4044,82.2624 67.5,82.5C 68.2623,80.7376 69.5956,79.7376 71.5,79.5 Z"/></g>
<g><path style="opacity:0.553" fill="#1e1e1e" d="M 19.5,82.5 C 21.674,82.7497 23.3406,83.7497 24.5,85.5C 22.326,85.2503 20.6594,84.2503 19.5,82.5 Z"/></g>
<g><path style="opacity:0.247" fill="#131313" d="M 24.5,85.5 C 26.5529,85.4021 28.2196,86.0687 29.5,87.5C 27.4471,87.5979 25.7804,86.9313 24.5,85.5 Z"/></g>
<g><path style="opacity:0.245" fill="#1d1d1d" d="M 67.5,82.5 C 62.3583,86.7743 56.3583,89.1076 49.5,89.5C 49.5,89.1667 49.5,88.8333 49.5,88.5C 55.8463,87.4957 61.8463,85.4957 67.5,82.5 Z"/></g>
<g><path style="opacity:0.331" fill="#333333" d="M 29.5,87.5 C 36.1373,88.2757 42.8039,88.609 49.5,88.5C 49.5,88.8333 49.5,89.1667 49.5,89.5C 42.5508,90.7895 35.8841,90.1228 29.5,87.5 Z"/></g>
</svg>
