<?xml version="1.0" encoding="UTF-8"?>
<!DOCTYPE svg PUBLIC "-//W3C//DTD SVG 1.1//EN" "http://www.w3.org/Graphics/SVG/1.1/DTD/svg11.dtd">
<svg xmlns="http://www.w3.org/2000/svg" version="1.1" width="69px" height="70px" style="shape-rendering:geometricPrecision; text-rendering:geometricPrecision; image-rendering:optimizeQuality; fill-rule:evenodd; clip-rule:evenodd" xmlns:xlink="http://www.w3.org/1999/xlink">
<g><path style="opacity:1" fill="#7a343b" d="M 33.5,-0.5 C 33.8333,-0.5 34.1667,-0.5 34.5,-0.5C 35.1667,2.16667 35.8333,4.83333 36.5,7.5C 42.155,8.2444 47.3217,10.2444 52,13.5C 55.2046,12.2097 56.0379,13.2097 54.5,16.5C 57.5741,21.0557 59.2408,26.0557 59.5,31.5C 62.5739,31.8726 65.5739,32.5392 68.5,33.5C 68.5,34.1667 68.5,34.8333 68.5,35.5C 65.5,36.1667 62.5,36.8333 59.5,37.5C 58.7282,42.5438 56.7282,47.0438 53.5,51C 56.5175,56.3919 55.3508,57.5585 50,54.5C 46.1472,57.0089 41.9805,58.8423 37.5,60C 36.3552,63.1224 35.3552,66.2891 34.5,69.5C 34.1667,69.5 33.8333,69.5 33.5,69.5C 31.698,66.4258 30.698,63.0924 30.5,59.5C 25.8661,58.6858 21.5328,57.0191 17.5,54.5C 11.7489,57.9129 10.4156,56.7463 13.5,51C 10.5708,46.9736 8.90411,42.4736 8.5,37.5C 5.40206,37.2444 2.40206,36.5778 -0.5,35.5C -0.5,34.8333 -0.5,34.1667 -0.5,33.5C 2.30758,32.8972 4.97425,31.8972 7.5,30.5C 8.44149,25.5011 10.4415,21.0011 13.5,17C 12.7069,15.9148 12.0402,14.7481 11.5,13.5C 13.3435,13.2448 15.3435,13.0781 17.5,13C 21.1212,10.3563 25.1212,8.52297 29.5,7.5C 31.0243,4.92607 32.3576,2.2594 33.5,-0.5 Z"/></g>
<g><path style="opacity:1" fill="#f7f2f2" d="M 17.5,27.5 C 23.9857,25.8346 26.819,28.168 26,34.5C 24.103,36.0163 21.9363,36.683 19.5,36.5C 19.7852,38.288 19.4519,39.9547 18.5,41.5C 17.5067,36.8804 17.1734,32.2137 17.5,27.5 Z"/></g>
<g><path style="opacity:1" fill="#f1e8e9" d="M 29.5,27.5 C 32.2469,27.1866 34.9135,27.52 37.5,28.5C 35.604,29.4656 33.604,29.7989 31.5,29.5C 31.5,30.8333 31.5,32.1667 31.5,33.5C 38.1667,33.8333 38.1667,34.1667 31.5,34.5C 31.5,36.1667 31.5,37.8333 31.5,39.5C 33.604,39.2011 35.604,39.5344 37.5,40.5C 34.9135,41.48 32.2469,41.8134 29.5,41.5C 29.5,36.8333 29.5,32.1667 29.5,27.5 Z"/></g>
<g><path style="opacity:1" fill="#e8dadb" d="M 39.5,27.5 C 42.1873,27.3359 44.854,27.5026 47.5,28C 50.2652,30.9663 49.9318,33.633 46.5,36C 47.8721,37.2419 48.8721,38.7419 49.5,40.5C 48.9984,41.521 48.3317,41.6877 47.5,41C 44.3965,33.7424 42.7298,33.9091 42.5,41.5C 41.5,41.5 40.5,41.5 39.5,41.5C 39.5,36.8333 39.5,32.1667 39.5,27.5 Z"/></g>
<g><path style="opacity:1" fill="#843b41" d="M 19.5,29.5 C 23.6759,28.8307 25.0093,30.3307 23.5,34C 22.2068,34.49 20.8734,34.6567 19.5,34.5C 19.5,32.8333 19.5,31.1667 19.5,29.5 Z"/></g>
<g><path style="opacity:1" fill="#80353c" d="M 42.5,29.5 C 43.8333,29.5 45.1667,29.5 46.5,29.5C 46.5,30.8333 46.5,32.1667 46.5,33.5C 45.1667,33.5 43.8333,33.5 42.5,33.5C 42.5,32.1667 42.5,30.8333 42.5,29.5 Z"/></g>
</svg>
