<?xml version="1.0" encoding="UTF-8"?>
<!DOCTYPE svg PUBLIC "-//W3C//DTD SVG 1.1//EN" "http://www.w3.org/Graphics/SVG/1.1/DTD/svg11.dtd">
<svg xmlns="http://www.w3.org/2000/svg" version="1.1" width="68px" height="68px" style="shape-rendering:geometricPrecision; text-rendering:geometricPrecision; image-rendering:optimizeQuality; fill-rule:evenodd; clip-rule:evenodd" xmlns:xlink="http://www.w3.org/1999/xlink">
<g><path style="opacity:1" fill="#d8d8d9" d="M 29.5,2.5 C 38.7356,4.39197 47.7356,7.05863 56.5,10.5C 60.0002,21.0072 63.6669,31.3405 67.5,41.5C 67.5,42.5 67.5,43.5 67.5,44.5C 59.1461,52.1859 50.4795,59.5192 41.5,66.5C 32.7378,64.8002 23.9045,63.4668 15,62.5C 14.1667,62.1667 13.3333,61.8333 12.5,61.5C 8.52163,50.248 4.85496,38.9147 1.5,27.5C 9.2976,19.2017 17.2976,11.035 25.5,3C 26.7932,2.50999 28.1266,2.34332 29.5,2.5 Z"/></g>
<g><path style="opacity:1" fill="#272a2f" d="M 23.5,8.5 C 24.0431,8.55999 24.3764,8.89333 24.5,9.5C 22.5256,16.0386 21.1923,22.7052 20.5,29.5C 15.5802,29.1516 10.9136,27.985 6.5,26C 12.3696,20.2981 18.0362,14.4647 23.5,8.5 Z"/></g>
<g><path style="opacity:1" fill="#32353a" d="M 38.5,9.5 C 38.56,8.95691 38.8933,8.62358 39.5,8.5C 44.0686,10.3006 48.7352,11.8006 53.5,13C 54.7472,14.4936 54.7472,15.9936 53.5,17.5C 48.6318,14.5662 43.6318,11.8995 38.5,9.5 Z"/></g>
<g><path style="opacity:1" fill="#808285" d="M 29.5,2.5 C 28.1266,2.34332 26.7932,2.50999 25.5,3C 17.2976,11.035 9.2976,19.2017 1.5,27.5C 0.474981,27.1034 0.308314,26.4368 1,25.5C 8.83333,17.6667 16.6667,9.83333 24.5,2C 26.3869,1.22039 28.0536,1.38705 29.5,2.5 Z"/></g>
<g><path style="opacity:1" fill="#2e3136" d="M 40.5,12.5 C 45.2717,14.7204 49.9384,17.2204 54.5,20C 43.9927,23.4601 33.326,26.2934 22.5,28.5C 23.8333,20.8333 25.1667,13.1667 26.5,5.5C 31.7528,6.79302 36.4194,9.12635 40.5,12.5 Z"/></g>
<g><path style="opacity:1" fill="#e8e9e9" d="M 40.5,12.5 C 41.3487,15.0351 42.3487,17.5351 43.5,20C 42.9561,21.9468 41.6228,22.7801 39.5,22.5C 36.2358,21.4799 34.5691,19.1465 34.5,15.5C 34.6082,14.5581 34.9415,13.7247 35.5,13C 37.1341,12.5065 38.8008,12.3398 40.5,12.5 Z"/></g>
<g><path style="opacity:1" fill="#393c40" d="M 36.5,14.5 C 40.1428,15.1186 41.1428,17.1186 39.5,20.5C 37.585,18.9288 36.585,16.9288 36.5,14.5 Z"/></g>
<g><path style="opacity:1" fill="#e7e7e8" d="M 26.5,14.5 C 31.9313,13.0936 34.2647,15.0936 33.5,20.5C 32.325,20.281 31.325,20.6143 30.5,21.5C 31.7757,22.6446 33.109,22.6446 34.5,21.5C 35.521,22.0016 35.6877,22.6683 35,23.5C 30.8586,26.7442 28.3586,25.9108 27.5,21C 28.2321,19.2345 29.5654,18.0678 31.5,17.5C 30.2243,16.3554 28.891,16.3554 27.5,17.5C 26.6143,16.675 26.281,15.675 26.5,14.5 Z"/></g>
<g><path style="opacity:1" fill="#26282d" d="M 55.5,21.5 C 56.0967,21.7352 56.4301,22.2352 56.5,23C 53.0998,34.4339 49.9332,45.9339 47,57.5C 38.8333,48.6667 30.6667,39.8333 22.5,31C 33.7116,28.1345 44.7116,24.9678 55.5,21.5 Z"/></g>
<g><path style="opacity:1" fill="#2c2f34" d="M 56.5,26.5 C 57.7498,26.5774 58.5831,27.244 59,28.5C 60.5,33 62,37.5 63.5,42C 59.7167,45.9477 55.7167,49.781 51.5,53.5C 51.1667,53 50.8333,52.5 50.5,52C 52.694,43.5271 54.694,35.0271 56.5,26.5 Z"/></g>
<g><path style="opacity:1" fill="#272a2f" d="M 5.5,28.5 C 10.0611,29.8115 14.7277,30.4781 19.5,30.5C 17.9863,38.5561 16.153,46.5561 14,54.5C 11.0599,45.8466 8.22653,37.18 5.5,28.5 Z"/></g>
<g><path style="opacity:1" fill="#24282c" d="M 36.5,58.5 C 30.1667,58.5 23.8333,58.5 17.5,58.5C 16.5028,58.5299 15.8361,58.0299 15.5,57C 17.3429,49.0926 19.3429,41.2592 21.5,33.5C 30.0162,41.1827 38.0162,49.3493 45.5,58C 42.5184,58.498 39.5184,58.6646 36.5,58.5 Z"/></g>
<g><path style="opacity:1" fill="#b2b3b4" d="M 17.5,58.5 C 23.8333,58.5 30.1667,58.5 36.5,58.5C 38.9686,59.3171 41.6353,59.8171 44.5,60C 43.9558,60.7172 43.2891,61.2172 42.5,61.5C 38.8333,60.1667 35.1667,60.1667 31.5,61.5C 29.6214,61.6068 29.2881,61.1068 30.5,60C 25.9805,59.8247 21.6472,59.3247 17.5,58.5 Z"/></g>
<g><path style="opacity:1" fill="#383b3e" d="M 31.5,61.5 C 35.1667,60.1667 38.8333,60.1667 42.5,61.5C 39.0225,62.1186 35.3559,62.1186 31.5,61.5 Z"/></g>
</svg>
