<?xml version="1.0" encoding="UTF-8"?>
<!DOCTYPE svg PUBLIC "-//W3C//DTD SVG 1.1//EN" "http://www.w3.org/Graphics/SVG/1.1/DTD/svg11.dtd">
<svg xmlns="http://www.w3.org/2000/svg" version="1.1" width="512px" height="512px" style="shape-rendering:geometricPrecision; text-rendering:geometricPrecision; image-rendering:optimizeQuality; fill-rule:evenodd; clip-rule:evenodd" xmlns:xlink="http://www.w3.org/1999/xlink">
<g><path style="opacity:0.008" fill="#000000" d="M -0.5,-0.5 C 170.167,-0.5 340.833,-0.5 511.5,-0.5C 511.5,170.167 511.5,340.833 511.5,511.5C 340.833,511.5 170.167,511.5 -0.5,511.5C -0.5,340.833 -0.5,170.167 -0.5,-0.5 Z"/></g>
<g><path style="opacity:0.99" fill="#4b4b4b" d="M 425.5,99.5 C 443.536,98.149 461.202,99.9823 478.5,105C 508.811,118.819 517.644,141.319 505,172.5C 496.415,190.424 484.748,206.091 470,219.5C 449.973,180.779 430.473,141.779 411.5,102.5C 416.234,101.209 420.901,100.209 425.5,99.5 Z"/></g>
<g><path style="opacity:0.996" fill="#4b4b4b" d="M 390.5,105.5 C 391.675,105.281 392.675,105.614 393.5,106.5C 414.875,148.246 435.375,190.246 455,232.5C 436.111,248.033 415.611,261.199 393.5,272C 325.5,305.667 257.5,339.333 189.5,373C 188.5,373.667 187.5,373.667 186.5,373C 163.81,327.12 140.977,281.287 118,235.5C 117.251,234.365 117.417,233.365 118.5,232.5C 188.167,198 257.833,163.5 327.5,129C 347.975,119.457 368.975,111.623 390.5,105.5 Z"/></g>
<g><path style="opacity:0.954" fill="#4b4b4b" d="M 97.5,242.5 C 98.552,242.351 99.552,242.517 100.5,243C 89.3806,257.788 77.8806,272.288 66,286.5C 62.6667,279.833 59.3333,273.167 56,266.5C 55.2506,265.365 55.4173,264.365 56.5,263.5C 70.3841,256.726 84.0508,249.726 97.5,242.5 Z"/></g>
<g><path style="opacity:0.982" fill="#4b4b4b" d="M 110.5,263.5 C 111.376,263.369 112.043,263.702 112.5,264.5C 116.667,272.833 120.833,281.167 125,289.5C 125.667,290.833 125.667,292.167 125,293.5C 113.908,308.015 102.574,322.349 91,336.5C 86.1822,326.864 81.3489,317.198 76.5,307.5C 87.8421,292.803 99.1754,278.137 110.5,263.5 Z"/></g>
<g><path style="opacity:0.98" fill="#4b4b4b" d="M 37.5,272.5 C 38.3764,272.369 39.0431,272.702 39.5,273.5C 62.7716,319.71 85.7716,366.043 108.5,412.5C 103.646,416.096 98.3123,418.929 92.5,421C 91.365,421.749 90.365,421.583 89.5,420.5C 66.4007,374.359 43.4007,328.193 20.5,282C 26.229,278.806 31.8956,275.639 37.5,272.5 Z"/></g>
<g><path style="opacity:0.977" fill="#4b4b4b" d="M 135.5,312.5 C 140.782,320.892 145.449,329.725 149.5,339C 138.43,354.309 126.763,369.142 114.5,383.5C 109.776,375.219 105.442,366.719 101.5,358C 112.675,342.666 124.009,327.499 135.5,312.5 Z"/></g>
<g><path style="opacity:0.962" fill="#4b4b4b" d="M 159.5,360.5 C 161.81,363.102 163.643,366.102 165,369.5C 167.013,373.833 168.68,378.166 170,382.5C 155.825,390.341 141.325,397.174 126.5,403C 137.333,388.672 148.333,374.505 159.5,360.5 Z"/></g>
</svg>
