<svg clip-rule="evenodd" fill-rule="evenodd" height="200" image-rendering="optimizeQuality" shape-rendering="geometricPrecision" text-rendering="geometricPrecision" width="200" xmlns="http://www.w3.org/2000/svg"><path d="m77.5 4.5c-.073 1.52694.5937 2.52694 2 3-.073 1.52694.5937 2.5269 2 3 .8382.3417 1.1716 1.0084 1 2-.073 1.5269.5937 2.5269 2 3-.073 1.5269.5937 2.5269 2 3-.073 1.5269.5937 2.5269 2 3 .8382.3417 1.1716 1.0084 1 2-.073 1.5269.5937 2.5269 2 3-.073 1.5269.5937 2.5269 2 3 2.5934-1.2536 4.9268-2.9202 7-5 3.403-2.3998 6.07-5.3998 8-9 2.333-3 5-5.66667 8-8 1.629-1.12529 3.129-2.45862 4.5-4 .495 1.9727.662 3.9727.5 6-.07 7.7678-.737 15.4344-2 23-1.306 3.1868-1.306 6.5202 0 10 .607-.1236.94-.4569 1-1 3.682-2.5078 7.682-4.5078 12-6 1.527.073 2.527-.5937 3-2 8.349-4.8412 17.016-9.1745 26-13 1.548.3212 2.215 1.3212 2 3-5.238 12.1443-11.238 23.8109-18 35-.543.06-.876.3933-1 1 14.357.3429 28.357 1.3429 42 3-5.975 4.9703-11.975 9.9703-18 15-1.527-.073-2.527.5937-3 2-1.836 2.6676-4.169 4.8343-7 6.5 9.026 4.1808 18.026 8.3474 27 12.5 1.333 1.3333 1.333 2.667 0 4-6.828 4.915-13.828 9.581-21 14-.073 1.527.594 2.527 2 3-.073 1.527.594 2.527 2 3 .238 1.904 1.238 3.238 3 4-.073 1.527.594 2.527 2 3 .238 1.904 1.238 3.238 3 4-.073 1.527.594 2.527 2 3 .238 1.904 1.238 3.238 3 4-.073 1.527.594 2.527 2 3-3.048 1.619-6.381 2.619-10 3-7.469 1.262-15.135 1.929-23 2-2.559.302-4.893-.032-7-1 7.068-2.572 14.401-4.572 22-6 2.657.338 4.99-.329 7-2-.124-.607-.457-.94-1-1 .073-1.527-.594-2.527-2-3-1.667-1-3-2.333-4-4 .073-1.527-.594-2.527-2-3-1.667-1-3-2.333-4-4 .073-1.527-.594-2.527-2-3-1.667-1-3-2.333-4-4 .073-1.527-.594-2.527-2-3-1-.333-1.667-1-2-2 .333-.667.667-1.333 1-2 7.517-3.452 15.183-6.619 23-9.5-11.337-4.6709-22.337-9.8376-33-15.5.457-.7975 1.124-1.1309 2-1 1.904-.2376 3.238-1.2376 4-3 1.527.073 2.527-.5937 3-2 1.527.073 2.527-.5937 3-2 1.904-.2376 3.238-1.2376 4-3 1.527.073 2.527-.5937 3-2 1.527.073 2.527-.5937 3-2s1.473-2.073 3-2c.789-.2828 1.456-.7828 2-1.5-1.566-.765-2.899-.5983-4 .5-6.212 1.3881-12.546 2.0548-19 2-4.863.3195-9.53-.0139-14-1 1.826-4.9844 4.159-9.6511 7-14 1.406-.4731 2.073-1.4731 2-3 .492-2.3185 1.492-4.3185 3-6 1.406-.4731 2.073-1.4731 2-3 .16-1.653.826-2.9863 2-4 .767-.672 1.434-1.5053 2-2.5-1.64-.3478-2.973.1522-4 1.5-9.667 6.1695-19.667 11.8361-30 17-1.888-2.4878-2.555-5.4878-2-9 .166-7.3409 0-14.6742-.5-22-4.856 7.0662-9.689 14.0662-14.5 21-.6667 0-1.3333 0-2 0-6.0544-8.7283-11.7211-17.7283-17-27 .1309-.8764-.2025-1.5431-1-2-.8857.825-1.219 1.825-1 3-1.867 9.8005-4.2003 19.4671-7 29-1.422-1.425-3.0887-2.425-5-3-1.3333-.6667-2.3333-1.6667-3-3-1.0846-2.0869-2.7512-3.4202-5-4-1.3333-.6667-2.3333-1.6667-3-3-1.0846-2.0869-2.7512-3.4202-5-4-1.6911-1.3637-3.3577-2.697-5-4-1.0477-2.4327-1.7144-2.4327-2 0-.5129 8.103-1.5129 16.103-3 24-.6667-5.6667-1.3333-11.3333-2-17-.9304-7.2771-1.2637-14.6104-1-22 0-.6667.3333-1 1-1 1 .3333 1.6667 1 2 2 .4731 1.4063 1.4731 2.073 3 2 1.6667 1 3 2.3333 4 4 .7623 1.7624 2.0956 2.7624 4 3 1.6667 1 3 2.3333 4 4 .4731 1.4063 1.4731 2.073 3 2 1.6667 1 3 2.3333 4 4 .4731 1.4063 1.4731 2.073 3 2 1.0477 2.4327 1.7144 2.4327 2 0 2.224-9.6693 5.224-19.0026 9-28 .7216-.41753 1.2216-1.0842 1.5-2 .3826.55596.8826.88929 1.5 1z" fill="#5c5b60"/><path d="m77.5 4.5c-.6174-.11071-1.1174-.44404-1.5-1-.2784.9158-.7784 1.58247-1.5 2 .4594-4.525129 1.4594-4.858462 3-1z" fill="#403f43" opacity=".851"/><path d="m121.5 9.5c.162-2.0273-.005-4.0273-.5-6-1.371 1.54138-2.871 2.87471-4.5 4 .896-2.5692 2.562-4.5692 5-6 1.3 2.80921 1.3 5.47588 0 8z" fill="#3d3d40" opacity=".91"/><path d="m77.5 4.5c1.4063.47306 2.073 1.47306 2 3-1.4063-.47306-2.073-1.47306-2-3z" fill="#414144" opacity=".765"/><path d="m36.5 10.5c-.6667 0-1 .3333-1 1-.5431-.06-.8764-.3933-1-1 .7565-1.27329 1.4232-1.27329 2 0z" fill="#323134" opacity=".063"/><path d="m79.5 7.5c1.4063.47306 2.073 1.47306 2 3-1.4063-.4731-2.073-1.47306-2-3z" fill="#3e3e41" opacity=".663"/><path d="m38.5 12.5c1.5269-.073 2.5269.5937 3 2-1.5269.073-2.5269-.5937-3-2z" fill="#39383b" opacity=".008"/><path d="m82.5 12.5c1.4063.4731 2.073 1.4731 2 3-1.4063-.4731-2.073-1.4731-2-3z" fill="#444447" opacity=".835"/><path d="m78.5 17.5c-.6667.3333-1.3333.6667-2 1-.219-1.175.1143-2.175 1-3 .7975.4569 1.1309 1.1236 1 2z" fill="#39383b" opacity=".098"/><path d="m84.5 15.5c1.4063.4731 2.073 1.4731 2 3-1.4063-.4731-2.073-1.4731-2-3z" fill="#414043" opacity=".745"/><path d="m45.5 18.5c1.9044.2376 3.2377 1.2376 4 3-1.9044-.2376-3.2377-1.2376-4-3z" fill="#3a393d" opacity=".008"/><path d="m86.5 18.5c1.4063.4731 2.073 1.4731 2 3-1.4063-.4731-2.073-1.4731-2-3z" fill="#3e3d40" opacity=".635"/><path d="m163.5 23.5c.215-1.6788-.452-2.6788-2-3 5.832-4.0345 6.499-3.0345 2 3z" fill="#47474a" opacity=".996"/><path d="m108.5 15.5c-1.93 3.6002-4.597 6.6002-8 9 1.93-3.6002 4.597-6.6002 8-9z" fill="#404043" opacity=".816"/><path d="m43.5 26.5c-.6667 0-1.3333 0-2 0 .2856-2.4327.9523-2.4327 2 0z" fill="#333235" opacity=".047"/><path d="m53.5 25.5c1.5269-.073 2.5269.5937 3 2-1.5269.073-2.5269-.5937-3-2z" fill="#3a393c" opacity=".016"/><path d="m89.5 23.5c1.4063.4731 2.073 1.4731 2 3-1.4063-.4731-2.073-1.4731-2-3z" fill="#444347" opacity=".816"/><path d="m91.5 26.5c1.4063.4731 2.073 1.4731 2 3-1.4063-.4731-2.073-1.4731-2-3z" fill="#403f43" opacity=".725"/><path d="m48.5 30.5c2.2488.5798 3.9154 1.9131 5 4-2.2488-.5798-3.9154-1.9131-5-4z" fill="#424145" opacity=".976"/><path d="m60.5 31.5c1.5269-.073 2.5269.5937 3 2-1.5269.073-2.5269-.5937-3-2z" fill="#39393c" opacity=".008"/><path d="m63.5 33.5h2c-.2856 2.4327-.9523 2.4327-2 0z" fill="#39383b" opacity=".227"/><path d="m135.5 33.5c-.473 1.4063-1.473 2.073-3 2 .473-1.4063 1.473-2.073 3-2z" fill="#424145" opacity=".949"/><path d="m146.5 38.5c-.342-.8382-1.008-1.1716-2-1 1.027-1.3478 2.36-1.8478 4-1.5-.566.9947-1.233 1.828-2 2.5z" fill="#373639" opacity=".024"/><path d="m56.5 37.5c2.2488.5798 3.9154 1.9131 5 4-2.2488-.5798-3.9154-1.9131-5-4z" fill="#424144" opacity=".973"/><path d="m119.5 32.5c-.31 3.2131.023 6.2131 1 9-.06.5431-.393.8764-1 1-1.306-3.4798-1.306-6.8132 0-10z" fill="#3f3e41" opacity=".396"/><path d="m64.5 44.5c1.9113.575 3.578 1.575 5 3-2.1848.5869-3.8515-.4131-5-3z" fill="#403f42" opacity=".965"/><path d="m144.5 42.5c.073 1.5269-.594 2.5269-2 3-.073-1.5269.594-2.5269 2-3z" fill="#3e3d40" opacity=".573"/><path d="m95.5 44.5h2c-.6667 2.6667-1.3333 2.6667-2 0z" fill="#38373a" opacity=".063"/><path d="m36.5 33.5c.6667 5.6667 1.3333 11.3333 2 17 .1653 3.6817-.0014 7.3484-.5 11-.5-.5-1-1-1.5-1.5.2265-8.7354.2265-17.5687 0-26.5z" fill="#3b3a3e" opacity=".226"/><path d="m112.5 45.5c-.555 3.5122.112 6.5122 2 9-.672.7674-1.505 1.4341-2.5 2-.81-3.8575-.643-7.5242.5-11z" fill="#38383a" opacity=".529"/><path d="m89.5 88.5c1.4473 1.3852 2.4473 1.0518 3-1 1.6271-2.1298 3.4604-4.1298 5.5-6 .3357-5.0318.8357-10.0318 1.5-15 .667-.6667 1.333-1.3333 2-2 .919 2.5892 2.586 4.5892 5 6 1.667 1 3 2.3333 4 4 .538 1.6172.871 3.2839 1 5 1.224 8.9627-1.442 16.4627-8 22.5 1.773 1.802 3.44 1.635 5-.5 2.414-1.411 4.081-3.4108 5-6-.256-3.7693.077-7.4359 1-11 .722-.4175 1.222-1.0842 1.5-2 .708.8805 1.542 1.5472 2.5 2 .667 0 1 .3333 1 1 .238 1.9044 1.238 3.2377 3 4 .667 0 1 .3333 1 1 .238 1.9044 1.238 3.2377 3 4 1.526.9919 2.193 2.4919 2 4.5.514 6.593-1.82 11.76-7 15.5-1.882.721-2.215 1.721-1 3 .667 0 1 .333 1 1 1.832 1.218 2.832.551 3-2 1.333-2 3-3.667 5-5 .667-3 1.333-6 2-9-.073 1.527.594 2.527 2 3 .667 0 1 .333 1 1-.073 1.527.594 2.527 2 3 3.587 3.195 4.754 7.195 3.5 12-6.069 10.821-13.569 20.487-22.5 29-1.406.473-2.073 1.473-2 3-7.979 9.819-17.3123 17.985-28 24.5-3.6667.333-7.3333.667-11 1-1.5375 1.707-3.2041 3.207-5 4.5-1.4063.473-2.073 1.473-2 3-2.8316 3.001-5.4983 6.167-8 9.5-1.9122.279-3.2456-.554-4-2.5-1.4108-2.414-3.4108-4.081-6-5-2.6667-2-5-4.333-7-7-1.0846-2.087-2.7512-3.42-5-4-3-2.333-5.6667-5-8-8-1.0846-2.087-2.7512-3.42-5-4-2.6667-2-5-4.333-7-7-1.7393-2.743-4.0726-4.743-7-6-1-.333-1.6667-1-2-2 .6667-1.667 1.3333-3.333 2-5 1.3333-2 3-3.667 5-5 1.7624-.762 2.7624-2.096 3-4 1.5165-1.686 2.8498-3.519 4-5.5-2.5129-9.695-3.3463-19.528-2.5-29.5.2784-.916.7784-1.5825 1.5-2 1.4063-.4731 2.073-1.4731 2-3 .2376-1.9044 1.2376-3.2377 3-4s2.7624-2.0956 3-4c2.0869-1.0846 3.4202-2.7512 4-5 0-.6667.3333-1 1-1 1.4063-.4731 2.073-1.4731 2-3 .6667-1.3333 1.6667-2.3333 3-3 1.4063-.4731 2.073-1.4731 2-3 .6667-1.3333 1.6667-2.3333 3-3 1.7624-.7623 2.7624-2.0956 3-4 4.9651-6.7507 11.4651-8.7507 19.5-6 .6667 4.6667.6667 9.3333 0 14-2.7028 2.8714-5.5361 5.5381-8.5 8-1.4063.4731-2.073 1.4731-2 3-1.4599 1.9628-3.1266 3.7962-5 5.5.556.3826.8893.8826 1 1.5 1.2399 2.4845 2.2399 2.4845 3 0 2-2.6667 4.3333-5 7-7 2.0869-1.0846 3.4202-2.7512 4-5 .9577-1.4616 2.1244-2.7949 3.5-4 .3333-5.6667.6667-11.3333 1-17 .3826-.556.8826-.8893 1.5-1 1.6667-1 3-2.3333 4-4 7.1475-3.3438 12.9808-1.6771 17.5 5 .6381 6.7076.3047 13.3743-1 20-1.8123 2.7802-3.979 5.2802-6.5 7.5.556.3826.8893.8826 1 1.5z" fill="#616065"/><path d="m139.5 51.5c.073 1.5269-.594 2.5269-2 3-.073-1.5269.594-2.5269 2-3z" fill="#3d3c3f" opacity=".541"/><path d="m78.5 54.5c-1 1.6667-2.3333 3-4 4 .3333-2.3333 1.6667-3.6667 4-4z" fill="#414043" opacity=".906"/><path d="m145.5 58.5c14.494.8313 29.161 1.3313 44 1.5-.873 1.045-1.873 1.8783-3 2.5-13.643-1.6571-27.643-2.6571-42-3 .124-.6067.457-.94 1-1z" fill="#3d3d40" opacity=".374"/><path d="m101.5 64.5c-.667.6667-1.333 1.3333-2 2-.1567-1.3734.01-2.7068.5-4 .717.5442 1.217 1.2109 1.5 2z" fill="#47464a" opacity=".941"/><path d="m101.5 64.5c2.414 1.4108 4.081 3.4108 5 6-2.414-1.4108-4.081-3.4108-5-6z" fill="#424144" opacity=".98"/><path d="m163.5 67.5c1.101-1.0983 2.434-1.265 4-.5-.544.7172-1.211 1.2172-2 1.5-.342-.8382-1.008-1.1716-2-1z" fill="#444347" opacity=".753"/><path d="m49.5 66.5c-.2376 1.9044-1.2376 3.2377-3 4 .2376-1.9044 1.2376-3.2377 3-4z" fill="#414043" opacity=".945"/><path d="m130.5 68.5c4.47.9861 9.137 1.3195 14 1-4.848 1.3137-9.848 1.3137-15 0 .124-.6067.457-.94 1-1z" fill="#49484c" opacity=".992"/><path d="m162.5 70.5c-.473 1.4063-1.473 2.073-3 2 .473-1.4063 1.473-2.073 3-2z" fill="#454448" opacity=".965"/><path d="m159.5 72.5c-.473 1.4063-1.473 2.073-3 2 .473-1.4063 1.473-2.073 3-2z" fill="#424144" opacity=".937"/><path d="m43.5 73.5c.073 1.5269-.5937 2.5269-2 3-.073-1.5269.5937-2.5269 2-3z" fill="#424144" opacity=".941"/><path d="m156.5 74.5c-.762 1.7624-2.096 2.7624-4 3 .762-1.7624 2.096-2.7624 4-3z" fill="#434246" opacity=".89"/><path d="m110.5 74.5c2.097 1.3786 2.43 3.0453 1 5-.129-1.7161-.462-3.3828-1-5z" fill="#3a393c" opacity=".478"/><path d="m152.5 77.5c-.473 1.4063-1.473 2.073-3 2 .473-1.4063 1.473-2.073 3-2z" fill="#47464a" opacity=".98"/><path d="m168.5 77.5c-.473 1.4063-1.473 2.073-3 2 .473-1.4063 1.473-2.073 3-2z" fill="#373639" opacity=".008"/><path d="m38.5 79.5c.073 1.5269-.5937 2.5269-2 3-.073-1.5269.5937-2.5269 2-3z" fill="#434245" opacity=".949"/><path d="m149.5 79.5c-.473 1.4063-1.473 2.073-3 2 .473-1.4063 1.473-2.073 3-2z" fill="#434346" opacity=".953"/><path d="m118.5 84.5c-.958-.4528-1.792-1.1195-2.5-2-.278.9158-.778 1.5825-1.5 2 .058-6.0586 1.391-6.0586 4 0z" fill="#474649" opacity=".933"/><path d="m146.5 81.5c-.762 1.7624-2.096 2.7624-4 3 .762-1.7624 2.096-2.7624 4-3z" fill="#424145" opacity=".89"/><path d="m60.5 82.5c.073 1.5269-.5937 2.5269-2 3-.073-1.5269.5937-2.5269 2-3z" fill="#3b3a3d" opacity=".024"/><path d="m68.5 80.5c-.5798 2.2488-1.9131 3.9154-4 5 .5798-2.2488 1.9131-3.9154 4-5z" fill="#414044" opacity=".89"/><path d="m119.5 85.5c1.762.7623 2.762 2.0956 3 4-1.762-.7623-2.762-2.0956-3-4z" fill="#47474b" opacity=".992"/><path d="m35.5 83.5c-.5798 2.2488-1.9131 3.9154-4 5 .5798-2.2488 1.9131-3.9154 4-5z" fill="#434246" opacity=".753"/><path d="m92.5 87.5c-.5527 2.0518-1.5527 2.3852-3 1 1.109-.0569 2.109-.3902 3-1z" fill="#414044" opacity=".953"/><path d="m31.5 88.5c-.2376 1.9044-1.2376 3.2377-3 4 .2376-1.9044 1.2376-3.2377 3-4z" fill="#49484c" opacity=".996"/><path d="m123.5 90.5c1.762.7623 2.762 2.0956 3 4-1.762-.7623-2.762-2.0956-3-4z" fill="#47464a" opacity=".992"/><path d="m54.5 92.5h3c-.7601 2.4845-1.7601 2.4845-3 0z" fill="#47474a" opacity=".957"/><path d="m25.5 96.5c.073 1.5269-.5937 2.5269-2 3-.073-1.5269.5937-2.5269 2-3z" fill="#454448" opacity=".847"/><path d="m113.5 95.5c-.919 2.5892-2.586 4.589-5 6 .919-2.5892 2.586-4.5892 5-6z" fill="#434246" opacity=".925"/><path d="m185.5 98.5c5.055.9879 5.055 2.321 0 4 1.333-1.333 1.333-2.6667 0-4z" fill="#424144" opacity=".98"/><path d="m131.5 102.5c-.667 3-1.333 6-2 9-.165-3.682.001-7.348.5-11 .717.544 1.217 1.211 1.5 2z" fill="#3e3d40" opacity=".667"/><path d="m131.5 102.5c1.406.473 2.073 1.473 2 3-1.406-.473-2.073-1.473-2-3z" fill="#444346" opacity=".871"/><path d="m134.5 106.5c1.406.473 2.073 1.473 2 3-1.406-.473-2.073-1.473-2-3z" fill="#464548" opacity=".894"/><path d="m150.5 110.5c-.333.667-.667 1.333-1 2-1.257-1.123-.924-1.789 1-2z" fill="#363538" opacity=".302"/><path d="m151.5 114.5c1.406.473 2.073 1.473 2 3-1.406-.473-2.073-1.473-2-3z" fill="#3a393c" opacity=".016"/><path d="m121.5 114.5c-.057 1.109-.39 2.109-1 3-1.215-1.279-.882-2.279 1-3z" fill="#403f43" opacity=".706"/><path d="m124.5 116.5c-.168 2.551-1.168 3.218-3 2 1-.667 2-1.333 3-2z" fill="#48474b" opacity=".965"/><path d="m164.5 116.5c1.406.473 2.073 1.473 2 3-1.406-.473-2.073-1.473-2-3z" fill="#403f42" opacity=".745"/><path d="m166.5 119.5c1.406.473 2.073 1.473 2 3-1.406-.473-2.073-1.473-2-3z" fill="#444347" opacity=".859"/><path d="m157.5 121.5c1.406.473 2.073 1.473 2 3-1.406-.473-2.073-1.473-2-3z" fill="#3a393c" opacity=".016"/><path d="m168.5 122.5c1.762.762 2.762 2.096 3 4-1.762-.762-2.762-2.096-3-4z" fill="#454548" opacity=".937"/><path d="m171.5 126.5c1.406.473 2.073 1.473 2 3-1.406-.473-2.073-1.473-2-3z" fill="#434246" opacity=".835"/><path d="m163.5 128.5c1.406.473 2.073 1.473 2 3-1.406-.473-2.073-1.473-2-3z" fill="#39393c" opacity=".008"/><path d="m173.5 129.5c1.762.762 2.762 2.096 3 4-1.762-.762-2.762-2.096-3-4z" fill="#454448" opacity=".925"/><path d="m176.5 133.5c1.406.473 2.073 1.473 2 3-1.406-.473-2.073-1.473-2-3z" fill="#424144" opacity=".812"/><path d="m169.5 135.5c1.406.473 2.073 1.473 2 3-1.406-.473-2.073-1.473-2-3z" fill="#39383c" opacity=".008"/><path d="m20.5 136.5c-.2376 1.904-1.2376 3.238-3 4 .2376-1.904 1.2376-3.238 3-4z" fill="#424144" opacity=".941"/><path d="m178.5 136.5c1.762.762 2.762 2.096 3 4-1.762-.762-2.762-2.096-3-4z" fill="#444347" opacity=".906"/><path d="m171.5 138.5c.543.06.876.393 1 1-2.01 1.671-4.343 2.338-7 2 2.129-.703 4.129-1.703 6-3z" fill="#47464a"/><path d="m181.5 140.5c1.406.473 2.073 1.473 2 3-1.406-.473-2.073-1.473-2-3z" fill="#414044" opacity=".784"/><path d="m183.5 143.5c1.733.508 2.066 1.341 1 2.5-3.652.499-7.318.665-11 .5 3.619-.381 6.952-1.381 10-3z" fill="#3f3e42" opacity=".463"/><path d="m12.5 145.5c-.6667 1.667-1.3333 3.333-2 5-1.35839-2.243-.69172-3.909 2-5z" fill="#444447" opacity=".976"/><path d="m143.5 147.5c2.107.968 4.441 1.302 7 1-4.859.99-9.859 1.49-15 1.5 2.441-1.446 5.108-2.279 8-2.5z" fill="#3e3d40" opacity=".835"/><path d="m117.5 150.5c.073 1.527-.594 2.527-2 3-.073-1.527.594-2.527 2-3z" fill="#3a393d" opacity=".016"/><path d="m12.5 152.5c2.9274 1.257 5.2607 3.257 7 6-2.9274-1.257-5.2607-3.257-7-6z" fill="#424144" opacity=".98"/><path d="m26.5 165.5c2.2488.58 3.9154 1.913 5 4-2.2488-.58-3.9154-1.913-5-4z" fill="#414144" opacity=".961"/><path d="m39.5 177.5c2.2488.58 3.9154 1.913 5 4-2.2488-.58-3.9154-1.913-5-4z" fill="#404043" opacity=".953"/><path d="m71.5 183.5c.073 1.527-.5937 2.527-2 3-.073-1.527.5937-2.527 2-3z" fill="#3a393c" opacity=".016"/><path d="m51.5 188.5c2.5892.919 4.5892 2.586 6 5-2.5892-.919-4.5892-2.586-6-5z" fill="#414043" opacity=".969"/></svg>