<?xml version="1.0" encoding="UTF-8"?>
<!DOCTYPE svg PUBLIC "-//W3C//DTD SVG 1.1//EN" "http://www.w3.org/Graphics/SVG/1.1/DTD/svg11.dtd">
<svg xmlns="http://www.w3.org/2000/svg" version="1.1" width="54px" height="54px" style="shape-rendering:geometricPrecision; text-rendering:geometricPrecision; image-rendering:optimizeQuality; fill-rule:evenodd; clip-rule:evenodd" xmlns:xlink="http://www.w3.org/1999/xlink">
<g><path style="opacity:1" fill="#7f2f37" d="M 25.5,-0.5 C 25.8333,-0.5 26.1667,-0.5 26.5,-0.5C 27.7298,1.29719 28.3964,3.29719 28.5,5.5C 33.001,5.99934 37.001,7.66601 40.5,10.5C 43.1667,9.16667 43.8333,9.83333 42.5,12.5C 44.8325,15.6657 46.4992,19.1657 47.5,23C 49.099,24.8148 51.099,25.9815 53.5,26.5C 53.5,26.8333 53.5,27.1667 53.5,27.5C 51.2537,27.9361 49.0871,28.6028 47,29.5C 46.1768,33.3106 44.6768,36.8106 42.5,40C 43.7903,43.2046 42.7903,44.0379 39.5,42.5C 36.2852,44.2743 32.9518,45.7743 29.5,47C 28.3313,49.0065 27.6646,51.1732 27.5,53.5C 26.8333,53.5 26.1667,53.5 25.5,53.5C 25.0818,50.9104 24.0818,48.5771 22.5,46.5C 19.2757,45.3046 16.1091,43.9712 13,42.5C 9.83333,44 9,43.1667 10.5,40C 8.42416,36.7805 6.92416,33.2805 6,29.5C 3.91293,28.6028 1.74627,27.9361 -0.5,27.5C -0.5,26.8333 -0.5,26.1667 -0.5,25.5C 1.82682,25.3354 3.99348,24.6687 6,23.5C 6.41354,19.3459 7.91354,15.6793 10.5,12.5C 10.3284,11.5084 10.6618,10.8417 11.5,10.5C 15.4969,8.00322 19.8303,6.33656 24.5,5.5C 24.8333,3.5 25.1667,1.5 25.5,-0.5 Z"/></g>
<g><path style="opacity:1" fill="#51292f" d="M 11.5,10.5 C 10.6618,10.8417 10.3284,11.5084 10.5,12.5C 9.2241,11.6136 9.2241,10.6136 10.5,9.5C 11.1067,9.62358 11.44,9.95691 11.5,10.5 Z"/></g>
</svg>
