<?xml version="1.0" encoding="UTF-8"?>
<!DOCTYPE svg PUBLIC "-//W3C//DTD SVG 1.1//EN" "http://www.w3.org/Graphics/SVG/1.1/DTD/svg11.dtd">
<svg xmlns="http://www.w3.org/2000/svg" version="1.1" width="55px" height="55px" style="shape-rendering:geometricPrecision; text-rendering:geometricPrecision; image-rendering:optimizeQuality; fill-rule:evenodd; clip-rule:evenodd" xmlns:xlink="http://www.w3.org/1999/xlink">
<g><path style="opacity:1" fill="#305b70" d="M 25.5,-0.5 C 26.5,-0.5 27.5,-0.5 28.5,-0.5C 28.5,2.5 28.5,5.5 28.5,8.5C 37.4968,8.99608 42.8301,13.6627 44.5,22.5C 44.5,23.5 44.5,24.5 44.5,25.5C 47.5,25.5 50.5,25.5 53.5,25.5C 53.8333,25.5 54.1667,25.5 54.5,25.5C 54.5,26.5 54.5,27.5 54.5,28.5C 51.1667,28.5 47.8333,28.5 44.5,28.5C 43.0518,37.6141 37.7185,42.6141 28.5,43.5C 28.5,46.8333 28.5,50.1667 28.5,53.5C 26.8813,50.4521 25.8813,47.1188 25.5,43.5C 16.2956,42.6289 10.9623,37.6289 9.5,28.5C 6.20331,28.11 3.20331,27.11 0.5,25.5C 3.2869,24.5233 6.2869,24.19 9.5,24.5C 10.5,14.8333 15.8333,9.5 25.5,8.5C 25.5,5.5 25.5,2.5 25.5,-0.5 Z"/></g>
<g><path style="opacity:0.224" fill="#1e313b" d="M 44.5,22.5 C 47.3657,23.9649 50.3657,24.9649 53.5,25.5C 50.5,25.5 47.5,25.5 44.5,25.5C 44.5,24.5 44.5,23.5 44.5,22.5 Z"/></g>
<g><path style="opacity:1" fill="#264453" d="M -0.5,25.5 C -0.166667,25.5 0.166667,25.5 0.5,25.5C 3.20331,27.11 6.20331,28.11 9.5,28.5C 6.16667,28.5 2.83333,28.5 -0.5,28.5C -0.5,27.5 -0.5,26.5 -0.5,25.5 Z"/></g>
<g><path style="opacity:1" fill="#29495a" d="M 25.5,43.5 C 25.8813,47.1188 26.8813,50.4521 28.5,53.5C 28.5,53.8333 28.5,54.1667 28.5,54.5C 27.5,54.5 26.5,54.5 25.5,54.5C 25.5,50.8333 25.5,47.1667 25.5,43.5 Z"/></g>
</svg>
