<?xml version="1.0" encoding="UTF-8"?>
<!DOCTYPE svg PUBLIC "-//W3C//DTD SVG 1.1//EN" "http://www.w3.org/Graphics/SVG/1.1/DTD/svg11.dtd">
<svg xmlns="http://www.w3.org/2000/svg" version="1.1" width="368px" height="325px" style="shape-rendering:geometricPrecision; text-rendering:geometricPrecision; image-rendering:optimizeQuality; fill-rule:evenodd; clip-rule:evenodd" xmlns:xlink="http://www.w3.org/1999/xlink">
<g><path style="opacity:0.951" fill="#8c9d3d" d="M 125.5,-0.5 C 126.833,-0.5 128.167,-0.5 129.5,-0.5C 130.117,1.22917 131.117,2.72917 132.5,4C 112.282,24.3462 103.782,48.8462 107,77.5C 107.595,82.7829 109.095,87.7829 111.5,92.5C 150.825,62.6725 192.825,58.5058 237.5,80C 243.674,83.9201 249.674,88.0868 255.5,92.5C 266.162,59.9768 259.829,31.1435 236.5,6C 237.826,3.84155 239.493,2.00822 241.5,0.5C 278.905,24.005 293.405,57.6717 285,101.5C 283.618,107.648 281.451,113.481 278.5,119C 279.46,120.419 280.293,121.919 281,123.5C 309.523,127.423 332.857,140.423 351,162.5C 358.995,174.15 364.495,186.817 367.5,200.5C 367.5,204.5 367.5,208.5 367.5,212.5C 365.105,213.363 362.771,213.363 360.5,212.5C 347.788,181.791 325.121,163.124 292.5,156.5C 297.975,203.378 280.975,239.545 241.5,265C 234.184,269.159 226.517,272.492 218.5,275C 236.142,296.401 258.975,307.234 287,307.5C 295.99,306.836 304.824,305.67 313.5,304C 316.805,307.049 316.805,309.716 313.5,312C 302.522,318.482 290.855,322.648 278.5,324.5C 269.5,324.5 260.5,324.5 251.5,324.5C 223.483,319.159 200.817,305.159 183.5,282.5C 166.183,305.159 143.517,319.159 115.5,324.5C 106.167,324.5 96.8333,324.5 87.5,324.5C 74.2238,322.069 61.8905,317.069 50.5,309.5C 51.373,307.587 52.373,305.753 53.5,304C 83.6575,311.544 111.324,306.21 136.5,288C 140.868,283.967 144.868,279.634 148.5,275C 116.368,263.868 93.5342,242.701 80,211.5C 73.6768,193.63 71.8434,175.297 74.5,156.5C 41.8791,163.124 19.2124,181.791 6.5,212.5C 4.22871,213.363 1.89538,213.363 -0.5,212.5C -0.5,208.5 -0.5,204.5 -0.5,200.5C 6.49168,169.327 24.4917,146.827 53.5,133C 64.0773,128.816 74.9107,125.649 86,123.5C 86.7065,121.919 87.5399,120.419 88.5,119C 73.0361,83.2976 77.2028,50.1309 101,19.5C 108.485,11.8339 116.651,5.1672 125.5,-0.5 Z M 172.5,82.5 C 201.55,80.3498 226.884,88.8498 248.5,108C 233.561,128.809 213.228,140.309 187.5,142.5C 187.173,147.544 187.506,152.544 188.5,157.5C 200.423,161.562 205.423,169.728 203.5,182C 207.371,185.111 211.705,186.778 216.5,187C 231.372,167.44 251.038,157.273 275.5,156.5C 281.135,208.553 259.301,243.553 210,261.5C 199.641,239.048 200.141,216.881 211.5,195C 207.912,193.077 204.246,191.244 200.5,189.5C 189.167,200.167 177.833,200.167 166.5,189.5C 162.833,191.333 159.167,193.167 155.5,195C 166.797,216.886 167.297,239.053 157,261.5C 107.699,243.553 85.8653,208.553 91.5,156.5C 109.205,156.682 124.872,162.515 138.5,174C 143.367,178.532 147.867,183.366 152,188.5C 155.786,186.357 159.619,184.357 163.5,182.5C 161.109,172.838 164.109,165.338 172.5,160C 174.65,158.589 176.984,157.755 179.5,157.5C 179.5,152.5 179.5,147.5 179.5,142.5C 153.768,140.307 133.435,128.807 118.5,108C 133.859,93.8288 151.859,85.3288 172.5,82.5 Z"/></g>
</svg>
