<svg clip-rule="evenodd" fill-rule="evenodd" height="351" image-rendering="optimizeQuality" shape-rendering="geometricPrecision" text-rendering="geometricPrecision" width="368" xmlns="http://www.w3.org/2000/svg"><path d="m177.5-.5h11c5.026 2.36669 7.86 6.36669 8.5 12 .333 17.6667.667 35.3333 1 53 10.471-9.4698 20.637-19.3031 30.5-29.5 5.942-4.7399 12.275-5.4066 19-2 5.079 5.0275 6.245 10.8608 3.5 17.5-17.667 17-35.333 34-53 51-.5 20.331-.667 40.664-.5 61 20.669.167 41.336 0 62-.5 17-16.333 34-32.667 51-49 7.293-6.017 14.46-5.851 21.5.5 2.893 4.814 3.226 9.814 1 15-11.196 11.53-22.696 22.697-34.5 33.5 20.333.333 40.667.667 61 1 3.328 1.479 5.994 3.645 8 6.5v11c-2.006 2.855-4.672 5.021-8 6.5-20.333.333-40.667.667-61 1 11.804 10.803 23.304 21.97 34.5 33.5 3.685 11.298-.315 17.964-12 20-3.927-.548-7.427-2.048-10.5-4.5-17-16.333-34-32.667-51-49-20.664-.5-41.331-.667-62-.5-.167 20.336 0 40.669.5 61 17.667 17 35.333 34 53 51 3.391 14.942-2.442 21.108-17.5 18.5-1.667-1-3.333-2-5-3-9.863-10.197-20.029-20.03-30.5-29.5-.333 17.667-.667 35.333-1 53-.64 5.633-3.474 9.633-8.5 12-3.667 0-7.333 0-11 0-4.261-2.846-6.761-6.846-7.5-12-.333-17.667-.667-35.333-1-53-11.534 11.202-23.367 22.035-35.5 32.5-11.095 3.295-17.429-.705-19-12-.006-2.3.494-4.466 1.5-6.5 17.667-17 35.333-34 53-51 .5-20.331.667-40.664.5-61-20.669-.167-41.336 0-62 .5-17 16.333-34 32.667-51 49-7.2932 6.017-14.4598 5.851-21.5-.5-2.8926-4.814-3.2259-9.814-1-15 11.1958-11.53 22.6958-22.697 34.5-33.5-20.3333-.333-40.6667-.667-61-1-3.46136-1.305-6.12803-3.471-8-6.5 0-3.667 0-7.333 0-11 1.87197-3.029 4.53864-5.195 8-6.5 20.3333-.333 40.6667-.667 61-1-11.8042-10.803-23.3042-21.97-34.5-33.5-3.6853-11.298.3147-17.964 12-20 3.9267.548 7.4267 2.048 10.5 4.5 17 16.333 34 32.667 51 49 20.664.5 41.331.667 62 .5.167-20.336 0-40.669-.5-61-17.667-17-35.333-34-53-51-4.079-11.2848-.246-17.9515 11.5-20 4.644.4894 8.644 2.3227 12 5.5 9.53 9.8637 19.363 19.3637 29.5 28.5.333-17.6667.667-35.3333 1-53 .739-5.15415 3.239-9.15415 7.5-12z" fill="#1298b9" opacity=".959"/></svg>