<?xml version="1.0" encoding="UTF-8"?>
<!DOCTYPE svg PUBLIC "-//W3C//DTD SVG 1.1//EN" "http://www.w3.org/Graphics/SVG/1.1/DTD/svg11.dtd">
<svg xmlns="http://www.w3.org/2000/svg" version="1.1" width="278px" height="389px" style="shape-rendering:geometricPrecision; text-rendering:geometricPrecision; image-rendering:optimizeQuality; fill-rule:evenodd; clip-rule:evenodd" xmlns:xlink="http://www.w3.org/1999/xlink">
<g><path style="opacity:0.981" fill="#d43b30" d="M 135.5,-0.5 C 135.833,-0.5 136.167,-0.5 136.5,-0.5C 159.842,49.5386 172.509,102.205 174.5,157.5C 174.033,170.711 172.533,183.711 170,196.5C 176.708,191.459 182.375,185.459 187,178.5C 197.533,162.939 206.866,146.606 215,129.5C 233.611,160.667 244.611,194.334 248,230.5C 257.421,220.575 267.254,211.242 277.5,202.5C 277.5,220.5 277.5,238.5 277.5,256.5C 275.498,283.497 268.331,309.164 256,333.5C 241.787,357.041 221.621,373.208 195.5,382C 186.484,384.672 177.484,386.839 168.5,388.5C 166.167,388.5 163.833,388.5 161.5,388.5C 168.854,380.641 175.687,372.308 182,363.5C 197.97,340.652 201.637,315.985 193,289.5C 179.171,304.671 162.671,315.838 143.5,323C 140.883,323.822 138.216,324.322 135.5,324.5C 136.193,301.708 133.359,279.374 127,257.5C 122.084,242.652 113.918,229.985 102.5,219.5C 88.6959,274.512 91.0293,328.845 109.5,382.5C 82.2724,379.373 57.6057,369.873 35.5,354C 14.338,335.507 2.33801,312.341 -0.5,284.5C -0.5,272.833 -0.5,261.167 -0.5,249.5C 1.63871,233.653 5.13871,217.987 10,202.5C 13.8373,214.005 18.8373,225.005 25,235.5C 30.5896,243.878 38.423,247.878 48.5,247.5C 46.6062,224.538 46.1062,201.538 47,178.5C 49.4098,146.599 59.7432,117.599 78,91.5C 91.7148,74.7869 105.048,57.7869 118,40.5C 125.883,27.6757 131.717,14.0091 135.5,-0.5 Z"/></g>
</svg>
