<?xml version="1.0" encoding="UTF-8"?>
<!DOCTYPE svg PUBLIC "-//W3C//DTD SVG 1.1//EN" "http://www.w3.org/Graphics/SVG/1.1/DTD/svg11.dtd">
<svg xmlns="http://www.w3.org/2000/svg" version="1.1" width="284px" height="272px" style="shape-rendering:geometricPrecision; text-rendering:geometricPrecision; image-rendering:optimizeQuality; fill-rule:evenodd; clip-rule:evenodd" xmlns:xlink="http://www.w3.org/1999/xlink">
<g><path style="opacity:0.932" fill="#497d86" d="M 145.5,-0.5 C 145.833,-0.5 146.167,-0.5 146.5,-0.5C 156.257,25.5997 165.923,51.7663 175.5,78C 175.167,78.5 174.833,79 174.5,79.5C 165.833,77.8333 157.167,76.1667 148.5,74.5C 147.341,78.122 147.175,81.7887 148,85.5C 164.7,87.1847 179.367,93.518 192,104.5C 199.119,81.1459 194.619,60.3125 178.5,42C 179.685,40.647 181.019,39.4803 182.5,38.5C 205.496,53.4945 215.996,74.8279 214,102.5C 212.71,110.34 211.043,118.007 209,125.5C 215.288,128.037 221.788,130.204 228.5,132C 254.444,143.383 268.444,163.216 270.5,191.5C 268.5,191.5 266.5,191.5 264.5,191.5C 256.669,169.171 241.169,155.505 218,150.5C 219.961,165.277 218.128,179.611 212.5,193.5C 216.226,196.687 220.559,198.187 225.5,198C 229.868,193.967 233.868,189.634 237.5,185C 238.167,184.333 238.833,184.333 239.5,185C 253.663,201.661 268.33,217.828 283.5,233.5C 283.5,234.167 283.5,234.833 283.5,235.5C 269.426,231.531 255.592,226.864 242,221.5C 236.639,228.695 231.472,236.028 226.5,243.5C 217.46,233.795 208.793,223.795 200.5,213.5C 190.987,223.756 179.654,231.256 166.5,236C 178.61,251.136 194.443,258.636 214,258.5C 220.268,258.41 226.434,257.91 232.5,257C 234.146,258.555 234.479,260.221 233.5,262C 225.832,266.273 217.832,269.439 209.5,271.5C 202.5,271.5 195.5,271.5 188.5,271.5C 169.23,267.442 153.73,257.442 142,241.5C 129.999,257.741 114.166,267.741 94.5,271.5C 87.8333,271.5 81.1667,271.5 74.5,271.5C 65.7463,269.854 57.5796,266.52 50,261.5C 49.2277,259.045 50.061,257.378 52.5,256.5C 78.2402,262.866 99.9069,256.032 117.5,236C 103.826,231.255 92.3263,223.422 83,212.5C 74.563,223.051 65.8963,233.384 57,243.5C 51.1871,236.551 45.8537,229.218 41,221.5C 27.4076,226.864 13.5743,231.531 -0.5,235.5C -0.5,234.833 -0.5,234.167 -0.5,233.5C 14.6704,217.828 29.337,201.661 43.5,185C 44.1667,184.333 44.8333,184.333 45.5,185C 49.1321,189.634 53.1321,193.967 57.5,198C 62.5909,197.962 67.2575,196.462 71.5,193.5C 65.7277,179.718 63.561,165.385 65,150.5C 42.8697,155.96 27.5364,169.294 19,190.5C 17.3005,191.406 15.4672,191.739 13.5,191.5C 15.1779,162.986 29.1779,143.153 55.5,132C 61.4164,130.021 67.4164,128.354 73.5,127C 74.1667,126 74.8333,125 75.5,124C 65.2275,98.5623 68.0608,74.729 84,52.5C 89.1952,45.9618 95.5286,40.9618 103,37.5C 104.714,38.0762 105.881,39.2429 106.5,41C 89.2889,59.3953 84.4555,80.562 92,104.5C 102.933,95.2839 115.433,89.1173 129.5,86C 124.407,73.5567 119.407,61.0567 114.5,48.5C 123.853,48.1663 133.186,48.833 142.5,50.5C 143.459,33.4972 144.459,16.4972 145.5,-0.5 Z M 145.5,97.5 C 161.285,98.8657 174.952,104.866 186.5,115.5C 176.601,130.46 162.601,138.793 144.5,140.5C 144.177,144.226 144.511,147.893 145.5,151.5C 153.435,154.884 156.768,160.718 155.5,169C 158.005,170.753 160.671,172.253 163.5,173.5C 174.277,159.277 188.611,151.61 206.5,150.5C 208.192,163.608 206.525,176.275 201.5,188.5C 201,188.833 200.5,189.167 200,189.5C 191.609,185.707 183.109,182.541 174.5,180C 180.333,187.167 186.167,194.333 192,201.5C 192.667,202.5 192.667,203.5 192,204.5C 183.675,214.494 173.341,221.494 161,225.5C 153.541,209.803 153.708,194.136 161.5,178.5C 157.414,173.921 153.414,173.754 149.5,178C 142.236,181.395 135.736,180.229 130,174.5C 127.073,175.377 124.573,176.877 122.5,179C 130.483,194.571 130.483,210.071 122.5,225.5C 109.808,221.243 99.308,213.91 91,203.5C 90.3333,202.833 90.3333,202.167 91,201.5C 96.8333,194.333 102.667,187.167 108.5,180C 99.7584,182.803 91.0917,185.803 82.5,189C 76.9586,176.707 75.2919,163.874 77.5,150.5C 90.5113,150.841 101.845,155.341 111.5,164C 113.986,167.485 116.819,170.652 120,173.5C 122.227,172.637 124.393,171.637 126.5,170.5C 126.235,161.343 130.235,155.01 138.5,151.5C 139.489,147.893 139.823,144.226 139.5,140.5C 121.638,138.775 107.638,130.608 97.5,116C 106.415,106.539 117.415,100.705 130.5,98.5C 131.772,98.5698 132.938,98.9032 134,99.5C 137,107.167 140,114.833 143,122.5C 144.657,114.289 145.49,105.956 145.5,97.5 Z"/></g>
</svg>
