<?xml version="1.0" encoding="UTF-8"?>
<!DOCTYPE svg PUBLIC "-//W3C//DTD SVG 1.1//EN" "http://www.w3.org/Graphics/SVG/1.1/DTD/svg11.dtd">
<svg xmlns="http://www.w3.org/2000/svg" version="1.1" width="369px" height="395px" style="shape-rendering:geometricPrecision; text-rendering:geometricPrecision; image-rendering:optimizeQuality; fill-rule:evenodd; clip-rule:evenodd" xmlns:xlink="http://www.w3.org/1999/xlink">
<g><path style="opacity:0.965" fill="#e94685" d="M 179.5,-0.5 C 180.167,-0.5 180.833,-0.5 181.5,-0.5C 189.739,34.4574 198.905,69.124 209,103.5C 224.258,94.4531 239.758,85.7865 255.5,77.5C 255.833,78 256.167,78.5 256.5,79C 253.896,92.7928 251.562,106.626 249.5,120.5C 271.722,117.213 293.888,113.546 316,109.5C 316.5,109.833 317,110.167 317.5,110.5C 306.373,129.919 295.373,149.419 284.5,169C 312.403,183.119 340.403,196.952 368.5,210.5C 368.5,211.167 368.5,211.833 368.5,212.5C 338.879,221.655 309.213,230.655 279.5,239.5C 286.99,258.819 295.324,277.819 304.5,296.5C 303,296.833 301.5,297.167 300,297.5C 279.524,295.474 259.024,293.808 238.5,292.5C 238.926,315.169 239.093,337.836 239,360.5C 227.66,345.666 216.16,330.999 204.5,316.5C 188.986,342.193 173.986,368.193 159.5,394.5C 158.833,394.5 158.167,394.5 157.5,394.5C 152.734,368.168 147.9,341.834 143,315.5C 129,327.5 115,339.5 101,351.5C 104.403,326.748 108.57,302.081 113.5,277.5C 93.285,279.154 72.9516,281.488 52.5,284.5C 51.8333,284.167 51.1667,283.833 50.5,283.5C 65.0413,259.583 79.7079,235.75 94.5,212C 62.9196,200.196 31.2529,188.696 -0.5,177.5C -0.5,177.167 -0.5,176.833 -0.5,176.5C 28.8197,172.668 58.153,168.835 87.5,165C 80.6442,145.399 74.8108,125.566 70,105.5C 84.0312,115.03 98.1979,124.363 112.5,133.5C 114.358,115.409 116.192,97.4092 118,79.5C 130.48,90.7361 143.146,101.736 156,112.5C 164.028,74.859 171.861,37.1924 179.5,-0.5 Z M 224.5,136.5 C 227.042,150.735 229.708,165.069 232.5,179.5C 242.192,171.974 252.025,164.641 262,157.5C 260.284,170.805 258.45,184.138 256.5,197.5C 269.446,201.982 282.113,207.149 294.5,213C 275.473,216.772 256.473,220.605 237.5,224.5C 239.055,236.265 241.388,248.098 244.5,260C 244.167,260.5 243.833,261 243.5,261.5C 228.167,252.833 212.833,244.167 197.5,235.5C 196.93,253.2 196.097,270.867 195,288.5C 185.333,275.833 175.667,263.167 166,250.5C 154.167,257.331 142.334,263.331 130.5,268.5C 135.073,254.28 139.74,240.113 144.5,226C 130.863,211.362 116.863,197.029 102.5,183C 121.195,184.281 139.862,186.114 158.5,188.5C 154.999,177.508 151.832,166.508 149,155.5C 160.703,162.699 172.536,169.699 184.5,176.5C 188.747,168.338 193.247,160.338 198,152.5C 201.742,161.648 205.742,170.648 210,179.5C 215.141,165.243 219.975,150.909 224.5,136.5 Z"/></g>
</svg>
