<?xml version="1.0" encoding="UTF-8"?>
<!DOCTYPE svg PUBLIC "-//W3C//DTD SVG 1.1//EN" "http://www.w3.org/Graphics/SVG/1.1/DTD/svg11.dtd">
<svg xmlns="http://www.w3.org/2000/svg" version="1.1" width="297px" height="264px" style="shape-rendering:geometricPrecision; text-rendering:geometricPrecision; image-rendering:optimizeQuality; fill-rule:evenodd; clip-rule:evenodd" xmlns:xlink="http://www.w3.org/1999/xlink">
<g><path style="opacity:0.954" fill="#7269a0" d="M 152.5,-0.5 C 152.833,-0.5 153.167,-0.5 153.5,-0.5C 158.043,16.6803 163.043,33.6803 168.5,50.5C 180.993,44.0876 193.326,37.4209 205.5,30.5C 204.835,41.5055 203.168,52.5055 200.5,63.5C 201.167,63.8333 201.833,64.1667 202.5,64.5C 220.259,61.0599 237.925,58.3932 255.5,56.5C 246.833,71.5 238.167,86.5 229.5,101.5C 251.706,112.77 274.039,123.77 296.5,134.5C 296.5,134.833 296.5,135.167 296.5,135.5C 274.503,142.22 252.503,149.054 230.5,156C 235.709,171.336 240.376,186.836 244.5,202.5C 226.705,200.544 209.039,199.21 191.5,198.5C 195.305,212.692 198.138,227.025 200,241.5C 192.167,236.333 184.333,231.167 176.5,226C 175.5,225.333 174.5,225.333 173.5,226C 162.292,238.371 151.292,250.871 140.5,263.5C 139.833,263.5 139.167,263.5 138.5,263.5C 131.207,247.581 123.374,231.914 115,216.5C 103.978,225.69 92.8113,234.69 81.5,243.5C 81.1667,243.167 80.8333,242.833 80.5,242.5C 84.2191,223.904 87.5524,205.238 90.5,186.5C 73.8379,188.333 57.1713,189.833 40.5,191C 49.6428,179.023 58.9762,167.19 68.5,155.5C 45.6434,139.908 22.6434,124.575 -0.5,109.5C -0.5,108.833 -0.5,108.167 -0.5,107.5C 22.8154,104.669 46.1487,102.002 69.5,99.5C 64.672,83.8583 60.172,68.1917 56,52.5C 67.6667,59.8333 79.3333,67.1667 91,74.5C 92.2604,60.5216 93.0937,46.5216 93.5,32.5C 94.552,32.3505 95.552,32.5172 96.5,33C 106.02,41.3545 115.687,49.5211 125.5,57.5C 134.498,38.1712 143.498,18.8378 152.5,-0.5 Z M 147.5,53.5 C 150.652,52.9586 153.152,53.9586 155,56.5C 155.168,65.8511 155.668,75.1845 156.5,84.5C 161.985,79.515 167.319,74.3484 172.5,69C 178.167,67.6723 180.667,69.8389 180,75.5C 172,83.5 164,91.5 156,99.5C 155.5,109.494 155.334,119.494 155.5,129.5C 165.506,129.666 175.506,129.5 185.5,129C 193.744,120.085 202.578,111.918 212,104.5C 215.901,105.318 217.568,107.651 217,111.5C 211.866,117.635 206.366,123.469 200.5,129C 209.5,129.333 218.5,129.667 227.5,130C 233.595,133.005 233.928,136.338 228.5,140C 219.167,140.333 209.833,140.667 200.5,141C 206.366,146.531 211.866,152.365 217,158.5C 217.312,163.775 214.812,165.942 209.5,165C 201.5,157 193.5,149 185.5,141C 175.506,140.5 165.506,140.334 155.5,140.5C 155.334,150.506 155.5,160.506 156,170.5C 164.745,178.742 172.912,187.408 180.5,196.5C 178.83,202.503 175.497,203.67 170.5,200C 165.667,195.167 160.833,190.333 156,185.5C 155.667,194.833 155.333,204.167 155,213.5C 151.775,218.676 148.442,218.676 145,213.5C 144.667,204.167 144.333,194.833 144,185.5C 138.469,191.366 132.635,196.866 126.5,202C 120.531,201.902 118.698,199.068 121,193.5C 128.667,185.833 136.333,178.167 144,170.5C 144.5,160.506 144.666,150.506 144.5,140.5C 134.494,140.334 124.494,140.5 114.5,141C 106.258,149.745 97.5917,157.912 88.5,165.5C 82.8289,163.652 81.6623,160.319 85,155.5C 89.8333,150.667 94.6667,145.833 99.5,141C 90.1667,140.667 80.8333,140.333 71.5,140C 66.1728,136.266 66.5062,132.933 72.5,130C 81.5,129.667 90.5,129.333 99.5,129C 93.0919,123.262 87.4252,116.929 82.5,110C 84.2041,105.228 87.2041,103.894 91.5,106C 99.1667,113.667 106.833,121.333 114.5,129C 124.494,129.5 134.494,129.666 144.5,129.5C 144.666,119.494 144.5,109.494 144,99.5C 135.085,91.2558 126.918,82.4225 119.5,73C 120.829,69.0063 123.496,67.673 127.5,69C 133.302,73.8004 138.802,78.967 144,84.5C 144.333,75.5 144.667,66.5 145,57.5C 145.662,56.0161 146.496,54.6828 147.5,53.5 Z"/></g>
</svg>
