<?xml version="1.0" encoding="UTF-8"?>
<!DOCTYPE svg PUBLIC "-//W3C//DTD SVG 1.1//EN" "http://www.w3.org/Graphics/SVG/1.1/DTD/svg11.dtd">
<svg xmlns="http://www.w3.org/2000/svg" version="1.1" width="69px" height="70px" style="shape-rendering:geometricPrecision; text-rendering:geometricPrecision; image-rendering:optimizeQuality; fill-rule:evenodd; clip-rule:evenodd" xmlns:xlink="http://www.w3.org/1999/xlink">
<g><path style="opacity:1" fill="#20313c" d="M 31.5,-0.5 C 32.8333,-0.5 34.1667,-0.5 35.5,-0.5C 35.5,-0.166667 35.5,0.166667 35.5,0.5C 34.5,0.5 33.5,0.5 32.5,0.5C 32.5,4.16667 32.5,7.83333 32.5,11.5C 31.5,11.5 30.5,11.5 29.5,11.5C 30.2778,10.8444 30.9444,10.0111 31.5,9C 31.4301,8.2352 31.0967,7.7352 30.5,7.5C 31.2653,4.90391 31.5987,2.23725 31.5,-0.5 Z"/></g>
<g><path style="opacity:1" fill="#345e71" d="M 35.5,0.5 C 34.9197,4.64903 35.5864,8.31569 37.5,11.5C 49.0675,13.7353 55.4008,20.7353 56.5,32.5C 58.8333,32.5 61.1667,32.5 63.5,32.5C 65.1667,32.5 66.8333,32.5 68.5,32.5C 68.5,33.8333 68.5,35.1667 68.5,36.5C 65.7628,36.4013 63.0961,36.7347 60.5,37.5C 59.2918,36.218 57.9584,36.218 56.5,37.5C 53.902,48.1013 47.2354,54.1013 36.5,55.5C 35.5151,59.6344 35.1818,63.9677 35.5,68.5C 34.8333,68.5 34.5,68.8333 34.5,69.5C 34.1667,69.5 33.8333,69.5 33.5,69.5C 33.5,68.8333 33.1667,68.5 32.5,68.5C 32.8182,63.9677 32.4849,59.6344 31.5,55.5C 20.3072,53.9748 13.6406,47.6414 11.5,36.5C 9.58533,36.2155 7.91866,36.5489 6.5,37.5C 4.23625,36.7814 1.90291,36.448 -0.5,36.5C -0.5,35.1667 -0.5,33.8333 -0.5,32.5C 1.16667,32.5 2.83333,32.5 4.5,32.5C 6.83333,32.5 9.16667,32.5 11.5,32.5C 12.4819,21.1856 18.4819,14.1856 29.5,11.5C 30.5,11.5 31.5,11.5 32.5,11.5C 32.5,7.83333 32.5,4.16667 32.5,0.5C 33.5,0.5 34.5,0.5 35.5,0.5 Z"/></g>
<g><path style="opacity:1" fill="#1e2830" d="M 35.5,0.5 C 36.4682,2.60737 36.8016,4.9407 36.5,7.5C 37.791,7.26269 38.791,7.59603 39.5,8.5C 36.7524,8.40171 36.0857,9.40171 37.5,11.5C 35.5864,8.31569 34.9197,4.64903 35.5,0.5 Z"/></g>
<g><path style="opacity:1" fill="#6e3036" d="M 30.5,7.5 C 31.0967,7.7352 31.4301,8.2352 31.5,9C 30.9444,10.0111 30.2778,10.8444 29.5,11.5C 18.4819,14.1856 12.4819,21.1856 11.5,32.5C 9.16667,32.5 6.83333,32.5 4.5,32.5C 5.39836,31.8423 6.39836,31.1757 7.5,30.5C 8.44149,25.5011 10.4415,21.0011 13.5,17C 11.9861,15.561 11.6527,14.061 12.5,12.5C 14.0983,13.4847 15.765,13.6514 17.5,13C 21.3729,10.0631 25.7062,8.2298 30.5,7.5 Z"/></g>
<g><path style="opacity:1" fill="#6e3036" d="M 39.5,8.5 C 44.3958,9.61879 49.0625,11.2855 53.5,13.5C 54.3382,13.8417 54.6716,14.5084 54.5,15.5C 55.9873,19.1454 57.4873,22.812 59,26.5C 59.4935,28.1341 59.6602,29.8008 59.5,31.5C 61.099,31.2322 62.4324,31.5655 63.5,32.5C 61.1667,32.5 58.8333,32.5 56.5,32.5C 55.4008,20.7353 49.0675,13.7353 37.5,11.5C 36.0857,9.40171 36.7524,8.40171 39.5,8.5 Z"/></g>
<g><path style="opacity:1" fill="#29232a" d="M 53.5,13.5 C 54.3023,12.1153 54.9689,12.282 55.5,14C 55.4301,14.7648 55.0967,15.2648 54.5,15.5C 54.6716,14.5084 54.3382,13.8417 53.5,13.5 Z"/></g>
<g><path style="opacity:1" fill="#f2f5f6" d="M 18.5,26.5 C 24.9857,24.8346 27.819,27.168 27,33.5C 25.103,35.0163 22.9363,35.683 20.5,35.5C 20.7852,37.288 20.4519,38.9547 19.5,40.5C 18.5067,35.8804 18.1734,31.2137 18.5,26.5 Z"/></g>
<g><path style="opacity:1" fill="#e8edef" d="M 37.5,32.5 C 35.8333,33.1667 34.1667,33.8333 32.5,34.5C 32.5,35.8333 32.5,37.1667 32.5,38.5C 34.604,38.2011 36.604,38.5344 38.5,39.5C 35.9135,40.48 33.2469,40.8134 30.5,40.5C 30.5,35.8333 30.5,31.1667 30.5,26.5C 33.2469,26.1866 35.9135,26.52 38.5,27.5C 36.604,28.4656 34.604,28.7989 32.5,28.5C 32.5,29.8333 32.5,31.1667 32.5,32.5C 34.1667,32.5 35.8333,32.5 37.5,32.5 Z"/></g>
<g><path style="opacity:1" fill="#dae2e6" d="M 40.5,26.5 C 43.1873,26.3359 45.854,26.5026 48.5,27C 51.2652,29.9663 50.9318,32.633 47.5,35C 48.8721,36.2419 49.8721,37.7419 50.5,39.5C 49.9984,40.521 49.3317,40.6877 48.5,40C 45.3965,32.7424 43.7298,32.9091 43.5,40.5C 42.5,40.5 41.5,40.5 40.5,40.5C 40.5,35.8333 40.5,31.1667 40.5,26.5 Z"/></g>
<g><path style="opacity:1" fill="#3b6578" d="M 20.5,28.5 C 24.6759,27.8307 26.0093,29.3307 24.5,33C 23.2068,33.49 21.8734,33.6567 20.5,33.5C 20.5,31.8333 20.5,30.1667 20.5,28.5 Z"/></g>
<g><path style="opacity:1" fill="#356074" d="M 43.5,28.5 C 44.8333,28.5 46.1667,28.5 47.5,28.5C 47.5,29.8333 47.5,31.1667 47.5,32.5C 46.1667,32.5 44.8333,32.5 43.5,32.5C 43.5,31.1667 43.5,29.8333 43.5,28.5 Z"/></g>
<g><path style="opacity:1" fill="#90a7b2" d="M 37.5,32.5 C 38.0431,32.56 38.3764,32.8933 38.5,33.5C 36.604,34.4656 34.604,34.7989 32.5,34.5C 34.1667,33.8333 35.8333,33.1667 37.5,32.5 Z"/></g>
<g><path style="opacity:1" fill="#6d3036" d="M 6.5,37.5 C 7.91866,36.5489 9.58533,36.2155 11.5,36.5C 13.6406,47.6414 20.3072,53.9748 31.5,55.5C 31.8016,58.0593 31.4682,60.3926 30.5,62.5C 30.5,61.5 30.5,60.5 30.5,59.5C 25.8661,58.6858 21.5328,57.0191 17.5,54.5C 11.7489,57.9129 10.4156,56.7463 13.5,51C 11.0397,46.3644 8.7064,41.8644 6.5,37.5 Z"/></g>
<g><path style="opacity:1" fill="#6f3037" d="M 60.5,37.5 C 58.8645,42.2684 56.5312,46.7684 53.5,51C 54.2524,51.6708 54.5858,52.5041 54.5,53.5C 54.6716,54.4916 54.3382,55.1583 53.5,55.5C 52.3052,55.3225 51.1385,54.9891 50,54.5C 46.2266,57.1362 42.06,58.8029 37.5,59.5C 36.5655,58.4324 36.2322,57.099 36.5,55.5C 47.2354,54.1013 53.902,48.1013 56.5,37.5C 57.9584,36.218 59.2918,36.218 60.5,37.5 Z"/></g>
<g><path style="opacity:1" fill="#203743" d="M 31.5,55.5 C 32.4849,59.6344 32.8182,63.9677 32.5,68.5C 31.7148,66.6264 31.0482,64.6264 30.5,62.5C 31.4682,60.3926 31.8016,58.0593 31.5,55.5 Z"/></g>
<g><path style="opacity:1" fill="#262229" d="M 54.5,53.5 C 55.7759,54.3864 55.7759,55.3864 54.5,56.5C 53.8933,56.3764 53.56,56.0431 53.5,55.5C 54.3382,55.1583 54.6716,54.4916 54.5,53.5 Z"/></g>
<g><path style="opacity:1" fill="#1a2730" d="M 36.5,55.5 C 36.2322,57.099 36.5655,58.4324 37.5,59.5C 36.9115,62.6104 36.2448,65.6104 35.5,68.5C 35.1818,63.9677 35.5151,59.6344 36.5,55.5 Z"/></g>
</svg>
